<svg xmlns="http://www.w3.org/2000/svg" width="18.31" height="17.964" viewBox="0 0 18.31 17.964">
  <g id="Group_4" data-name="Group 4" transform="translate(0 -1)">
    <path id="Vector" d="M7.193,13.732A5.88,5.88,0,0,1,10.474,8.46a2.894,2.894,0,0,0,.559-1.236c.231-.018.6-.23.7-1.069a.765.765,0,0,0-.31-.783,3.461,3.461,0,0,0,.345-1.448c0-1.588-.623-2.943-1.962-2.943A2.08,2.08,0,0,0,7.847,0,3.6,3.6,0,0,0,3.924,3.924a3.9,3.9,0,0,0,.345,1.448.766.766,0,0,0-.31.783c.107.839.471,1.052.7,1.069a3.415,3.415,0,0,0,1.224,1.93v1.308C5.231,12.424,0,11.116,0,15.694H7.535A5.856,5.856,0,0,1,7.193,13.732Z" transform="translate(0 1)" fill="#fff"/>
    <path id="Vector-2" data-name="Vector" d="M5.231,0a5.231,5.231,0,1,0,5.231,5.231A5.231,5.231,0,0,0,5.231,0ZM7.473,5.979H5.979V7.473a.747.747,0,1,1-1.495,0V5.979H2.989a.747.747,0,0,1,0-1.495H4.484V2.989a.747.747,0,1,1,1.495,0V4.484H7.473a.747.747,0,0,1,0,1.495Z" transform="translate(7.847 8.501)" fill="#fff"/>
  </g>
</svg>
