<svg id="Audio_Icon" data-name="Audio Icon" xmlns="http://www.w3.org/2000/svg" width="47" height="52" viewBox="0 0 47 52">
  <rect id="Rectangle_255" data-name="Rectangle 255" width="47" height="52" rx="13" fill="none"/>
  <g id="Group_834" data-name="Group 834" transform="translate(-205.433 -1139.118)">
    <g id="Group_827" data-name="Group 827" transform="translate(220.372 1169.807)">
      <path id="Path_509" data-name="Path 509" d="M267.269,1320.8a8.5,8.5,0,0,1-8.494-8.493.67.67,0,1,1,1.339,0,7.154,7.154,0,0,0,14.308,0,.67.67,0,1,1,1.339,0A8.5,8.5,0,0,1,267.269,1320.8Z" transform="translate(-258.775 -1311.641)" fill="#324755"/>
    </g>
    <g id="Group_828" data-name="Group 828" transform="translate(225.695 1163.009)">
      <path id="Path_510" data-name="Path 510" d="M302.3,1271.527h-1.226a2.56,2.56,0,0,1-2.558-2.557v-5.524a2.56,2.56,0,0,1,2.558-2.557H302.3a2.56,2.56,0,0,1,2.557,2.557v5.524A2.56,2.56,0,0,1,302.3,1271.527Zm-1.226-9.3a1.22,1.22,0,0,0-1.218,1.218v5.524a1.22,1.22,0,0,0,1.218,1.218H302.3a1.22,1.22,0,0,0,1.218-1.218v-5.524a1.219,1.219,0,0,0-1.218-1.218Z" transform="translate(-298.516 -1260.889)" fill="#324755"/>
    </g>
    <g id="Group_829" data-name="Group 829" transform="translate(228.196 1177.63)">
      <path id="Path_511" data-name="Path 511" d="M317.858,1376.537a.669.669,0,0,1-.67-.67v-5.148a.67.67,0,1,1,1.339,0v5.148A.669.669,0,0,1,317.858,1376.537Z" transform="translate(-317.188 -1370.049)" fill="#324755"/>
    </g>
    <g id="Group_830" data-name="Group 830" transform="translate(223.106 1158.517)">
      <path id="Path_512" data-name="Path 512" d="M290.093,1231.4a.67.67,0,0,1-.553-.29,5.573,5.573,0,0,0-9.14-.073.67.67,0,1,1-1.091-.777,6.913,6.913,0,0,1,11.335.092.67.67,0,0,1-.551,1.049Z" transform="translate(-279.186 -1227.353)" fill="#324755"/>
    </g>
    <g id="Group_831" data-name="Group 831" transform="translate(214.433 1147.871)">
      <path id="Path_513" data-name="Path 513" d="M242.786,1156.534a.671.671,0,0,1-.553-.29,16.22,16.22,0,0,0-26.585-.214.67.67,0,0,1-1.091-.777,17.56,17.56,0,0,1,28.78.233.67.67,0,0,1-.551,1.049Z" transform="translate(-214.433 -1147.871)" fill="#324755"/>
    </g>
    <g id="Group_832" data-name="Group 832" transform="translate(218.769 1153.193)">
      <path id="Path_514" data-name="Path 514" d="M266.437,1193.964a.667.667,0,0,1-.553-.29,10.9,10.9,0,0,0-17.863-.144.67.67,0,1,1-1.091-.777,12.236,12.236,0,0,1,20.058.162.669.669,0,0,1-.551,1.049Z" transform="translate(-246.806 -1187.607)" fill="#324755"/>
    </g>
    <g id="Group_833" data-name="Group 833" transform="translate(223.106 1158.517)">
      <path id="Path_515" data-name="Path 515" d="M290.093,1231.4a.67.67,0,0,1-.553-.29,5.573,5.573,0,0,0-9.14-.073.67.67,0,1,1-1.091-.777,6.913,6.913,0,0,1,11.335.092.67.67,0,0,1-.551,1.049Z" transform="translate(-279.186 -1227.353)" fill="#324755"/>
    </g>
  </g>
</svg>
