<svg xmlns="http://www.w3.org/2000/svg" width="31.564" height="31.564" viewBox="0 0 31.564 31.564">
  <path id="Path_622" data-name="Path 622" d="M635.657,360.35a7.307,7.307,0,1,0,7.307,7.307A7.315,7.315,0,0,0,635.657,360.35Zm0,13.569a6.263,6.263,0,1,1,6.263-6.263A6.27,6.27,0,0,1,635.657,373.92Zm-.522-16.179v-5.219a.522.522,0,0,1,1.044,0v5.219a.522.522,0,0,1-1.044,0Zm1.044,19.832v5.219a.522.522,0,1,1-1.044,0v-5.219a.522.522,0,0,1,1.044,0Zm15.135-9.916a.522.522,0,0,1-.522.522h-5.219a.522.522,0,0,1,0-1.044h5.219A.522.522,0,0,1,651.314,367.657Zm-25.573.522h-5.219a.522.522,0,0,1,0-1.044h5.219a.522.522,0,1,1,0,1.044Zm21.245,10.069a.522.522,0,1,1-.738.738l-3.949-3.948a.522.522,0,0,1,.738-.739Zm-22.658-21.182a.522.522,0,0,1,.738-.738l3.948,3.948a.522.522,0,1,1-.738.738Zm17.971,3.948a.522.522,0,0,1,0-.738l3.949-3.948a.522.522,0,0,1,.738.738l-3.948,3.948a.521.521,0,0,1-.738,0ZM629.014,374.3a.522.522,0,0,1,0,.738l-3.948,3.948a.522.522,0,0,1-.738-.738l3.948-3.949A.522.522,0,0,1,629.014,374.3Z" transform="translate(-619.875 -351.875)" fill="#fff" stroke="#fff" stroke-linecap="round" stroke-width="0.25"/>
</svg>
