<svg id="camera" xmlns="http://www.w3.org/2000/svg" width="35.636" height="32.074" viewBox="0 0 35.636 32.074">
  <g id="Group_191" data-name="Group 191" transform="translate(0 0)">
    <g id="Group_190" data-name="Group 190" transform="translate(0 0)">
      <path id="Path_93" data-name="Path 93" d="M32.666,28.146V26.958a.594.594,0,0,0-.594-.594H28.509a.594.594,0,0,0-.594.594v1.188H26.477l-1.52-2.657a2.969,2.969,0,0,0-2.578-1.5H13.257a2.97,2.97,0,0,0-2.576,1.5L9.158,28.146H8.909V26.364a.594.594,0,0,0-.594-.594H3.564a.594.594,0,0,0-.594.594v1.782A2.973,2.973,0,0,0,0,31.115v16.63a2.973,2.973,0,0,0,2.97,2.97h16.59a8.312,8.312,0,0,0,16.076-2.97V31.115A2.973,2.973,0,0,0,32.666,28.146ZM29.1,27.552h2.376v.594H29.1ZM4.158,26.958H7.721v1.188H4.158Zm15.426,17.76c-.059.16-.124.321-.178.485-.037.116-.069.233-.1.352-.026.093-.059.184-.08.279a7.6,7.6,0,0,1-1.406.131,7.721,7.721,0,1,1,7.721-7.721,7.6,7.6,0,0,1-.131,1.411h0c-.1.023-.186.055-.281.081-.119.031-.231.063-.345.1-.167.053-.332.119-.5.178-.067.026-.137.046-.2.074a6.537,6.537,0,1,0-4.425,4.424C19.631,44.577,19.61,44.648,19.583,44.717Zm2.76-3.631c-.02.014-.036.033-.055.047a8.151,8.151,0,0,0-1.579,1.579c-.014.019-.033.035-.047.055a5.345,5.345,0,1,1,1.681-1.681Zm4.978,13.786a7.127,7.127,0,0,1-7.127-7.127,6.852,6.852,0,0,1,.119-1.307,7.014,7.014,0,0,1,1.247-2.888.445.445,0,0,0,.031-.048,7.067,7.067,0,0,1,.546-.636c.048-.051.088-.11.138-.16a7,7,0,0,1,.8-.685.423.423,0,0,0,.055-.036,7.024,7.024,0,0,1,2.892-1.247,6.858,6.858,0,0,1,1.3-.121,7.127,7.127,0,0,1,0,14.254Zm7.127-11.4c-.059-.1-.125-.195-.188-.291-.023-.037-.044-.073-.067-.107-.132-.193-.271-.378-.416-.559-.036-.043-.072-.086-.108-.128-.132-.156-.269-.307-.412-.453-.027-.027-.052-.056-.08-.083-.165-.163-.337-.318-.514-.468l-.135-.109c-.162-.13-.328-.255-.5-.374-.027-.019-.053-.039-.08-.059-.194-.13-.394-.251-.6-.364l-.155-.084c-.191-.1-.386-.2-.586-.282l-.068-.031c-.219-.092-.442-.172-.67-.246l-.171-.052c-.22-.066-.442-.125-.67-.173l-.042-.01c-.238-.049-.482-.084-.728-.112l-.182-.018c-.252-.02-.5-.036-.758-.036-.233,0-.461.013-.687.031a8.984,8.984,0,1,0-7.6,7.6c-.018.226-.031.454-.031.687,0,.27.017.538.043.8.007.076.017.151.026.227q.039.31.1.615c.009.045.012.09.022.135H2.97a1.782,1.782,0,0,1-1.782-1.782V31.115A1.782,1.782,0,0,1,2.97,29.333H9.5a.594.594,0,0,0,.516-.3l1.694-2.96a1.782,1.782,0,0,1,1.544-.9h9.123a1.782,1.782,0,0,1,1.544.9l1.693,2.958a.594.594,0,0,0,.517.3h6.533a1.782,1.782,0,0,1,1.782,1.782V43.469Z" transform="translate(0 -23.988)" fill="#fff"/>
      <path id="Path_96" data-name="Path 96" d="M301.939,276.739v-4.158a.594.594,0,1,0-1.188,0v4.158h-4.158a.594.594,0,0,0,0,1.188h4.158v4.158a.594.594,0,1,0,1.188,0v-4.158H306.1a.594.594,0,0,0,0-1.188Z" transform="translate(-274.025 -253.576)" fill="#fff"/>
    </g>
  </g>
</svg>
