<svg xmlns="http://www.w3.org/2000/svg" width="56" height="70.047" viewBox="0 0 56 70.047">
  <g id="Group_836" data-name="Group 836" transform="translate(-27.288 -21.591)">
    <path id="Path_517" data-name="Path 517" d="M34.611,91.638H59.3a7.335,7.335,0,0,0,7.327-7.327v-1h1a7.335,7.335,0,0,0,7.327-7.327v-1h1a7.335,7.335,0,0,0,7.327-7.328V28.918a7.335,7.335,0,0,0-7.327-7.327H51.273a7.333,7.333,0,0,0-7.323,7.327v1H42.941a7.333,7.333,0,0,0-7.323,7.327v1H34.611a7.334,7.334,0,0,0-7.323,7.328V84.311A7.333,7.333,0,0,0,34.611,91.638Zm12.738-62.72a3.93,3.93,0,0,1,3.924-3.928H75.961a3.932,3.932,0,0,1,3.928,3.928V67.648a3.933,3.933,0,0,1-3.928,3.929h-1V37.249a7.335,7.335,0,0,0-7.327-7.327H47.349Zm-8.331,8.331a3.931,3.931,0,0,1,3.924-3.929h24.69a3.934,3.934,0,0,1,3.928,3.929V75.98a3.933,3.933,0,0,1-3.928,3.928h-1V45.581A7.335,7.335,0,0,0,59.3,38.253H39.017Zm-8.33,8.331a3.931,3.931,0,0,1,3.924-3.929H59.3a3.932,3.932,0,0,1,3.928,3.929V84.311A3.932,3.932,0,0,1,59.3,88.239H34.611a3.93,3.93,0,0,1-3.924-3.928Z" transform="translate(0)" fill="#fff"/>
    <path id="Path_518" data-name="Path 518" d="M44.391,70.605a3,3,0,0,0,2.732,0c6.421-3.294,11.187-8.9,11.86-13.961A7.41,7.41,0,0,0,56.649,49.9a5.93,5.93,0,0,0-4.531-1.643c-2.62.207-4.9,2.124-6.363,3.718-1.463-1.594-3.742-3.511-6.361-3.718A5.931,5.931,0,0,0,34.863,49.9a7.407,7.407,0,0,0-2.334,6.744C33.2,61.7,37.969,67.311,44.391,70.605Zm-7.24-18.19a2.586,2.586,0,0,1,1.78-.777c.065,0,.129,0,.2.007,1.383.11,3.187,1.4,4.823,3.442a2.308,2.308,0,0,0,3.613,0c1.636-2.045,3.44-3.332,4.823-3.442a2.533,2.533,0,0,1,1.976.769A4.091,4.091,0,0,1,55.613,56.2c-.518,3.893-4.559,8.513-9.858,11.288C40.458,64.71,36.417,60.09,35.9,56.2A4.094,4.094,0,0,1,37.15,52.415Z" transform="translate(1.201 6.204)" fill="#fff"/>
  </g>
</svg>
