<svg id="Icon" xmlns="http://www.w3.org/2000/svg" width="20" height="20" viewBox="0 0 20 20">
  <rect id="Area" width="20" height="20" fill="#fcfcfc" opacity="0"/>
  <g id="Icon-2" data-name="Icon" transform="translate(1.29 2.499)">
    <path id="Path" d="M17.5,9.583c0,.539-5.807.749-5.807.749S17,12.249,16.75,12.75a7.084,7.084,0,0,1-6.333,3.917,6.982,6.982,0,0,1-3.167-.75L2.5,17.5l1.583-4.75a6.982,6.982,0,0,1-.75-3.167A7.084,7.084,0,0,1,7.25,3.25a6.982,6.982,0,0,1,3.167-.75h.416A7.066,7.066,0,0,1,17.5,9.167Z" transform="translate(-1.29 -2.499)" fill="none" stroke="#3d3d3d" stroke-linecap="round" stroke-linejoin="round" stroke-width="1"/>
  </g>
</svg>
