<svg xmlns="http://www.w3.org/2000/svg" width="56" height="55.999" viewBox="0 0 56 55.999">
  <g id="Group_838" data-name="Group 838" transform="translate(-5566.844 -421.418)">
    <path id="Path_527" data-name="Path 527" d="M5594.843,421.418a28,28,0,1,0,28,28A28.032,28.032,0,0,0,5594.843,421.418Zm18.205,44.938-2.707-2.707-1.266,1.266,2.707,2.707a24.8,24.8,0,0,1-14.377,6.544l-2.561-4.612-2.561,4.612a24.8,24.8,0,0,1-14.378-6.544l2.707-2.707-1.266-1.266-2.707,2.707a24.8,24.8,0,0,1-6.543-14.378l4.612-2.561-4.612-2.561a24.8,24.8,0,0,1,6.543-14.378l2.707,2.707,1.266-1.266-2.707-2.707a24.8,24.8,0,0,1,14.378-6.544l2.561,4.612,2.561-4.612a24.8,24.8,0,0,1,14.377,6.544l-2.707,2.707,1.266,1.266,2.707-2.707a24.8,24.8,0,0,1,6.543,14.378l-4.612,2.561,4.612,2.561A24.8,24.8,0,0,1,5613.048,466.356Z" transform="translate(0)" fill="#fff"/>
    <path id="Path_528" data-name="Path 528" d="M5896.7,802.648l6.084,11.5a.5.5,0,0,0,.927-.151l4.745-28.859a.508.508,0,0,0-.788-.5l-24.17,16.461a.5.5,0,0,0,.254.9Z" transform="translate(-304.349 -349.255)" fill="#fff"/>
  </g>
</svg>
