<svg xmlns="http://www.w3.org/2000/svg" width="37.101" height="37.103" viewBox="0 0 37.101 37.103">
  <path id="Path_417" data-name="Path 417" d="M136.966,263.03l14.94-18.545a2.265,2.265,0,1,1,3.527,2.845l-16.785,20.836a2.265,2.265,0,0,1-3.59-.081l-7.559-10.3a2.265,2.265,0,1,1,3.653-2.681Zm16.7-.055a2.266,2.266,0,0,0-2.266,2.266v8.5H123.365V245.706H143.8a2.266,2.266,0,0,0,0-4.531H121.1a2.269,2.269,0,0,0-2.266,2.266v32.569a2.269,2.269,0,0,0,2.266,2.268h32.569a2.265,2.265,0,0,0,2.266-2.268V265.24A2.266,2.266,0,0,0,153.668,262.975Z" transform="translate(-118.834 -241.175)" fill="#ffbe76"/>
</svg>
