<svg xmlns="http://www.w3.org/2000/svg" width="67.938" height="23.714" viewBox="0 0 67.938 23.714">
  <g id="Group_1030" data-name="Group 1030" transform="translate(3973.5 -278.314)">
    <path id="Path_531" data-name="Path 531" d="M35.694,63.25,16.4,63.208a10.043,10.043,0,0,0,10.29,10.335,10.965,10.965,0,0,0,7.371-2.55l.568.667A12.069,12.069,0,0,1,26.688,74.4c-6.556-.015-11.2-4.729-11.188-11.382.015-6.463,4.256-11.348,10.717-11.333,5.464.012,9.541,4.061,9.528,10.238C35.743,62.777,35.694,63.25,35.694,63.25Zm-19.289-.9,18.437.041v-.428c.013-5.8-3.781-9.417-8.627-9.429C20.656,52.526,16.7,56.7,16.4,62.353Z" transform="translate(-3988.5 227.131)" fill="#fff" stroke="#fff" stroke-miterlimit="10" stroke-width="1"/>
    <path id="Path_532" data-name="Path 532" d="M56.567,51.751a8.415,8.415,0,0,0-8.475,7.2c-.853-4.266-3.578-6.977-7.794-7.222,0-.009,0,.007,0,0a5.44,5.44,0,0,0-.589-.019h-.354c-5.466-.012-8.658,3.972-8.671,10.008l-.028,12.26h.9l.028-12.212c.012-5.559,2.823-9.212,7.812-9.2.2,0,.41.006.617.012,4.754.148,7.417,3.8,7.4,9.221l-.027,12.212h.9l.028-12.544c.012-4.608,3.2-8.879,8.194-8.869s7.784,3.677,7.771,9.237l-.027,12.212h.9l.028-12.26C65.2,55.762,62.031,51.765,56.567,51.751Z" transform="translate(-3981.291 227.145)" fill="#fff" stroke="#fff" stroke-miterlimit="10" stroke-width="1"/>
    <circle id="Ellipse_101" data-name="Ellipse 101" cx="2.409" cy="2.409" r="2.409" transform="translate(-3910.88 287.907)" fill="#fff" stroke="#fff" stroke-width="1"/>
  </g>
</svg>
