<svg xmlns="http://www.w3.org/2000/svg" viewBox="0 0 80.57 80.57"><defs><style>.cls-1{fill:#f2675e;}.cls-2{fill:#fff;}</style></defs><g id="Layer_2" data-name="Layer 2"><g id="Group_1091" data-name="Group 1091"><g id="Group_1085" data-name="Group 1085"><g id="Group_1084" data-name="Group 1084"><path id="Path_668" data-name="Path 668" class="cls-1" d="M46.71,50.78a9.41,9.41,0,0,1-12.28,0A10.88,10.88,0,0,1,46.71,50.78Z"/></g></g><path id="Path_669" data-name="Path 669" class="cls-2" d="M40.57,0a40.29,40.29,0,1,0,40,40.57v-.28A40.15,40.15,0,0,0,40.57,0ZM27.27,32.14A3.38,3.38,0,1,0,20.51,32v.12a1.81,1.81,0,0,1-3.61,0,7,7,0,0,1,14,0,1.81,1.81,0,0,1-3.61,0ZM48.06,50.61a11.5,11.5,0,0,1-19-8.71,27.63,27.63,0,0,1,23,0,11.45,11.45,0,0,1-4,8.71ZM62.43,33.94a1.79,1.79,0,0,1-1.8-1.8h0a3.38,3.38,0,1,0-6.76,0v0a1.81,1.81,0,1,1-3.61,0,7,7,0,0,1,14,0A1.8,1.8,0,0,1,62.44,34h0Z"/></g></g></svg>