<svg xmlns="http://www.w3.org/2000/svg" viewBox="0 0 80 80"><defs><style>.cls-1{fill:#fff;}</style></defs><g id="Layer_2" data-name="Layer 2"><g id="Layer_1-2" data-name="Layer 1"><path id="Path_670" data-name="Path 670" class="cls-1" d="M59.25,28.93a1.43,1.43,0,1,1-1.43-1.42,1.43,1.43,0,0,1,1.43,1.42ZM80,40.28A40,40,0,1,1,40,0,40,40,0,0,1,80,40.28ZM28.5,30.34a5.18,5.18,0,1,0-5.18,5.18h0a5.19,5.19,0,0,0,5.19-5.18ZM50.6,43.45a2.25,2.25,0,0,0-2.25-2.26H31.65a2.26,2.26,0,0,0,0,4.51h16.7a2.25,2.25,0,0,0,2.25-2.25ZM61.86,30.34a5.18,5.18,0,1,0-5.18,5.18,5.18,5.18,0,0,0,5.18-5.18ZM24.47,27.51a1.43,1.43,0,1,0,1.43,1.42,1.42,1.42,0,0,0-1.43-1.42Z"/></g></g></svg>