<svg xmlns="http://www.w3.org/2000/svg" viewBox="0 0 80 80"><defs><style>.cls-1{fill:#fff;}</style></defs><g id="Layer_2" data-name="Layer 2"><g id="Layer_1-2" data-name="Layer 1"><path id="Path_664" data-name="Path 664" class="cls-1" d="M25.89,28.93a1.43,1.43,0,1,1-1.42-1.42,1.43,1.43,0,0,1,1.42,1.42ZM80,40.28A40,40,0,1,1,40,0,40,40,0,0,1,80,40.28ZM23.32,35.52a5.19,5.19,0,1,0-5.18-5.19h0a5.18,5.18,0,0,0,5.18,5.19ZM53.14,49a13.76,13.76,0,0,0-26.28,0,2.25,2.25,0,0,0,4.28,1.42l0-.09a9.24,9.24,0,0,1,17.66,0A2.25,2.25,0,1,0,53.15,49V49Zm8.72-18.64a5.19,5.19,0,1,0-5.18,5.19h0a5.18,5.18,0,0,0,5.18-5.18Zm-4-2.82a1.43,1.43,0,1,0,1.43,1.42,1.42,1.42,0,0,0-1.43-1.42Z"/></g></g></svg>