<svg xmlns="http://www.w3.org/2000/svg" viewBox="0 0 80.57 80.57"><defs><style>.cls-1{fill:#fff;}</style></defs><g id="Layer_2" data-name="Layer 2"><g id="Layer_1-2" data-name="Layer 1"><path id="Path_671" data-name="Path 671" class="cls-1" d="M40.57,0a40.29,40.29,0,1,0,40,40.57v-.28A40.15,40.15,0,0,0,40.57,0ZM23.89,28.76a3.38,3.38,0,0,0-3.38,3.38,1.8,1.8,0,1,1-3.6,0,7,7,0,1,1,14,0,1.81,1.81,0,0,1-3.61,0,3.38,3.38,0,0,0-3.38-3.38ZM53.71,41.41a13.76,13.76,0,0,1-26.28,0,2.26,2.26,0,0,1,4.31-1.33,9.25,9.25,0,0,0,17.66,0,2.26,2.26,0,0,1,4.31,1.33Zm8.72-7.47a1.8,1.8,0,0,1-1.8-1.8h0a3.38,3.38,0,1,0-6.76,0v0a1.81,1.81,0,1,1-3.61,0,7,7,0,0,1,14-.16v.16A1.81,1.81,0,0,1,62.44,34h0Z"/></g></g></svg>