<svg xmlns="http://www.w3.org/2000/svg" width="41.476" height="41.403" viewBox="0 0 41.476 41.403">
  <path id="Path_488" data-name="Path 488" d="M30.028,225.382,40.7,235.622l.6-.574,10.069-9.667.009-.008a7.929,7.929,0,0,0,.018-11.075,7.579,7.579,0,0,0-10.693-.179A7.579,7.579,0,0,0,30,214.3a7.929,7.929,0,0,0,.018,11.075Zm1.207-9.876a5.87,5.87,0,0,1,8.792.417l.668.82.668-.821a5.871,5.871,0,0,1,8.792-.417,6.2,6.2,0,0,1-.011,8.653L40.7,233.231l-9.449-9.072a6.2,6.2,0,0,1-.011-8.653Zm10.058,14.759-1.2-1.244,7.612-7.308a2.694,2.694,0,0,0,.749-1.887h1.725a4.421,4.421,0,0,1-1.236,3.09l-.011.011Zm-8.85-7.349a4.477,4.477,0,0,1-.006-6.171,4.162,4.162,0,0,1,3.008-1.3v1.725a2.437,2.437,0,0,0-1.763.765,2.752,2.752,0,0,0,0,3.777Zm28.99,14.946v.017a6.323,6.323,0,0,1-1.773,4.39l-6.784,7.03a3.447,3.447,0,0,0-.968,2.4V253.4H50.184v-1.709a5.172,5.172,0,0,1,1.452-3.593l6.783-7.03a4.6,4.6,0,0,0,1.29-3.191v-.009l-.035-18.97h0a2.592,2.592,0,0,0-2.588,2.588v8.626h-.044a2.97,2.97,0,0,1,.044.431,3.051,3.051,0,0,1-.367,1.429l0,.005-5.178,9.493-1.515-.826,5.17-9.478a1.33,1.33,0,0,0,.167-.624,1.289,1.289,0,0,0-2.427-.61l-3.7,6.776-4.59,4.524a10.349,10.349,0,0,0-3.085,7.372v4.8H39.833v-4.8a10.349,10.349,0,0,0-3.085-7.372l-4.59-4.524-3.7-6.776a1.289,1.289,0,0,0-2.427.61,1.33,1.33,0,0,0,.167.624l5.17,9.478-1.515.826-5.178-9.493,0-.005a3.051,3.051,0,0,1-.367-1.429,2.97,2.97,0,0,1,.044-.431h-.044v-8.626a2.592,2.592,0,0,0-2.588-2.588h0l-.035,18.973v.006a4.6,4.6,0,0,0,1.289,3.191l6.784,7.03a5.172,5.172,0,0,1,1.452,3.593V253.4H29.482v-1.709a3.447,3.447,0,0,0-.968-2.4l-6.784-7.03a6.323,6.323,0,0,1-1.773-4.39v-.011L20,217.175h1.723a4.313,4.313,0,0,1,4.313,4.313v6.34a2.984,2.984,0,0,1,3.938,1.274v0l3.58,6.557,4.409,4.346a12.069,12.069,0,0,1,2.736,4.142,12.069,12.069,0,0,1,2.736-4.142l4.409-4.346,3.581-6.559a2.984,2.984,0,0,1,3.938-1.274v-6.34a4.313,4.313,0,0,1,4.313-4.313H61.4Z" transform="translate(-19.958 -212)" fill="#fff"/>
</svg>
