<svg xmlns="http://www.w3.org/2000/svg" width="60.997" height="34.229" viewBox="0 0 60.997 34.229">
  <g id="Group_169" data-name="Group 169" transform="translate(-57.145 -600)" opacity="0.16">
    <g id="pacman" transform="translate(57.145 600)">
      <path id="Path_29" data-name="Path 29" d="M21.5,12.8a1.9,1.9,0,1,0-1.9-1.9A1.9,1.9,0,0,0,21.5,12.8Z" transform="translate(-2.358 -3.295)" fill="#636bae"/>
      <path id="Path_30" data-name="Path 30" d="M23.115,4.5A17.047,17.047,0,0,1,33.909,8.334l2.752,2.752L34.2,13.548h0l-8.068,8.067,6.919,6.918,0,0,3.622,3.621L33.98,34.843l0,0A17.114,17.114,0,1,1,23.115,4.5ZM20.75,21.614l10.52,10.52a13.311,13.311,0,1,1,0-21.042L20.752,21.614Z" transform="translate(-5.998 -4.5)" fill="#636bae" fill-rule="evenodd"/>
    </g>
    <g id="pacman-2" data-name="pacman" transform="translate(87.472 600)">
      <path id="Path_29-2" data-name="Path 29" d="M21.5,12.8a1.9,1.9,0,1,1,1.9-1.9A1.9,1.9,0,0,1,21.5,12.8Z" transform="translate(-9.968 -3.295)" fill="#636bae"/>
      <path id="Path_30-2" data-name="Path 30" d="M19.551,4.5a17.049,17.049,0,0,0-10.8,3.834L6,11.086l2.462,2.462h0l8.068,8.067-6.92,6.918,0,0L6,32.157l2.686,2.686,0,0A17.115,17.115,0,1,0,19.551,4.5Zm2.364,17.114L11.4,32.134a13.311,13.311,0,1,0,0-21.042L21.914,21.614Z" transform="translate(-5.998 -4.5)" fill="#636bae" fill-rule="evenodd"/>
    </g>
  </g>
</svg>
