<svg xmlns="http://www.w3.org/2000/svg" width="180.851" height="101.484" viewBox="0 0 180.851 101.484">
  <g id="Group_70" data-name="Group 70" transform="translate(-57.145 -600)">
    <g id="pacman" transform="translate(57.145 600)">
      <path id="Path_29" data-name="Path 29" d="M25.234,20.276A5.638,5.638,0,1,0,19.6,14.638,5.638,5.638,0,0,0,25.234,20.276Z" transform="translate(31.514 7.914)" fill="#eceee8"/>
      <path id="Path_30" data-name="Path 30" d="M56.747,4.5A50.543,50.543,0,0,1,88.752,15.866l8.16,8.16-7.3,7.3h-.008L65.685,55.242,86.2,75.753l-.011.011L96.927,86.5l-7.965,7.965-.011-.011A50.742,50.742,0,1,1,56.747,4.5Zm-7.01,50.742L80.926,86.431a39.466,39.466,0,1,1,0-62.386l-31.186,31.2Z" transform="translate(-5.998 -4.5)" fill="#eceee8" fill-rule="evenodd"/>
    </g>
    <g id="pacman-2" data-name="pacman" transform="translate(147.062 600)">
      <path id="Path_29-2" data-name="Path 29" d="M25.234,20.276a5.638,5.638,0,1,1,5.638-5.638A5.638,5.638,0,0,1,25.234,20.276Z" transform="translate(8.949 7.914)" fill="#eceee8"/>
      <path id="Path_30-2" data-name="Path 30" d="M46.181,4.5A50.548,50.548,0,0,0,14.174,15.866l-8.161,8.16,7.3,7.3h.008L37.242,55.242,16.726,75.753l.011.011L6,86.5l7.965,7.965.011-.011A50.743,50.743,0,1,0,46.181,4.5Zm7.01,50.742L22,86.431a39.467,39.467,0,1,0,0-62.386l31.187,31.2Z" transform="translate(-5.998 -4.5)" fill="#eceee8" fill-rule="evenodd"/>
    </g>
  </g>
</svg>
