<svg xmlns="http://www.w3.org/2000/svg" width="23.101" height="23.06" viewBox="0 0 23.101 23.06">
  <path id="Path_489" data-name="Path 489" d="M25.567,219.453l5.941,5.7.333-.32,5.608-5.384,0,0a4.416,4.416,0,0,0,.01-6.169,4.221,4.221,0,0,0-5.956-.1,4.221,4.221,0,0,0-5.956.1,4.416,4.416,0,0,0,.01,6.169Zm.672-5.5a3.27,3.27,0,0,1,4.9.233l.372.457.372-.457a3.27,3.27,0,0,1,4.9-.232,3.455,3.455,0,0,1-.006,4.82l-5.263,5.053-5.263-5.053a3.455,3.455,0,0,1-.006-4.82Zm5.6,8.221-.666-.693,4.24-4.07a1.5,1.5,0,0,0,.417-1.051h.961a2.462,2.462,0,0,1-.688,1.721l-.006.006Zm-4.929-4.093a2.493,2.493,0,0,1,0-3.437,2.318,2.318,0,0,1,1.675-.722v.961a1.357,1.357,0,0,0-.982.426,1.533,1.533,0,0,0,0,2.1ZM43.059,226.4v.01a3.522,3.522,0,0,1-.987,2.445l-3.779,3.915a1.92,1.92,0,0,0-.539,1.334v.952h-.961v-.952a2.881,2.881,0,0,1,.809-2l3.778-3.915a2.559,2.559,0,0,0,.718-1.778v0l-.019-10.566h0a1.444,1.444,0,0,0-1.441,1.441v4.8h-.024a1.654,1.654,0,0,1,.024.24,1.7,1.7,0,0,1-.2.8v0l-2.884,5.288-.844-.46,2.88-5.279a.741.741,0,0,0,.093-.347.718.718,0,0,0-1.352-.34l-2.061,3.774-2.556,2.52a5.764,5.764,0,0,0-1.718,4.106v2.671h-.961v-2.671a5.764,5.764,0,0,0-1.718-4.106l-2.556-2.52-2.061-3.774a.718.718,0,0,0-1.352.34.741.741,0,0,0,.093.347l2.88,5.279-.844.46-2.884-5.288v0a1.7,1.7,0,0,1-.2-.8,1.654,1.654,0,0,1,.025-.24H22.38v-4.8a1.444,1.444,0,0,0-1.441-1.441h0l-.019,10.567v0a2.561,2.561,0,0,0,.718,1.778l3.779,3.915a2.881,2.881,0,0,1,.809,2v.952h-.961v-.952a1.92,1.92,0,0,0-.539-1.334l-3.779-3.915a3.522,3.522,0,0,1-.987-2.445v-.008h0l.021-11.525h.96a2.4,2.4,0,0,1,2.4,2.4v3.531a1.662,1.662,0,0,1,2.194.71h0l1.994,3.652,2.455,2.42a6.722,6.722,0,0,1,1.524,2.307,6.722,6.722,0,0,1,1.524-2.307l2.455-2.42,1.994-3.653a1.662,1.662,0,0,1,2.194-.71v-3.531a2.4,2.4,0,0,1,2.4-2.4h.96Z" transform="translate(-19.958 -212)" fill="#fff"/>
</svg>
