<svg xmlns="http://www.w3.org/2000/svg" width="27.408" height="22.499" viewBox="0 0 27.408 22.499">
  <path id="Path_398" data-name="Path 398" d="M149.964,420.628l-3.948-6.839a.371.371,0,0,0-.506-.136l-2.5,1.442a.37.37,0,0,0-.135.506l.072.124c-.086.026-.172.052-.263.076l-1.176.194-.065.017a11.478,11.478,0,0,0-1.864.866l-2.117,1.226a.825.825,0,0,0,.125-.258,1.113,1.113,0,0,0,.041-.295.961.961,0,0,0-.19-.575,1.448,1.448,0,0,0-.627-.458,2.381,2.381,0,0,0-.6-.155h0l-2.434-.487-.049-.006-.349-.023h-.049l-1.535.1c-.394.028-.66.072-.886.071a1.786,1.786,0,0,1-.631-.117l-.531-.187-.061-.025.054-.093a.37.37,0,0,0-.136-.506l-2.5-1.441a.37.37,0,0,0-.505.135l-3.948,6.839a.37.37,0,0,0,.135.505l2.5,1.442a.37.37,0,0,0,.506-.135l.072-.125c.065.061.131.123.2.19l.756.921.047.048a11.461,11.461,0,0,0,1.683,1.181l1.634.941c0,.016,0,.033,0,.049a2.275,2.275,0,0,0,.183.848h0l.8,2.351.019.045.155.314.025.042.858,1.278c.2.3.366.5.476.685a1.771,1.771,0,0,1,.243.652l.1.553c0,.021.005.043.009.065h-.108a.369.369,0,0,0-.37.37v2.883a.37.37,0,0,0,.37.37h7.9a.371.371,0,0,0,.37-.37v-2.883a.37.37,0,0,0-.37-.37h-.144c.02-.087.041-.174.066-.266l.42-1.115.018-.065a11.5,11.5,0,0,0,.182-2.036v-.626a.9.9,0,0,0,.3.053,1.349,1.349,0,0,0,.785-.292,2.367,2.367,0,0,0,.472-.471h0l1.638-1.864.03-.039.194-.291.025-.043.677-1.382c.159-.326.252-.568.355-.755a1.777,1.777,0,0,1,.443-.536l.427-.366c.016-.014.035-.027.051-.041l.054.094a.37.37,0,0,0,.505.135l2.5-1.442A.37.37,0,0,0,149.964,420.628Zm-26.483.049,3.578-6.2,1.856,1.071-3.578,6.2Zm3.883,2.249-.743-.906-.023-.026c-.118-.119-.236-.229-.355-.335l3.07-5.318c.063.025.124.053.188.075l.531.187a2.547,2.547,0,0,0,.878.159c.314,0,.582-.049.936-.072l1.511-.1.3.019,2.41.482.032.005a1.572,1.572,0,0,1,.568.176.566.566,0,0,1,.176.146.213.213,0,0,1,.046.136.372.372,0,0,1-.015.1c0,.01-.011.031-.055.069a.77.77,0,0,1-.167.1,1.311,1.311,0,0,0-.275-.03,1.335,1.335,0,0,0-.22.019,1.28,1.28,0,0,0-.691.358c-.075,0-.137-.009-.178-.012l-.068-.008-.011,0h0l-.045-.006-1.936-.12a.37.37,0,1,0-.046.739h0l.085.005a1.448,1.448,0,0,0-.206.737v6.836l-.053-.1-.008-.015a6.746,6.746,0,0,0-.536-.791,3.6,3.6,0,0,0-.549-.57,1.678,1.678,0,0,0-.34-.216.992.992,0,0,0-.416-.1.8.8,0,0,0-.2.026,1.016,1.016,0,0,0-.527.324l-1.514-.872A10.783,10.783,0,0,1,127.365,422.926Zm13.1,12.437h-7.156V433.22h7.156Zm-6.671-2.883c-.01-.067-.017-.134-.029-.2l-.1-.553a2.528,2.528,0,0,0-.339-.9c-.149-.242-.311-.439-.493-.711l-.844-1.257-.133-.27-.788-2.328-.012-.03a1.578,1.578,0,0,1-.132-.581.5.5,0,0,1,.055-.256.247.247,0,0,1,.171-.112h0l.017,0a.261.261,0,0,1,.105.03,1.339,1.339,0,0,1,.35.268,4.6,4.6,0,0,1,.52.65c.068.1.124.191.162.253l.043.073.01.018.749,1.482a.35.35,0,0,0,.033.042.371.371,0,0,0,.049.062.346.346,0,0,0,.058.039.359.359,0,0,0,.061.034.354.354,0,0,0,.077.016.321.321,0,0,0,.052.011l.012,0a1.011,1.011,0,0,0,.143-.034l.012,0a.321.321,0,0,0,.042-.033.38.38,0,0,0,.062-.049.372.372,0,0,0,.039-.058.358.358,0,0,0,.035-.061.376.376,0,0,0,.016-.077.361.361,0,0,0,.01-.052v-2.658h0v-5.732a.707.707,0,0,1,.148-.433.574.574,0,0,1,.358-.218l.1-.008a.6.6,0,0,1,.442.2.718.718,0,0,1,.191.487v5.762a.37.37,0,1,0,.74,0V419.7h0v-.531a.689.689,0,0,1,.145-.422.559.559,0,0,1,.349-.213l.1-.008a.586.586,0,0,1,.432.195.7.7,0,0,1,.186.474v6.087a.37.37,0,1,0,.74,0V419.9a.643.643,0,0,1,.135-.394.518.518,0,0,1,.324-.2l.092-.008a.544.544,0,0,1,.4.181.653.653,0,0,1,.174.443v5.359a.37.37,0,1,0,.74,0v-3.727a.605.605,0,0,1,.133-.375.518.518,0,0,1,.318-.192h0l.087-.007a.429.429,0,0,1,.338.16.681.681,0,0,1,.15.438l.007,7.408V429a10.726,10.726,0,0,1-.167,1.878l-.413,1.1-.011.032c-.044.162-.081.319-.113.475Zm12.446-10.656-.427.366a2.54,2.54,0,0,0-.612.745c-.135.25-.225.489-.37.783l-.666,1.36-.167.25-1.622,1.846-.02.025a1.665,1.665,0,0,1-.336.337.64.64,0,0,1-.345.148.247.247,0,0,1-.188-.092l-.023-.044a.448.448,0,0,1-.016-.135,1.659,1.659,0,0,1,.079-.449,4.92,4.92,0,0,1,.3-.734c.051-.1.1-.188.129-.247l.038-.068L142,425.9l.507-.776a.37.37,0,1,0-.619-.405h0l-.512.784h0l0-3.927a1.415,1.415,0,0,0-.327-.917,1.172,1.172,0,0,0-.9-.421,1.223,1.223,0,0,0-.207.017,1.2,1.2,0,0,0-.331.111v-.445a1.391,1.391,0,0,0-.373-.947,1.286,1.286,0,0,0-.942-.416,1.322,1.322,0,0,0-.155.013l1.82-1.053a10.751,10.751,0,0,1,1.719-.8l1.156-.191.033-.007c.162-.042.317-.089.468-.139l3.07,5.317C146.346,421.741,146.291,421.78,146.239,421.824Zm1.043-.075-3.578-6.2,1.856-1.071,3.578,6.2Zm-16.324,2.813Zm8.975-4.3Z" transform="translate(-122.605 -413.604)" fill="#fff"/>
</svg>
