<svg xmlns="http://www.w3.org/2000/svg" width="20.057" height="18.188" viewBox="0 0 20.057 18.188">
  <path id="Path_497" data-name="Path 497" d="M309.59,214.209a.31.31,0,0,1-.205-.067c-.3-.259-7.269-6.383-8.742-9.5a5.875,5.875,0,0,1-.211-4.406,4.61,4.61,0,0,1,2.345-2.666,5.627,5.627,0,0,1,2.387-.53,4.991,4.991,0,0,1,4.327,2.251l.1.175.118-.2a5,5,0,0,1,4.326-2.248,5.631,5.631,0,0,1,2.389.531,4.61,4.61,0,0,1,2.344,2.668,5.869,5.869,0,0,1-.211,4.4c-1.459,3.085-8.323,9.131-8.731,9.489a.343.343,0,0,1-.2.1Zm-4.425-16.531a4.992,4.992,0,0,0-2.117.47,3.98,3.98,0,0,0-2.018,2.307,5.226,5.226,0,0,0,.187,3.92c1.277,2.7,7.173,8.031,8.373,9.1,1.137-1.012,7.112-6.406,8.4-9.126a5.219,5.219,0,0,0,.187-3.915,3.98,3.98,0,0,0-2.017-2.309,4.994,4.994,0,0,0-2.118-.47,4.354,4.354,0,0,0-3.779,1.934l-.375.64-.031.046a.317.317,0,0,1-.534-.02l-.376-.64A4.35,4.35,0,0,0,305.165,197.678Z" transform="translate(-299.574 -196.521)" fill="#fff" stroke="#fff" stroke-width="1"/>
</svg>
