<svg xmlns="http://www.w3.org/2000/svg" width="50.984" height="40.984" viewBox="0 0 50.984 40.984">
  <path id="Path_400" data-name="Path 400" d="M133.855,163.531a.743.743,0,0,1,.743-.743h22.818a.743.743,0,0,1,0,1.487H134.6A.744.744,0,0,1,133.855,163.531ZM178.062,142.8a.749.749,0,0,1-.218.526l-15.621,15.619c-.015.015-.036.021-.051.034a.72.72,0,0,1-.121.081.732.732,0,0,1-.133.059c-.021.007-.038.021-.06.026l-6.441,1.423a.743.743,0,0,1-.886-.886l1.423-6.441c0-.021.018-.036.025-.055a.713.713,0,0,1,.06-.136.7.7,0,0,1,.082-.124c.013-.016.019-.036.034-.05l15.621-15.619a.744.744,0,0,1,1.052,0l5.018,5.019A.745.745,0,0,1,178.062,142.8Zm-21.829,16.065,3.98-.879-3.1-3.1ZM176.268,142.8l-3.967-3.967L157.731,153.4l3.966,3.967Zm-3.827,8.97a.743.743,0,0,0-.743.743h0v13a3.677,3.677,0,0,1-3.677,3.678H132.242a3.678,3.678,0,0,1-3.677-3.678V134.863a3.678,3.678,0,0,1,3.677-3.677H168.02a3.677,3.677,0,0,1,3.677,3.677.743.743,0,1,0,1.487,0,5.164,5.164,0,0,0-5.164-5.164H132.242a5.164,5.164,0,0,0-5.164,5.164v30.655a5.165,5.165,0,0,0,5.164,5.165H168.02a5.165,5.165,0,0,0,5.164-5.165v-13A.743.743,0,0,0,172.441,151.771ZM134.6,157.365h15.233a.743.743,0,1,0,0-1.487H134.6a.743.743,0,1,0,0,1.487Zm15.388-10.552a16.767,16.767,0,0,1,.733,4.078.744.744,0,1,1-1.481.134,20.982,20.982,0,0,0-.427-2.962,3.859,3.859,0,0,0-.781-1.726,1.349,1.349,0,0,0-.73-.414l-.053-.014-2.921-.856a5.055,5.055,0,0,1-4.075,0l-2.921.856-.053.014a1.349,1.349,0,0,0-.73.414,2.877,2.877,0,0,0-.562.99,15.549,15.549,0,0,0-.647,3.7.744.744,0,1,1-1.481-.134,22.312,22.312,0,0,1,.463-3.181,5.268,5.268,0,0,1,1.143-2.392,2.855,2.855,0,0,1,1.449-.833v0l1.757-.515a5.093,5.093,0,1,1,7.238,0l1.757.515v0a2.855,2.855,0,0,1,1.449.833A4.341,4.341,0,0,1,149.986,146.813Zm-7.7-2.818a3.61,3.61,0,1,0-2.549-1.057A3.592,3.592,0,0,0,142.288,144Z" transform="translate(-127.078 -129.699)" fill="#fff"/>
</svg>
