<svg xmlns="http://www.w3.org/2000/svg" width="21.563" height="24" viewBox="0 0 21.563 24">
  <g id="beer_1_" data-name="beer (1)" transform="translate(-25.996)" opacity="0">
    <path id="Path_64" data-name="Path 64" d="M35.515,95.93l-2.268-.608a.848.848,0,0,0-.726.144.688.688,0,0,0-.267.467L32,96.87a.7.7,0,0,0,0,.548.8.8,0,0,0,.1.168c-.24.5-.514,1.116-.8,1.8v0c-.251.6-.512,1.251-.77,1.924A3.785,3.785,0,0,0,28.2,103.8l-2.158,8.056a1.516,1.516,0,0,0,1.137,1.812l4.42,1.184h0a1.679,1.679,0,0,0,.434.058,1.6,1.6,0,0,0,.724-.172,1.4,1.4,0,0,0,.733-.886l.3-1.108h0l1.861-6.947a3.785,3.785,0,0,0-.773-3.316c.162-1.019.3-2,.391-2.854v-.007c.048-.426.085-.818.111-1.164a.811.811,0,0,0,.429-.519l.275-1.024A.8.8,0,0,0,35.515,95.93Zm-2.375.338,2,.535-.209.782H34.9l-.034,0-.012,0-.033.007-.01,0-.04.012-.013,0-.026.011-.016.008-.022.012-.015.009-.022.015-.012.009-.028.023,0,0-.03.03-.006.007-.021.026-.008.011-.016.023-.008.014-.013.023-.008.016-.01.023-.007.017c0,.011-.008.023-.011.035s-.007.028-.01.043l0,.009v.006c0,.014,0,.028,0,.043-.017.308-.047.67-.088,1.072H32.443c.243-.559.47-1.049.665-1.435.006-.012.012-.025.017-.038l0-.007,0-.008q.008-.021.013-.043c0-.012.006-.024.008-.036s0-.012,0-.018,0-.017,0-.026,0-.011,0-.017,0-.018,0-.028,0-.01,0-.015,0-.02,0-.03v-.012c0-.012,0-.024-.006-.036v-.006q0-.021-.012-.042v0c0-.012-.009-.024-.014-.036l-.006-.013-.012-.024-.008-.015-.013-.021-.01-.015-.016-.021-.009-.012-.028-.03-.009-.008-.024-.021-.011-.008-.026-.019-.01-.006-.009-.006ZM30.883,102.2a.471.471,0,0,0,.428-.3c.245-.645.493-1.273.734-1.857h2.224c-.078.632-.174,1.323-.285,2.037l-.115-.031a.471.471,0,1,0-.244.909l.54.145a2.768,2.768,0,0,1,.644,1.98l-5.53-1.482A2.647,2.647,0,0,1,30.883,102.2ZM33,112.044l-5.629-1.508,1.618-6.038,5.629,1.508ZM32.33,113.9a.684.684,0,0,1-.488.044l-4.419-1.184h0a.586.586,0,0,1-.471-.659l.175-.654,5.629,1.508-.175.654A.466.466,0,0,1,32.33,113.9Z" transform="translate(0 -90.909)" fill="#a47560"/>
    <path id="Path_65" data-name="Path 65" d="M152.333,231.689l.011,0a.471.471,0,0,0,.243-.91l-.011,0a.471.471,0,0,0-.243.91Z" transform="translate(-120.084 -219.948)" fill="#a47560"/>
    <path id="Path_67" data-name="Path 67" d="M281.2,111.855l-2.159-8.056a3.784,3.784,0,0,0-2.327-2.485c-.258-.673-.519-1.325-.77-1.924v0c-.287-.686-.561-1.3-.8-1.8a.805.805,0,0,0,.1-.168.7.7,0,0,0,0-.548l-.251-.938a.688.688,0,0,0-.267-.467.847.847,0,0,0-.726-.144l-2.268.608a.8.8,0,0,0-.566.981l.274,1.024a.811.811,0,0,0,.429.519c.026.346.064.737.111,1.163v.009c.1.85.229,1.834.391,2.853a3.785,3.785,0,0,0-.773,3.316l2.159,8.056a1.4,1.4,0,0,0,.733.886,1.594,1.594,0,0,0,.724.172,1.676,1.676,0,0,0,.434-.058l4.42-1.184h0a1.624,1.624,0,0,0,.946-.678A1.4,1.4,0,0,0,281.2,111.855Zm-8.575-5.849,5.629-1.508,1.618,6.038-5.629,1.508Zm3.733-3.8a2.648,2.648,0,0,1,1.6,1.4l-5.53,1.482a2.768,2.768,0,0,1,.644-1.98l.54-.145a.471.471,0,1,0-.244-.909l-.115.031c-.111-.714-.207-1.4-.285-2.037h2.224c.241.583.489,1.212.734,1.857A.471.471,0,0,0,276.356,102.2ZM274.1,96.268l.209.782-.009.006-.01.006-.026.019-.011.008-.023.02-.009.009-.028.03-.01.012-.016.021-.01.015-.013.02-.009.015-.012.024-.006.013c0,.012-.009.023-.014.035v0q-.007.021-.012.042v.006c0,.012,0,.023-.006.035s0,.008,0,.012,0,.02,0,.03,0,.01,0,.015,0,.018,0,.027,0,.011,0,.017,0,.017,0,.026,0,.012,0,.018,0,.025.008.037.008.026.012.039l0,.011,0,0c.005.014.011.028.018.041.2.386.422.876.665,1.435h-1.932c-.041-.4-.07-.764-.088-1.072,0-.014,0-.029,0-.043v-.006l0-.009c0-.014-.005-.028-.009-.041s-.007-.025-.012-.037l-.006-.016-.011-.024-.007-.015-.013-.024L272.7,97.8l-.017-.024-.008-.011-.021-.025-.007-.008-.03-.029-.011-.009-.02-.016-.018-.013-.015-.01-.022-.013-.012-.007-.025-.012-.008,0a.463.463,0,0,0-.089-.028l-.017,0-.021,0-.024,0h-.026L272.1,96.8Zm6.118,16.208a.684.684,0,0,1-.4.282h0l-4.42,1.184a.684.684,0,0,1-.488-.044.467.467,0,0,1-.25-.291l-.175-.654,5.629-1.508.175.654A.467.467,0,0,1,280.217,112.476Z" transform="translate(-233.686 -90.909)" fill="#a47560"/>
    <path id="Path_70" data-name="Path 70" d="M246.467,0A.471.471,0,0,0,246,.471V1.73a.471.471,0,1,0,.941,0V.471A.471.471,0,0,0,246.467,0Z" transform="translate(-209.69)" fill="#a47560"/>
    <path id="Path_71" data-name="Path 71" d="M191.033,23.872a.471.471,0,1,0,.812-.476L191.2,22.3a.471.471,0,0,0-.812.476Z" transform="translate(-156.632 -21.033)" fill="#a47560"/>
    <path id="Path_72" data-name="Path 72" d="M288.3,24.04a.471.471,0,0,0,.644-.168l.64-1.091a.471.471,0,0,0-.812-.476l-.64,1.091A.471.471,0,0,0,288.3,24.04Z" transform="translate(-249.788 -21.033)" fill="#a47560"/>
  </g>
</svg>
