<svg xmlns="http://www.w3.org/2000/svg" width="21.563" height="24" viewBox="0 0 21.563 24">
  <g id="male-user" transform="translate(-13)">
    <path id="circle29337" d="M23.78,0a7.038,7.038,0,0,0-7.031,7.031h0a7.033,7.033,0,0,0,3.815,6.238,12.552,12.552,0,0,0-7.529,7.392.47.47,0,0,0-.035.176v2.693a.469.469,0,0,0,.469.469H34.094a.469.469,0,0,0,.469-.469V20.838a.469.469,0,0,0-.035-.177A12.553,12.553,0,0,0,27,13.271a7.033,7.033,0,0,0,3.808-6.24h0A7.038,7.038,0,0,0,23.78,0Zm0,.938a6.092,6.092,0,0,1,1.572,11.978.469.469,0,0,0,.04.915,11.286,11.286,0,0,1,8.234,7.111v2.121H13.938V20.942a11.285,11.285,0,0,1,8.243-7.113.469.469,0,0,0,.039-.915,6.09,6.09,0,0,1-4.534-5.882h0A6.087,6.087,0,0,1,23.78.938Z" fill="#636bae"/>
    <ellipse id="Ellipse_64" data-name="Ellipse 64" cx="6.5" cy="7" rx="6.5" ry="7" transform="translate(17)" fill="#636bae"/>
    <path id="Path_91" data-name="Path 91" d="M6.5,0c3.59,0,9.9,3.134,9.9,7,0,1.16,1.835,2.832.592,3.492-1.975,1.077-8.563,0-11.076,0-3.59,0-9.59,1.747-9.361-1.612A9.432,9.432,0,0,1-.412,3.222,11.788,11.788,0,0,1,6.5,0Z" transform="translate(17 13)" fill="#636bae"/>
  </g>
</svg>
