<svg xmlns="http://www.w3.org/2000/svg" width="25.107" height="24.5" viewBox="0 0 25.107 24.5">
  <g id="Group_90" data-name="Group 90" transform="translate(-48 -394.6)">
    <g id="Icon" transform="translate(48.001 394.6)">
      <rect id="Area" width="19" height="19" fill="#636bae" opacity="0"/>
      <g id="Icon-2" data-name="Icon" transform="translate(2.398 2.573)">
        <path id="Path" d="M17.895,10.3a6.7,6.7,0,0,1-.72,3.039A6.8,6.8,0,0,1,11.1,17.1a6.693,6.693,0,0,1-3.039-.72L3.5,17.895l1.52-4.558A6.693,6.693,0,0,1,4.3,10.3,6.8,6.8,0,0,1,8.058,4.22,6.7,6.7,0,0,1,11.1,3.5h.4a6.782,6.782,0,0,1,6.4,6.4Z" transform="translate(-3.5 -3.5)" fill="#636bae" stroke="#636bae" stroke-linecap="round" stroke-linejoin="round" stroke-width="1"/>
      </g>
    </g>
    <g id="Icon-3" data-name="Icon" transform="translate(58.212 404.205)">
      <g id="Icon-4" data-name="Icon">
        <path id="Path-2" data-name="Path" d="M3.5,10.3c0,.392,5.539,1.485,5.539,1.485s-5.118.961-4.819,1.553A6.8,6.8,0,0,0,10.3,17.1a6.693,6.693,0,0,0,3.039-.72l4.558,1.52-1.52-4.558A6.693,6.693,0,0,0,17.1,10.3,6.8,6.8,0,0,0,13.337,4.22,6.7,6.7,0,0,0,10.3,3.5H9.9A6.782,6.782,0,0,0,3.5,9.9Z" transform="translate(-3.5 -3.5)" fill="#636bae" stroke="#636bae" stroke-linecap="round" stroke-linejoin="round" stroke-width="1"/>
      </g>
    </g>
  </g>
</svg>
