<svg xmlns="http://www.w3.org/2000/svg" width="21.326" height="23.738" viewBox="0 0 21.326 23.738">
  <g id="beer_1_" data-name="beer (1)" transform="translate(-25.996)">
    <g id="Group_164" data-name="Group 164" transform="translate(26.476 4.187)">
      <path id="Path_74" data-name="Path 74" d="M43.008,427.95l-6.677-1.789-.3,1.132a1.071,1.071,0,0,0,.821,1.261l2.257.6,2.257.6a1.071,1.071,0,0,0,1.342-.682Z" transform="translate(-35.997 -410.737)" fill="#636bae"/>
      <path id="Path_75" data-name="Path 75" d="M42.95,285.661l6.677,1.789,1.9-7.095-6.677-1.789-1.9,7.095Zm5.575-2.308a1.332,1.332,0,1,1-.942-1.631A1.332,1.332,0,0,1,48.525,283.353Z" transform="translate(-42.616 -270.237)" fill="#636bae"/>
      <circle id="Ellipse_62" data-name="Ellipse 62" cx="1.332" cy="1.332" r="1.332" transform="translate(3.151 11.439)" fill="#636bae"/>
      <path id="Path_76" data-name="Path 76" d="M82.5,190.624l6.677,1.789a3.178,3.178,0,0,0-.843-3.067c.161-.992.325-2.135.44-3.163H85.64c-.309.738-.614,1.509-.878,2.206A3.178,3.178,0,0,0,82.5,190.624Z" transform="translate(-80.263 -182.295)" fill="#636bae"/>
      <g id="Group_163" data-name="Group 163" transform="translate(4.984)">
        <path id="Path_77" data-name="Path 77" d="M147.857,109.183h3.132c.063-.567.112-1.1.137-1.55a.351.351,0,0,0,.428-.247l.28-1.046a.338.338,0,0,0-.238-.413l-2.316-.62c-.179-.048-.415.053-.413.238l-.28,1.046c-.1.167.061.378.247.428C148.535,107.611,148.194,108.378,147.857,109.183Z" transform="translate(-147.857 -105.295)" fill="#636bae"/>
        <path id="Path_78" data-name="Path 78" d="M281.858,107.632c.025.452.074.983.137,1.55h3.132c-.337-.8-.678-1.571-.978-2.164.186-.05.343-.262.247-.428l-.28-1.046c0-.185-.234-.286-.413-.238l-2.316.62a.338.338,0,0,0-.238.413l.28,1.046A.351.351,0,0,0,281.858,107.632Z" transform="translate(-274.731 -105.294)" fill="#636bae"/>
      </g>
      <path id="Path_79" data-name="Path 79" d="M292.237,186.182H289.1c.115,1.028.279,2.171.44,3.163a3.178,3.178,0,0,0-.843,3.067l6.677-1.789a3.178,3.178,0,0,0-2.263-2.235C292.85,187.691,292.546,186.92,292.237,186.182Z" transform="translate(-277.248 -182.294)" fill="#636bae"/>
      <path id="Path_80" data-name="Path 80" d="M297.272,278.566l-6.677,1.789,1.9,7.095,6.677-1.789-1.9-7.095Zm-3.674,4.786a1.332,1.332,0,1,1,1.631.942A1.332,1.332,0,0,1,293.6,283.353Z" transform="translate(-279.142 -270.237)" fill="#636bae"/>
      <circle id="Ellipse_63" data-name="Ellipse 63" cx="1.332" cy="1.332" r="1.332" transform="translate(14.55 11.439)" fill="#636bae"/>
      <path id="Path_81" data-name="Path 81" d="M336.821,426.161l-6.677,1.789.3,1.132a1.071,1.071,0,0,0,1.342.682l2.257-.6,2.257-.6a1.071,1.071,0,0,0,.821-1.262Z" transform="translate(-316.79 -410.737)" fill="#636bae"/>
    </g>
    <path id="Path_82" data-name="Path 82" d="M35.717,95.943,33.4,95.323a.866.866,0,0,0-.741.147.7.7,0,0,0-.273.477l-.257.957a.715.715,0,0,0,0,.56.821.821,0,0,0,.1.172c-.245.51-.525,1.14-.818,1.84v0c-.256.612-.523,1.277-.786,1.964a3.865,3.865,0,0,0-2.376,2.538l-2.2,8.227a1.549,1.549,0,0,0,1.161,1.85l4.513,1.209h0a1.714,1.714,0,0,0,.444.059,1.629,1.629,0,0,0,.739-.175,1.425,1.425,0,0,0,.748-.905l.3-1.132h0l1.9-7.094a3.865,3.865,0,0,0-.789-3.386c.165-1.04.3-2.046.4-2.915V99.71c.049-.435.087-.835.114-1.188a.828.828,0,0,0,.438-.53l.28-1.046A.819.819,0,0,0,35.717,95.943Zm-2.426.345,2.039.546-.214.8h-.022l-.035,0-.012,0-.034.007-.01,0-.041.012-.013.005-.027.011-.016.008-.022.012-.015.009-.022.015-.013.009-.028.023,0,0-.031.031-.006.007-.022.026-.008.011-.016.024-.009.014-.013.023-.008.016-.01.023-.007.017c0,.012-.008.024-.011.036s-.007.029-.01.044l0,.009v.006c0,.015,0,.029,0,.044-.017.315-.048.684-.089,1.095H32.58c.249-.571.48-1.071.679-1.466.006-.012.012-.025.017-.039l0-.007,0-.008c.005-.015.01-.029.014-.044s.006-.024.008-.037,0-.012,0-.018,0-.018,0-.026,0-.011,0-.017,0-.019,0-.028,0-.01,0-.015,0-.021,0-.031v-.012c0-.012,0-.024-.006-.036v-.006q0-.022-.012-.043v0c0-.013-.009-.025-.014-.037l-.006-.013-.012-.025-.009-.015-.013-.021-.01-.015-.017-.022-.01-.012-.029-.031-.009-.009-.024-.021-.011-.008L33.1,97.1l-.01-.007-.009-.006Zm-2.3,6.062a.481.481,0,0,0,.437-.31c.25-.659.5-1.3.749-1.9h2.272c-.079.645-.178,1.351-.291,2.08l-.118-.031a.481.481,0,1,0-.249.929l.552.148A2.827,2.827,0,0,1,35,105.291l-5.647-1.513A2.7,2.7,0,0,1,30.987,102.35Zm2.16,10.049-5.748-1.54,1.652-6.166,5.748,1.54Zm-.683,1.893a.7.7,0,0,1-.5.045l-4.513-1.209h0a.6.6,0,0,1-.481-.673l.179-.668,5.748,1.54-.179.668A.476.476,0,0,1,32.464,114.293Z" transform="translate(0 -91.588)" fill="#636bae"/>
    <path id="Path_83" data-name="Path 83" d="M152.34,231.708l.011,0a.481.481,0,0,0,.248-.929l-.011,0a.481.481,0,1,0-.248.929Z" transform="translate(-120.157 -220.081)" fill="#636bae"/>
    <path id="Path_84" data-name="Path 84" d="M97.835,334.168a1.813,1.813,0,1,0,.181,1.375A1.8,1.8,0,0,0,97.835,334.168Zm-.748,1.126a.851.851,0,1,1-.085-.646A.852.852,0,0,1,97.088,335.294Z" transform="translate(-65.21 -317.909)" fill="#636bae"/>
    <path id="Path_85" data-name="Path 85" d="M281.411,112.207l-2.2-8.227a3.865,3.865,0,0,0-2.376-2.538c-.263-.687-.53-1.353-.786-1.964v0c-.293-.7-.573-1.33-.818-1.84a.823.823,0,0,0,.1-.172.715.715,0,0,0,0-.56l-.257-.957a.7.7,0,0,0-.273-.477.865.865,0,0,0-.741-.147l-2.316.62a.819.819,0,0,0-.578,1l.28,1.046a.828.828,0,0,0,.438.53c.027.353.065.753.113,1.188v.009c.1.868.234,1.873.4,2.913a3.865,3.865,0,0,0-.789,3.386l2.2,8.227a1.425,1.425,0,0,0,.748.905,1.628,1.628,0,0,0,.739.175,1.713,1.713,0,0,0,.444-.059l4.513-1.209h0a1.658,1.658,0,0,0,.966-.692A1.425,1.425,0,0,0,281.411,112.207Zm-8.757-5.974,5.748-1.54,1.652,6.166-5.748,1.54Zm3.813-3.883a2.7,2.7,0,0,1,1.636,1.428l-5.647,1.513a2.827,2.827,0,0,1,.658-2.022l.552-.148a.481.481,0,1,0-.249-.929l-.118.031c-.113-.729-.212-1.435-.291-2.08h2.272c.246.6.5,1.237.749,1.9A.481.481,0,0,0,276.467,102.351Zm-2.3-6.062.214.8-.009.006-.01.007-.027.019-.011.009-.024.021-.01.009-.028.03-.01.013-.016.021-.01.016-.013.021-.009.016-.012.024-.006.014c-.005.012-.01.024-.014.036v0c0,.014-.009.028-.012.043V97.4c0,.012,0,.024-.006.036v.012c0,.01,0,.02,0,.031s0,.01,0,.015,0,.019,0,.028,0,.011,0,.017,0,.018,0,.026,0,.012,0,.018.005.026.008.038.008.027.013.04l0,.011,0,0c.006.014.012.028.019.042.2.394.431.894.679,1.465H272.9c-.041-.411-.072-.78-.089-1.095,0-.015,0-.029,0-.044v-.006l0-.01c0-.014-.005-.028-.009-.042s-.008-.025-.012-.038l-.007-.016-.011-.025-.008-.015-.014-.025-.008-.013-.017-.025-.008-.011-.021-.026-.007-.008-.03-.03-.011-.009-.021-.017-.018-.013-.015-.01-.022-.013-.013-.007-.026-.013-.008,0a.473.473,0,0,0-.091-.028l-.017,0-.022,0-.025,0h-.026l-.214-.8Zm6.247,16.552a.7.7,0,0,1-.409.288h0l-4.513,1.209a.7.7,0,0,1-.5-.045.477.477,0,0,1-.255-.3l-.179-.668,5.748-1.54.179.668A.477.477,0,0,1,280.41,112.841Z" transform="translate(-234.136 -91.588)" fill="#636bae"/>
    <path id="Path_86" data-name="Path 86" d="M340.139,230.778l-.011,0a.481.481,0,1,0,.249.929l.011,0a.481.481,0,0,0-.249-.929Z" transform="translate(-299.253 -220.079)" fill="#636bae"/>
    <path id="Path_87" data-name="Path 87" d="M345.66,334.6a1.812,1.812,0,1,0-1.752,2.282h0a1.819,1.819,0,0,0,.47-.062,1.812,1.812,0,0,0,1.282-2.22Zm-1.014.895a.846.846,0,0,1-.517.4.855.855,0,0,1-.221.029h0a.851.851,0,1,1,.738-.426Z" transform="translate(-301.649 -317.908)" fill="#636bae"/>
    <path id="Path_88" data-name="Path 88" d="M246.477,0A.481.481,0,0,0,246,.481V1.767a.481.481,0,0,0,.961,0V.481A.481.481,0,0,0,246.477,0Z" transform="translate(-209.818)" fill="#636bae"/>
    <path id="Path_89" data-name="Path 89" d="M191.048,23.91a.481.481,0,0,0,.829-.486l-.654-1.114a.481.481,0,0,0-.829.486Z" transform="translate(-156.736 -21.011)" fill="#636bae"/>
    <path id="Path_90" data-name="Path 90" d="M288.3,24.081a.481.481,0,0,0,.658-.171l.654-1.114a.481.481,0,0,0-.829-.486l-.654,1.114A.481.481,0,0,0,288.3,24.081Z" transform="translate(-249.954 -21.011)" fill="#636bae"/>
  </g>
</svg>
