<svg xmlns="http://www.w3.org/2000/svg" width="23.056" height="23.056" viewBox="0 0 23.056 23.056">
  <g id="Group_248" data-name="Group 248" transform="translate(-14.041 -18.264)">
    <path id="Path_396" data-name="Path 396" d="M41.653,29.256A11.528,11.528,0,1,0,53.181,40.784,11.528,11.528,0,0,0,41.653,29.256Zm7.584,19.112a10.725,10.725,0,1,1,3.141-7.584A10.692,10.692,0,0,1,49.237,48.368Z" transform="translate(-16.084 -10.992)" fill="#fff"/>
    <path id="Path_397" data-name="Path 397" d="M50.468,45.557a1.841,1.841,0,0,0-.91-.455h0l-1.526-.391a2.761,2.761,0,0,0,1.2-2.223,3.339,3.339,0,0,0-6.618,0,2.761,2.761,0,0,0,1.2,2.223L42.28,45.1h0a1.841,1.841,0,0,0-.91.455,2.855,2.855,0,0,0-.74,1.361,11.7,11.7,0,0,0-.313,1.884.3.3,0,0,0,.292.306.313.313,0,0,0,.35-.255,8.38,8.38,0,0,1,.455-2.261,1.846,1.846,0,0,1,.425-.65,1.162,1.162,0,0,1,.6-.3l.023-.005,2.053-.525a.16.16,0,0,0,.017-.008,3.7,3.7,0,0,0,2.776,0c.006,0,.01.006.017.008l2.053.525.023.005a1.162,1.162,0,0,1,.6.3,2.344,2.344,0,0,1,.583,1.109,11.208,11.208,0,0,1,.3,1.8.313.313,0,0,0,.35.255.3.3,0,0,0,.292-.306,8.806,8.806,0,0,0-.492-2.4A2.4,2.4,0,0,0,50.468,45.557Zm-6.432-1.424a2.123,2.123,0,0,1,0-3.291,2.938,2.938,0,0,1,3.766,0,2.123,2.123,0,0,1,0,3.291,2.938,2.938,0,0,1-3.766,0Z" transform="translate(-20.351 -14.56)" fill="#fff"/>
  </g>
</svg>
