<svg xmlns="http://www.w3.org/2000/svg" width="51.213" height="41.167" viewBox="0 0 51.213 41.167">
  <path id="Path_416" data-name="Path 416" d="M133.885,163.683a.747.747,0,0,1,.747-.747h22.921a.747.747,0,0,1,0,1.493H134.632A.747.747,0,0,1,133.885,163.683Zm44.406-20.824a.752.752,0,0,1-.219.529l-15.69,15.689c-.015.015-.036.021-.051.034a.722.722,0,0,1-.122.081.734.734,0,0,1-.134.059c-.022.007-.038.022-.061.027l-6.47,1.43a.746.746,0,0,1-.89-.89l1.43-6.47c.005-.021.018-.036.025-.056a.714.714,0,0,1,.061-.137.7.7,0,0,1,.082-.124c.013-.016.019-.036.034-.051l15.69-15.689a.748.748,0,0,1,1.056,0l5.04,5.041A.749.749,0,0,1,178.291,142.859ZM156.364,159l4-.883L157.248,155Zm20.124-16.137-3.985-3.985-14.634,14.633,3.984,3.985Zm-3.844,9.011a.747.747,0,0,0-.747.747h0v13.062a3.694,3.694,0,0,1-3.694,3.695H132.265a3.694,3.694,0,0,1-3.694-3.695V134.886a3.694,3.694,0,0,1,3.694-3.694H168.2a3.694,3.694,0,0,1,3.694,3.694.747.747,0,1,0,1.493,0A5.187,5.187,0,0,0,168.2,129.7H132.265a5.187,5.187,0,0,0-5.187,5.187v30.792a5.188,5.188,0,0,0,5.187,5.188H168.2a5.188,5.188,0,0,0,5.187-5.188V152.616A.747.747,0,0,0,172.644,151.869Zm-38.012,5.62h15.3a.747.747,0,1,0,0-1.493h-15.3a.747.747,0,1,0,0,1.493Zm15.457-10.6a16.841,16.841,0,0,1,.736,4.1.747.747,0,1,1-1.488.134,21.072,21.072,0,0,0-.429-2.975,3.876,3.876,0,0,0-.785-1.733,1.355,1.355,0,0,0-.733-.416l-.053-.014-2.934-.86a5.078,5.078,0,0,1-4.093,0l-2.934.86-.053.014a1.355,1.355,0,0,0-.733.416,2.89,2.89,0,0,0-.564.994,15.619,15.619,0,0,0-.65,3.715.747.747,0,1,1-1.488-.134,22.412,22.412,0,0,1,.465-3.2,5.292,5.292,0,0,1,1.148-2.4,2.867,2.867,0,0,1,1.455-.837v0l1.765-.517a5.116,5.116,0,1,1,7.271,0l1.765.517v0a2.868,2.868,0,0,1,1.455.837A4.36,4.36,0,0,1,150.088,146.89Zm-7.732-2.83A3.626,3.626,0,1,0,139.8,143,3.608,3.608,0,0,0,142.356,144.059Z" transform="translate(-127.078 -129.699)" fill="#ffbe76"/>
</svg>
