<svg xmlns="http://www.w3.org/2000/svg" width="80.865" height="65.004" viewBox="0 0 80.865 65.004">
  <path id="Path_663" data-name="Path 663" d="M137.826,183.36a1.179,1.179,0,0,1,1.179-1.179H175.2a1.179,1.179,0,0,1,0,2.358H139.005A1.179,1.179,0,0,1,137.826,183.36Zm70.117-32.881a1.188,1.188,0,0,1-.346.835l-24.775,24.773c-.024.024-.056.033-.081.054a1.143,1.143,0,0,1-.193.128,1.161,1.161,0,0,1-.211.093c-.034.01-.06.034-.1.042l-10.216,2.257a1.178,1.178,0,0,1-1.406-1.406l2.257-10.216c.008-.033.029-.056.039-.088a1.131,1.131,0,0,1,.1-.216,1.108,1.108,0,0,1,.13-.2c.021-.025.03-.056.054-.08l24.775-24.773a1.181,1.181,0,0,1,1.668,0l7.959,7.96A1.182,1.182,0,0,1,207.943,150.479Zm-34.622,25.48,6.312-1.394-4.917-4.918Zm31.775-25.48-6.292-6.292L175.7,167.293l6.291,6.292Zm-6.07,14.228a1.179,1.179,0,0,0-1.179,1.179h0v20.625a5.833,5.833,0,0,1-5.833,5.834H135.269a5.833,5.833,0,0,1-5.833-5.834V137.89a5.833,5.833,0,0,1,5.833-5.833h56.746a5.833,5.833,0,0,1,5.833,5.833,1.179,1.179,0,1,0,2.358,0,8.191,8.191,0,0,0-8.191-8.191H135.269a8.191,8.191,0,0,0-8.191,8.191v48.621a8.192,8.192,0,0,0,8.191,8.192h56.746a8.192,8.192,0,0,0,8.191-8.192V165.886A1.179,1.179,0,0,0,199.027,164.706Zm-60.021,8.873h24.161a1.179,1.179,0,1,0,0-2.358H139.005a1.179,1.179,0,1,0,0,2.358Zm24.406-16.737a26.593,26.593,0,0,1,1.162,6.468,1.179,1.179,0,1,1-2.349.212,33.278,33.278,0,0,0-.677-4.7,6.121,6.121,0,0,0-1.239-2.737,2.14,2.14,0,0,0-1.158-.656l-.084-.022-4.633-1.357a8.018,8.018,0,0,1-6.463,0l-4.633,1.357-.084.022a2.14,2.14,0,0,0-1.158.656,4.563,4.563,0,0,0-.891,1.57,24.661,24.661,0,0,0-1.026,5.865,1.179,1.179,0,1,1-2.349-.212,35.393,35.393,0,0,1,.735-5.045,8.356,8.356,0,0,1,1.813-3.794,4.527,4.527,0,0,1,2.3-1.322v0l2.787-.816a8.077,8.077,0,1,1,11.481,0l2.787.816v0a4.528,4.528,0,0,1,2.3,1.322A6.886,6.886,0,0,1,163.411,156.843ZM151.2,152.374a5.725,5.725,0,1,0-4.043-1.677A5.7,5.7,0,0,0,151.2,152.374Z" transform="translate(-127.078 -129.699)" fill="#87bcbf"/>
</svg>
