<svg xmlns="http://www.w3.org/2000/svg" width="21.574" height="21.574" viewBox="0 0 21.574 21.574">
  <path id="Setting" d="M8.49,21.12l-.5-2A8.778,8.778,0,0,1,6.9,18.67L5.093,19.711a.6.6,0,0,1-.725-.1L3.158,18.41,1.948,17.2a.6.6,0,0,1-.091-.733L2.915,14.7a8.641,8.641,0,0,1-.454-1.085L.451,13.071a.6.6,0,0,1-.445-.579l0-1.709L0,9.074A.6.6,0,0,1,.454,8.49l2-.5A8.716,8.716,0,0,1,2.9,6.9L1.864,5.093a.6.6,0,0,1,.094-.725l1.206-1.21L4.37,1.948A.6.6,0,0,1,5.1,1.856L6.877,2.915a8.755,8.755,0,0,1,1.085-.454L8.5.451A.6.6,0,0,1,9.083.006l1.709,0L12.5,0a.6.6,0,0,1,.583.454l.5,2a8.625,8.625,0,0,1,1.085.451l1.806-1.04a.6.6,0,0,1,.725.094l1.21,1.206L19.626,4.37a.6.6,0,0,1,.092.734L18.659,6.877a8.76,8.76,0,0,1,.455,1.085l2.011.542a.6.6,0,0,1,.445.579l0,1.709,0,1.709a.6.6,0,0,1-.454.583l-2,.5a8.791,8.791,0,0,1-.452,1.087l1.041,1.805a.6.6,0,0,1-.1.725L18.41,18.417,17.2,19.626a.6.6,0,0,1-.733.093L14.7,18.66a8.777,8.777,0,0,1-1.085.454l-.541,2.011a.6.6,0,0,1-.58.445l-1.708,0-1.71,0A.6.6,0,0,1,8.49,21.12ZM7.16,17.465a7.566,7.566,0,0,0,1.5.621.6.6,0,0,1,.415.43l.469,1.857,1.24,0,1.248,0,.5-1.868a.6.6,0,0,1,.411-.42,7.546,7.546,0,0,0,1.5-.627.6.6,0,0,1,.6.012l1.647.984.875-.878.882-.886L17.472,15a.6.6,0,0,1-.007-.587,7.6,7.6,0,0,0,.621-1.5.6.6,0,0,1,.43-.415l1.857-.467,0-1.24,0-1.25-1.868-.5a.6.6,0,0,1-.421-.41,7.5,7.5,0,0,0-.626-1.5.6.6,0,0,1,.012-.6l.984-1.647-.878-.876-.886-.882L15,4.1a.6.6,0,0,1-.588.007,7.566,7.566,0,0,0-1.5-.621.6.6,0,0,1-.415-.43L12.034,1.2l-1.24,0-1.249,0-.5,1.869a.6.6,0,0,1-.41.42,7.551,7.551,0,0,0-1.5.626.6.6,0,0,1-.6-.011L4.891,3.128l-.876.878-.882.885L4.1,6.573a.6.6,0,0,1,.007.587,7.566,7.566,0,0,0-.621,1.5.6.6,0,0,1-.43.415L1.2,9.541l0,1.239,0,1.249,1.869.5a.6.6,0,0,1,.42.41,7.52,7.52,0,0,0,.626,1.5.6.6,0,0,1-.011.6l-.985,1.647.878.876.886.881,1.681-.968a.6.6,0,0,1,.587-.007Zm8.267-2.133a14.149,14.149,0,0,0-.288-2,2.553,2.553,0,0,0-.509-1.134.823.823,0,0,0-.448-.254l-.043-.011-1.955-.572a3.553,3.553,0,0,1-2.79,0l-1.955.572-.043.011a.816.816,0,0,0-.448.254,1.868,1.868,0,0,0-.363.643,10.426,10.426,0,0,0-.436,2.494.6.6,0,1,1-1.2-.108,15.136,15.136,0,0,1,.318-2.18,3.675,3.675,0,0,1,.8-1.671A2.032,2.032,0,0,1,7.1,10.779v0l1.06-.311a3.564,3.564,0,1,1,5.255,0l1.061.311v0a2.032,2.032,0,0,1,1.029.593,3.052,3.052,0,0,1,.616,1.049,11.529,11.529,0,0,1,.5,2.8.6.6,0,0,1-.545.653l-.053,0A.6.6,0,0,1,15.426,15.332ZM9.118,6.412a2.356,2.356,0,1,0,1.67-.693A2.35,2.35,0,0,0,9.118,6.412Z" fill="#fff"/>
</svg>
