<svg xmlns="http://www.w3.org/2000/svg" width="21.574" height="21.574" viewBox="0 0 21.574 21.574">
  <path id="Path_418" data-name="Path 418" d="M463.907,229.877l0-1.709a.6.6,0,0,0-.445-.579l-2.01-.541a8.731,8.731,0,0,0-.454-1.085l1.059-1.772a.6.6,0,0,0-.092-.734l-1.21-1.206-1.211-1.206a.6.6,0,0,0-.724-.095l-1.806,1.041a8.685,8.685,0,0,0-1.086-.451l-.5-2a.6.6,0,0,0-.583-.454l-1.709,0-1.709,0a.6.6,0,0,0-.579.445l-.541,2.01a8.733,8.733,0,0,0-1.085.454l-1.773-1.059a.6.6,0,0,0-.734.092l-1.206,1.211-1.206,1.21a.6.6,0,0,0-.095.724l1.041,1.806a8.784,8.784,0,0,0-.451,1.086l-2,.5a.6.6,0,0,0-.454.583l0,1.709,0,1.709a.6.6,0,0,0,.445.579l2.01.541a8.651,8.651,0,0,0,.454,1.085l-1.059,1.773a.6.6,0,0,0,.091.734l1.21,1.206L446.7,238.7a.6.6,0,0,0,.724.095l1.806-1.041a8.692,8.692,0,0,0,1.087.451l.5,2a.6.6,0,0,0,.583.454l1.709,0,1.709,0a.6.6,0,0,0,.579-.445l.541-2.01a8.65,8.65,0,0,0,1.085-.454L458.8,238.8a.6.6,0,0,0,.734-.092l1.206-1.21,1.206-1.211a.6.6,0,0,0,.095-.724L461,233.761a8.653,8.653,0,0,0,.451-1.087l2-.5a.6.6,0,0,0,.454-.583Zm-3.056,1.711a.6.6,0,0,0-.43.415,7.579,7.579,0,0,1-.621,1.5.6.6,0,0,0,.007.587l.969,1.681-.882.885-.875.878-1.647-.984a.6.6,0,0,0-.6-.011,7.524,7.524,0,0,1-1.5.627.6.6,0,0,0-.411.421l-.5,1.869-1.249,0-1.24,0-.469-1.856a.6.6,0,0,0-.414-.43,7.557,7.557,0,0,1-1.5-.621.6.6,0,0,0-.587.007l-1.681.969-.885-.882-.878-.875.984-1.647a.6.6,0,0,0,.011-.6,7.525,7.525,0,0,1-.627-1.5.6.6,0,0,0-.42-.411l-1.87-.5,0-1.25,0-1.24,1.856-.469a.6.6,0,0,0,.43-.415,7.556,7.556,0,0,1,.621-1.5.6.6,0,0,0-.007-.587l-.969-1.681.882-.885.876-.878,1.647.984a.6.6,0,0,0,.6.011,7.541,7.541,0,0,1,1.5-.627.6.6,0,0,0,.411-.42l.5-1.87,1.25,0,1.24,0,.468,1.856a.6.6,0,0,0,.415.43,7.557,7.557,0,0,1,1.5.621.6.6,0,0,0,.587-.007l1.681-.969.885.882.878.876-.984,1.647a.6.6,0,0,0-.011.6,7.5,7.5,0,0,1,.627,1.5.6.6,0,0,0,.421.411l1.869.5,0,1.25,0,1.24Z" transform="translate(-442.335 -219.086)" fill="#fff"/>
</svg>
