<svg id="Icon" xmlns="http://www.w3.org/2000/svg" width="28" height="28" viewBox="0 0 28 28">
  <rect id="Area" width="28" height="28" fill="#fcfcfc" opacity="0"/>
  <g id="Icon-2" data-name="Icon" transform="translate(1.999 1.999)">
    <circle id="Path" cx="3" cy="3" r="3" transform="translate(9 9)" fill="none" stroke="#fff" stroke-linecap="round" stroke-linejoin="round" stroke-width="1"/>
    <path id="Path-2" data-name="Path" d="M20.906,16.106a1.8,1.8,0,0,0,.36,1.986l.065.065a2.183,2.183,0,1,1-3.088,3.087l-.065-.065A1.815,1.815,0,0,0,15.1,22.465v.186a2.182,2.182,0,1,1-4.363,0v-.1A1.8,1.8,0,0,0,9.56,20.906a1.8,1.8,0,0,0-1.986.36l-.065.065a2.183,2.183,0,1,1-3.087-3.088l.065-.065A1.815,1.815,0,0,0,3.2,15.1H3.015a2.182,2.182,0,1,1,0-4.363h.1A1.8,1.8,0,0,0,4.76,9.56,1.8,1.8,0,0,0,4.4,7.575l-.065-.065A2.183,2.183,0,1,1,7.423,4.422l.065.065a1.8,1.8,0,0,0,1.985.36H9.56A1.8,1.8,0,0,0,10.651,3.2V3.015a2.182,2.182,0,1,1,4.364,0v.1A1.814,1.814,0,0,0,18.091,4.4l.065-.065a2.183,2.183,0,1,1,3.087,3.088l-.065.065a1.8,1.8,0,0,0-.36,1.985V9.56a1.8,1.8,0,0,0,1.647,1.09h.186a2.182,2.182,0,0,1,0,4.364h-.1A1.8,1.8,0,0,0,20.906,16.106Z" transform="translate(-0.833 -0.833)" fill="none" stroke="#fff" stroke-linecap="round" stroke-linejoin="round" stroke-width="1"/>
  </g>
</svg>
