<svg xmlns="http://www.w3.org/2000/svg" width="24.943" height="24.943" viewBox="0 0 24.943 24.943">
  <path id="Path_463" data-name="Path 463" d="M632.346,358.585a5.762,5.762,0,1,0,5.762,5.762A5.768,5.768,0,0,0,632.346,358.585Zm0,10.7a4.939,4.939,0,1,1,4.939-4.939A4.944,4.944,0,0,1,632.346,369.285Zm-.412-12.758v-4.116a.412.412,0,0,1,.823,0v4.116a.412.412,0,0,1-.823,0Zm.823,15.639v4.116a.412.412,0,0,1-.823,0v-4.116a.412.412,0,0,1,.823,0Zm11.935-7.819a.411.411,0,0,1-.411.412h-4.116a.412.412,0,0,1,0-.823h4.116A.411.411,0,0,1,644.693,364.347Zm-20.166.412h-4.115a.412.412,0,1,1,0-.823h4.115a.412.412,0,1,1,0,.823Zm16.753,7.94a.411.411,0,1,1-.582.582l-3.114-3.113a.412.412,0,0,1,.582-.582Zm-17.867-16.7a.411.411,0,0,1,.582-.582l3.113,3.113a.412.412,0,1,1-.582.582Zm14.171,3.113a.412.412,0,0,1,0-.582l3.114-3.113a.411.411,0,0,1,.582.582l-3.113,3.113a.411.411,0,0,1-.582,0Zm-10.476,10.476a.412.412,0,0,1,0,.582l-3.113,3.113a.411.411,0,0,1-.582-.582l3.113-3.114A.412.412,0,0,1,627.108,369.584Z" transform="translate(-619.875 -351.875)" fill="#fff" stroke="#fff" stroke-linecap="round" stroke-width="0.25"/>
</svg>
