<svg xmlns="http://www.w3.org/2000/svg" width="34.841" height="43.581" viewBox="0 0 34.841 43.581">
  <g id="Group_836" data-name="Group 836" transform="translate(-27.288 -21.591)">
    <path id="Path_517" data-name="Path 517" d="M31.844,65.172H47.2a4.564,4.564,0,0,0,4.558-4.558v-.625h.625a4.564,4.564,0,0,0,4.558-4.558v-.624h.624a4.564,4.564,0,0,0,4.558-4.559v-24.1a4.564,4.564,0,0,0-4.558-4.558H42.21a4.562,4.562,0,0,0-4.556,4.558v.625h-.627a4.563,4.563,0,0,0-4.556,4.558v.624h-.627a4.563,4.563,0,0,0-4.556,4.559v24.1A4.563,4.563,0,0,0,31.844,65.172Zm7.925-39.022a2.445,2.445,0,0,1,2.441-2.444h15.36a2.446,2.446,0,0,1,2.444,2.444v24.1a2.447,2.447,0,0,1-2.444,2.445h-.624V31.333a4.564,4.564,0,0,0-4.558-4.558H39.769Zm-5.184,5.184a2.446,2.446,0,0,1,2.441-2.445H52.388a2.447,2.447,0,0,1,2.444,2.445v24.1a2.447,2.447,0,0,1-2.444,2.444h-.625V36.517A4.564,4.564,0,0,0,47.2,31.957H34.585ZM29.4,36.517a2.445,2.445,0,0,1,2.441-2.445H47.2a2.446,2.446,0,0,1,2.444,2.445v24.1A2.446,2.446,0,0,1,47.2,63.057H31.844A2.445,2.445,0,0,1,29.4,60.613Z" transform="translate(0)" fill="#fff"/>
    <path id="Path_518" data-name="Path 518" d="M39.878,62.154a1.866,1.866,0,0,0,1.7,0c3.995-2.049,6.96-5.539,7.379-8.686a4.61,4.61,0,0,0-1.452-4.2,3.689,3.689,0,0,0-2.819-1.022,6.531,6.531,0,0,0-3.959,2.313,6.525,6.525,0,0,0-3.958-2.313,3.69,3.69,0,0,0-2.819,1.022,4.609,4.609,0,0,0-1.452,4.2C32.916,56.615,35.882,60.1,39.878,62.154Zm-4.5-11.317a1.609,1.609,0,0,1,1.108-.483c.041,0,.081,0,.122,0a5.128,5.128,0,0,1,3,2.142,1.436,1.436,0,0,0,2.248,0,5.128,5.128,0,0,1,3-2.142,1.576,1.576,0,0,1,1.23.479,2.545,2.545,0,0,1,.779,2.353c-.322,2.422-2.836,5.3-6.133,7.023-3.3-1.727-5.81-4.6-6.132-7.023A2.547,2.547,0,0,1,35.373,50.837Z" transform="translate(-1.202 -6.208)" fill="#fff"/>
  </g>
</svg>
