<svg xmlns="http://www.w3.org/2000/svg" width="26.575" height="26.856" viewBox="0 0 26.575 26.856">
  <g id="Group_754" data-name="Group 754" transform="translate(-701.832 -33.033)">
    <path id="Path_495" data-name="Path 495" d="M706.059,59.889a4.28,4.28,0,0,1-3.731-2.268,4.011,4.011,0,0,1,.241-4.247l.055-.067c1.474-1.5,3.472-3.26,5.4-4.965,1.814-1.6,3.687-3.252,5.11-4.671-.543-1.169-2.132-5.321,1.107-8.178a9.178,9.178,0,0,1,6.06-2.459,7.514,7.514,0,0,1,2.925.523l.6.271-4.364,4.43a2.324,2.324,0,0,0,.109,3.312,2.269,2.269,0,0,0,1.622.738,2.9,2.9,0,0,0,1.706-.693l4.29-4.356.311.483c.029.046,2.919,4.665-1.806,9.1a7.321,7.321,0,0,1-5.054,1.966,9.117,9.117,0,0,1-2.59-.357c-1.41,1.45-3.068,3.347-4.675,5.184-1.692,1.934-3.441,3.935-4.911,5.427l-.066.056A4.131,4.131,0,0,1,706.059,59.889Zm-2.748-5.968a3.111,3.111,0,0,0-.172,3.264,3.349,3.349,0,0,0,2.914,1.784,3.211,3.211,0,0,0,1.793-.582c1.445-1.47,3.172-3.445,4.843-5.356,1.692-1.933,3.441-3.933,4.91-5.426l.209-.212.28.1a7.943,7.943,0,0,0,2.551.394,6.336,6.336,0,0,0,4.432-1.716c3.278-3.079,2.447-6.192,1.928-7.4l-3.453,3.5a3.787,3.787,0,0,1-2.34.954,3.157,3.157,0,0,1-2.275-1,3.231,3.231,0,0,1-.132-4.6l3.394-3.446a7.407,7.407,0,0,0-1.881-.227,8.225,8.225,0,0,0-5.458,2.229c-3.233,2.853-.782,7.309-.757,7.354l.17.3-.243.247c-1.47,1.491-3.461,3.248-5.387,4.947C706.731,50.714,704.76,52.453,703.311,53.921Z" fill="#fff"/>
    <path id="Path_496" data-name="Path 496" d="M709.07,81.14a2.07,2.07,0,1,1,2.07-2.07A2.073,2.073,0,0,1,709.07,81.14Zm0-3.22a1.15,1.15,0,1,0,1.15,1.15A1.151,1.151,0,0,0,709.07,77.92Z" transform="translate(-2.79 -23.741)" fill="#fff"/>
  </g>
</svg>
