<svg xmlns="http://www.w3.org/2000/svg" width="54.053" height="74.67" viewBox="0 0 54.053 74.67">
  <g id="Group_837" data-name="Group 837" transform="translate(-865.44 -1303.283)">
    <path id="Path_519" data-name="Path 519" d="M941.958,1501.442h18.1c-.375-3.128-1.734-8.076-8.249-16.014" transform="translate(-51.692 -124.989)" fill="none" stroke="#fff" stroke-miterlimit="22.926" stroke-width="3" fill-rule="evenodd"/>
    <path id="Path_520" data-name="Path 520" d="M912.851,1360.4c-.243-.731-.5-1.488-.778-2.282-5.186-14.921,1.131-20.669,6.921-25.424,4.325-3.552,8.355-6.549,7.077-12.4-1.4-6.006-5.661-9.307,2.548-14.743,1.715,4.263,6.585,9.41-2.425,14.543m-14.505,3.8c-.576-.218-1.413-.544-1.892-.772-9.965-4.727-5.253-11.35-3.914-16.532,8.853,4.331,7.309,8.169,6.087,13.565a8.5,8.5,0,0,0,.312,5.259c1.155,2.837,3.869,4.94,6.718,7.28" transform="translate(-25.035)" fill="none" stroke="#fff" stroke-miterlimit="22.926" stroke-width="3" fill-rule="evenodd"/>
    <path id="Path_521" data-name="Path 521" d="M867.565,1370.017c5.47-1.24,12.634-6.137,17.03,5.969C877.138,1376.5,872.486,1380.886,867.565,1370.017Z" transform="translate(0 -43.386)" fill="none" stroke="#fff" stroke-miterlimit="22.926" stroke-width="3" fill-rule="evenodd"/>
    <path id="Path_522" data-name="Path 522" d="M884.928,1417.879c3.7-.177,9.115,1.672,9.773-6.8C889.869,1412.065,886.138,1410.1,884.928,1417.879Z" transform="translate(-12.065 -73.327)" fill="none" stroke="#fff" stroke-miterlimit="22.926" stroke-width="3" fill-rule="evenodd"/>
    <path id="Path_523" data-name="Path 523" d="M946.767,1338.87c-1.675,2.949-5.763,6.237.473,10.9C948.845,1345.545,952.2,1343.62,946.767,1338.87Z" transform="translate(-53.039 -23.153)" fill="none" stroke="#fff" stroke-miterlimit="22.926" stroke-width="3" fill-rule="evenodd"/>
    <path id="Path_524" data-name="Path 524" d="M1000.822,1357.881c-5.493.661-13.771-1.515-13.843,11.188C994.078,1367.08,999.852,1369.609,1000.822,1357.881Z" transform="translate(-82.975 -36.363)" fill="none" stroke="#fff" stroke-miterlimit="22.926" stroke-width="3" fill-rule="evenodd"/>
    <path id="Path_525" data-name="Path 525" d="M1000.883,1414.058c-3.907.522-9.229,3.5-11.541-5.252C994.592,1408.914,998.125,1406.141,1000.883,1414.058Z" transform="translate(-84.617 -71.481)" fill="none" stroke="#fff" stroke-miterlimit="22.926" stroke-width="3" fill-rule="evenodd"/>
    <path id="Path_526" data-name="Path 526" d="M921.2,1414.6c-4.136-5.915-2.638-9.918.066-13.808,3.156,4.539,4.669,9.233-2.5,16.939-9.7,10.431-11.471,16.542-11.908,20.186h18.1c-.149-8.04,1.012-11.96,3.228-18.337,4.245-12.217.78-18.285-3.793-22.692-1.067-1.053-2.444-2.264-3.181-2.883" transform="translate(-27.305 -61.462)" fill="none" stroke="#fff" stroke-miterlimit="22.926" stroke-width="3" fill-rule="evenodd"/>
  </g>
</svg>
