<?xml version="1.0" encoding="utf-8"?>
<!-- Generator: Adobe Illustrator 24.2.1, SVG Export Plug-In . SVG Version: 6.00 Build 0)  -->
<svg version="1.1" id="Layer_1" xmlns="http://www.w3.org/2000/svg" xmlns:xlink="http://www.w3.org/1999/xlink" x="0px" y="0px"
	 viewBox="0 0 235.85 60.12" style="enable-background:new 0 0 235.85 60.12;" xml:space="preserve">
<style type="text/css">
	.st0{clip-path:url(#SVGID_2_);fill:#293961;}
	.st1{clip-path:url(#SVGID_2_);fill:none;stroke:#02A0D0;stroke-width:0.09;stroke-miterlimit:10;}
	.st2{clip-path:url(#SVGID_2_);fill:#00D369;}
</style>
<g>
	<defs>
		<rect id="SVGID_1_" y="0" width="235.85" height="60.12"/>
	</defs>
	<clipPath id="SVGID_2_">
		<use xlink:href="#SVGID_1_"  style="overflow:visible;"/>
	</clipPath>
	<path class="st0" d="M57.62,45.37h0.3C59.28,45.37,58.22,45.85,57.62,45.37"/>
	<line class="st1" x1="67.41" y1="30.33" x2="67.41" y2="30.32"/>
	<line class="st1" x1="67.4" y1="30.43" x2="67.4" y2="30.42"/>
	<path class="st2" d="M35.22,20.97L21.04,0L3.33,21.47c-1.28,1.57-2.17,3.42-2.73,5.28c-0.51,1.71-0.7,3.5-0.57,5.27
		c0.18,2.55,1.01,5.06,2.51,7.28l7.69,11.37l6.38,9.44L34.36,38.7C38.55,33.63,38.88,26.44,35.22,20.97 M19.48,21.11l-0.03,0.45
		l-0.02,0.3c-0.29,2.51-1.58,4.72-3.46,6.22c-0.28,0.22-0.57,0.43-0.88,0.62c-0.01,0-0.02,0.01-0.03,0.02
		c-1.12,0.69-2.4,1.16-3.78,1.34v0.02c1.84,0.13,3.49,0.93,4.73,2.15c0.13,0.13,0.27,0.27,0.39,0.42c1.15,1.32,1.84,3.04,1.84,4.93
		v0.04c0,0.13,0,0.26-0.01,0.4c0,0.09,0,0.17-0.01,0.25l-0.03,0.39l-0.86,11.51l-6.79-10.04c0,0,0-0.04,0-0.04
		c0.01-0.07,0.09-1.58,0.16-2.58c0-0.01,0-0.01,0-0.02c0.01-0.05,0.01-0.1,0.01-0.16c0-0.03,0-0.05,0-0.08c0-0.07,0-0.14,0-0.21
		c0-2.75-2.18-4.99-4.9-5.09c-0.07,0-0.13-0.01-0.2-0.01H5.05l0.28-3.78h0.5c0.19,0,0.37-0.01,0.56-0.03
		c2.82-0.26,5.07-2.45,5.43-5.23v0c0.03-0.22,0.05-0.44,0.05-0.66L12,20.01L12.01,20l8.29-10.02L19.48,21.11z M29.77,35.06l-4.13,5
		l-3.17-4.68c-2.17-3.2-1.96-7.44,0.51-10.41l4.12-4.96l3.16,4.66C32.42,27.87,32.22,32.09,29.77,35.06"/>
	<line class="st1" x1="49.59" y1="47.49" x2="49.58" y2="47.51"/>
	<line class="st1" x1="63.71" y1="29.79" x2="63.69" y2="29.79"/>
	<polygon class="st0" points="70.48,38.99 70.48,38.99 70.3,41.42 	"/>
	<path class="st0" d="M152.86,35.46c-0.29-3.83-3.23-6.97-7.05-7.46c-0.01,0-0.02,0-0.04-0.01c-0.33-0.05-0.67-0.06-1.02-0.06h-6.47
		l0.44-6.77l0-0.06l0.19-2.51c0.1-1.32,0.82-2.46,1.88-3.13c0.05-0.04,0.11-0.07,0.16-0.1c0.62-0.37,1.34-0.53,2.1-0.53h9.2
		l0.1-1.54l0.01-0.1l0.21-3.1c0,0-13.29-0.09-13.8,0c-4,0.69-7.12,4.03-7.42,8.2l-0.11,1.59c0,0.02-0.01,0.04-0.01,0.06
		c-0.01,0.06-0.01,0.13-0.02,0.2l-0.07,1.01l-1.24,17.8l-0.01,0.18l-0.14,1.98l-0.06,0.85l-0.02,0.31c0.04,4.03,3.04,7.3,6.98,7.87
		c0.38,0.06,0.78,0.09,1.18,0.09l5.06,0.01c0.45,0,0.9-0.03,1.34-0.09c4.21-0.59,7.58-3.82,8.13-8.1c0.01-0.04,0.01-0.08,0.02-0.12
		c0.02-0.14,0.03-0.28,0.04-0.42c0.07-1,0.12-1.64,0.17-2.22c0.01-0.1,0.01-0.19,0.02-0.28c0.07-0.84,0.13-1.65,0.26-3.43
		C152.87,35.53,152.87,35.5,152.86,35.46 M145.33,34.33l-0.02,0.3l-0.54,7.45c0,0.05-0.01,0.09-0.01,0.14c0,0.01,0,0.02,0,0.02
		c-0.21,1.77-1.71,3.13-3.52,3.13h-1.01c-1.6,0-2.89-1.25-2.99-2.8c-0.01-0.14-0.01-0.28,0-0.42l0.23-3.01h-0.01l0.01-0.18
		l0.28-3.91c0.14-1.86,0.28-3.31,0.28-3.31h4.22C143.81,31.75,145.08,32.87,145.33,34.33L145.33,34.33z"/>
	<path class="st0" d="M122.77,29.81c-0.09-0.07-0.18-0.14-0.27-0.21c-0.08-0.07-0.17-0.13-0.26-0.19c-1.04-0.74-2.27-1.24-3.61-1.41
		c-0.01,0-0.02,0-0.04-0.01c-0.33-0.05-0.67-0.06-1.02-0.06h-6.47l0.71-9.33c0.1-1.32,0.75-2.46,1.81-3.13
		c0.05-0.04,0.11-0.07,0.16-0.1c0.62-0.37,1.34-0.53,2.1-0.53h9.2l0.1-1.54l0.01-0.1l0.21-3.08l0-0.02c0,0-13.29-0.09-13.8,0
		c-4,0.69-7.12,4.03-7.42,8.21l-0.11,1.59c0,0.02-0.01,0.04-0.01,0.06c-0.01,0.06-0.01,0.13-0.02,0.2l-0.07,1.01l-0.21,2.98
		l-0.45,5.59l-1.38,20.46h7.56l0-0.04l0.55-7.54c0-0.01,0-0.03,0-0.04c-0.01-0.14-0.01-0.28,0-0.42l0.23-3.01h-0.01l0.01-0.18
		l0.28-3.91c0.11-1.51,0.23-2.75,0.27-3.16c0-0.03,0-0.05,0-0.07l0.01-0.07c0-0.01,0-0.01,0-0.01h4.22c1.55,0,2.82,1.12,3.08,2.58v0
		l-0.01,0.08v0c0.04,0.23,0.05,0.46,0.03,0.71l-0.36,4.93l-0.49,7.46l-0.2,2.63l-0.01,0.06h7.63l1-13.46
		C125.96,33.96,124.75,31.43,122.77,29.81 M115.94,31.75c0.06-0.01,0.11-0.01,0.17-0.01c0.06,0,0.12,0,0.17,0.01H115.94z
		 M118.28,33.92c0,0.12-0.01,0.23-0.03,0.35l0.03-0.4V33.92z"/>
	<path class="st0" d="M210.82,50.18l1.77-25.54l0.53-6.93c0.54-4.2,4-7.42,8.22-7.67c0.18-0.01,0.35-0.02,0.54-0.02h5.88
		c4.75,0,8.43,4.03,8.08,8.77l-2.3,31.39h-7.58l1.68-22.32l0.32-4.74l0.36-4.93c0.13-1.81-1.31-3.36-3.13-3.36h-0.94
		c-1.66,0-3.08,1.14-3.46,2.71l-2.4,32.63H210.82z"/>
	<path class="st0" d="M72.58,10.12L71.8,20.94l-0.03,0.45l-0.03,0.3c-0.33,2.88-1.97,5.35-4.33,6.82c-0.01,0.01-0.02,0.01-0.03,0.02
		c-1.1,0.68-2.32,1.09-3.67,1.27c-0.02,0-0.04,0-0.06,0.01v0.02c2.03,0.15,3.81,1.17,5.07,2.62c1.15,1.32,1.84,3.03,1.84,4.91
		c0,0,0,0.23-0.02,0.57c0,0-0.26,3.36-0.36,4.65c-0.17,1-0.5,1.94-0.96,2.8c-0.77,1.44-1.92,2.66-3.3,3.53
		c-0.01,0-0.02,0.01-0.03,0.02c-1.12,0.69-2.36,1.1-3.73,1.27v0.02h-6.92c-3.24,0-5.99-2.02-7.1-4.83c-0.41-1.03-0.6-2.17-0.51-3.37
		l0.22-3.02h7.52l-0.23,3.17c-0.13,1.74,1.25,3.22,2.99,3.22h1.01c1.86,0,3.4-1.43,3.53-3.29l0.4-5c0.22-2.87-2.05-5.33-4.93-5.33
		l-1.98,0l0.28-3.79c0.13,0,0.8,0,1.67,0c3.16,0,5.78-2.43,6.01-5.58l0.92-12.26H72.58z"/>
	<path class="st0" d="M207.91,18.88l-0.95,12.84h-7.58l0.33-3.71l0.01-0.05l0.32-4.74l0.35-5.02c0.13-1.81-1.31-3.36-3.12-3.36
		h-0.95c-0.17,0-0.34,0.01-0.5,0.04c-0.05,0.01-0.11,0.02-0.17,0.03c-1.36,0.26-2.46,1.29-2.79,2.64l-0.48,6.75l-1.09,14.7
		l-0.15,2.11c-0.01,0.15-0.01,0.3-0.01,0.45v0.01l-0.04,0.59c0,0.05-0.01,0.1-0.01,0.15c0,0.03,0,0.05,0,0.07c0,0.06,0,0.13,0,0.19
		c0.1,1.55,1.4,2.79,3,2.79h1.08h10.56l-0.16,2.12l-0.2,2.74h-13.68c-0.4,0-0.8-0.03-1.18-0.09c-3.94-0.58-6.96-3.85-7-7.87
		l-0.01-0.31l1.71-24.16c0.54-4.2,4-7.42,8.22-7.67c0.18-0.01,0.35-0.02,0.53-0.02h5.88C204.58,10.11,208.26,14.14,207.91,18.88"/>
	<path class="st0" d="M180.04,18.79c-0.3,4.06-0.59,8.39-0.91,13.02c-0.21,3.04-0.44,6.21-0.68,9.53c-0.11,1.48-0.55,2.86-1.25,4.08
		c-1.65,2.87-4.75,4.78-8.27,4.77l-4.89,0h-0.17c-4.74-0.01-8.48-4.03-8.14-8.75c0-0.01,0-0.02,0-0.03l0.18-2.43h7.6l-0.19,2.56
		l-0.04,0.61c-0.01,0.14-0.01,0.28,0,0.42c0.1,1.55,1.39,2.8,2.99,2.8h1.01c1.86,0,3.4-1.43,3.53-3.29l1.72-24.17
		c0.11-1.55-0.88-3.08-2.96-3.08h-1.14c-0.18,0-0.36,0.01-0.54,0.04c-0.18,0.03-0.35,0.07-0.53,0.12c-0.05,0.02-0.11,0.04-0.16,0.05
		c-1.13,0.39-2.04,1.3-2.13,2.49v0.02c-0.01,0.04-0.01,0.09-0.01,0.13L165,18.36c-0.01,0.09-0.02,0.19-0.03,0.28l-0.18,2.49h-7.62
		l0.2-2.81c0.34-4.7,4.22-8.22,8.93-8.22h5.51C176.58,10.11,180.38,14.03,180.04,18.79"/>
	<path class="st0" d="M99.3,18.79c-0.29,4.06-0.59,8.39-0.91,13.02c-0.21,3.04-0.44,6.21-0.68,9.53c-0.11,1.48-0.55,2.86-1.25,4.08
		c-1.65,2.87-4.75,4.78-8.28,4.77l-4.89,0h-0.17c-4.74-0.01-8.48-4.03-8.14-8.75c0-0.01,0-0.02,0-0.03l0.18-2.43h7.6l-0.19,2.56
		l-0.04,0.61c-0.01,0.14-0.01,0.28,0,0.42c0.1,1.55,1.39,2.8,2.99,2.8h1.01c1.86,0,3.4-1.43,3.53-3.29l1.72-24.17
		c0.11-1.55-0.88-3.08-2.96-3.08h-1.23c-1.71,0-3.17,1.43-3.28,2.86l-0.06,0.66c-0.01,0.09-0.02,0.19-0.03,0.28l-0.18,2.49h-7.62
		l0.2-2.81c0.34-4.7,4.22-8.22,8.93-8.22h5.51C95.84,10.11,99.64,14.03,99.3,18.79"/>
</g>
</svg>
