<svg width="186" height="152" viewBox="0 0 186 152" fill="none" xmlns="http://www.w3.org/2000/svg">
<path d="M79.6915 0.239617C50.3072 -1.57189 8.23429 6.84148 1.90595 27.059C-2.01118 39.5794 7.73232 56.7527 19.0253 65.1922C34.4994 76.7544 53.1884 72.1308 60.1203 87.2442C61.5479 90.3571 60.9153 90.8966 62.2849 97.5148C63.6544 104.133 70.8475 138.895 95.5574 149.097C105.252 153.099 114.391 151.971 118.355 151.435C149.251 147.256 182.639 113.567 185.759 82.1988C190.407 35.4495 126.892 3.15306 79.6915 0.239617Z" fill="#ECF3FE"/>
<g style="mix-blend-mode:multiply" opacity="0.2">
<path d="M38.3475 130.998L38.8002 134.958C38.8002 134.958 38.8582 136.554 40.1059 136.681C41.3536 136.809 106.453 144.741 106.453 144.741L38.3475 130.998Z" fill="#3A7EC1"/>
</g>
<path d="M3.45872 97.6521L3.3774 82.9999L4.05646 82.9966L4.13183 96.3704L26.1693 82.9148L3.99837 72.6148L4.02161 76.931L3.34269 76.9375L3.31067 71.467L27.7505 82.82L3.45872 97.6521Z" fill="#3FA9F5"/>
<g style="mix-blend-mode:multiply" opacity="0.2">
<path d="M42.7145 89.3719C43.2853 78.0798 35.6249 68.4043 25.6047 67.7611C15.5845 67.1179 6.99882 75.7507 6.42807 87.0427C5.85733 98.3347 13.5177 108.01 23.5379 108.653C33.5581 109.296 42.1438 100.664 42.7145 89.3719Z" fill="#3A7EC1"/>
</g>
<path d="M38.5499 99.9557C45.6468 91.9581 45.6467 78.9914 38.5499 70.9938C31.453 62.9962 19.9468 62.9962 12.85 70.9938C5.75311 78.9914 5.75313 91.9581 12.85 99.9557C19.9468 107.953 31.4531 107.953 38.5499 99.9557Z" fill="#00D369"/>
<path d="M24.7213 93.1004L28.5485 96.8967C28.7435 97.0926 28.9836 97.2229 29.2411 97.2728C29.4987 97.3226 29.7634 97.2899 30.0053 97.1785C30.2472 97.0671 30.4565 96.8814 30.6093 96.6425C30.7621 96.4036 30.8523 96.1213 30.8697 95.8274L31.218 90.0921C31.2327 89.8383 31.3022 89.5924 31.4206 89.3758C31.5389 89.1592 31.7024 88.9786 31.8969 88.8496L36.2841 85.9067C36.5083 85.7578 36.691 85.5411 36.8114 85.2812C36.9319 85.0213 36.9854 84.7285 36.9657 84.4361C36.9461 84.1437 36.8542 83.8633 36.7004 83.6268C36.5466 83.3903 36.337 83.207 36.0955 83.0978L31.366 80.9528C31.1559 80.858 30.9694 80.7069 30.8228 80.5126C30.6762 80.3183 30.5738 80.0867 30.5244 79.8378L29.4161 74.2496C29.3582 73.9643 29.2307 73.7029 29.048 73.4949C28.8653 73.2869 28.6346 73.1407 28.382 73.0726C28.1294 73.0046 27.8649 73.0176 27.6185 73.11C27.372 73.2024 27.1535 73.3706 26.9874 73.5956L23.7173 78.0034C23.5719 78.1986 23.3868 78.3512 23.1776 78.448C22.9683 78.5448 22.7414 78.583 22.5162 78.5593L17.4413 78.0198C17.1823 77.9928 16.9219 78.048 16.6892 78.179C16.4566 78.31 16.261 78.5117 16.1246 78.7612C15.9883 79.0108 15.9165 79.2983 15.9174 79.5913C15.9183 79.8844 15.9919 80.1714 16.1297 80.4198L18.8369 85.2854C18.9572 85.5012 19.029 85.7468 19.0462 86.0008C19.0634 86.2549 19.0254 86.5099 18.9355 86.7437L16.9044 92.018C16.8004 92.2872 16.7655 92.5838 16.8036 92.8742C16.8416 93.1646 16.9512 93.4372 17.1198 93.661C17.2884 93.8847 17.5093 94.0507 17.7575 94.14C18.0056 94.2294 18.271 94.2385 18.5235 94.1664L23.4562 92.7669C23.6753 92.7024 23.9049 92.6991 24.1254 92.7572C24.3458 92.8153 24.5503 92.9331 24.7213 93.1004V93.1004Z" fill="white"/>
<path d="M139.818 77.0421C136.664 85.8282 126.375 114.449 121.1 128.837C120.569 130.285 120.088 131.59 119.67 132.718C119.213 133.956 118.683 135.158 118.083 136.315C117.404 137.634 116.601 138.867 115.689 139.994C112.227 144.215 108.475 144.787 106.479 144.732H106.453C105.979 144.723 105.507 144.665 105.043 144.558L103.319 144.025L90.8804 140.203L47.0665 126.724L59.6884 87.934L60.64 84.9911L67.6561 63.2106C67.8453 62.6253 68.2094 62.1325 68.686 61.8169C69.1625 61.5012 69.7217 61.3824 70.2675 61.4808L120.395 70.6822L125.45 71.6109L138.272 73.9652C138.57 74.0182 138.853 74.1463 139.101 74.3399C139.349 74.5335 139.555 74.7877 139.704 75.0834C139.852 75.3791 139.94 75.7088 139.96 76.048C139.979 76.3871 139.931 76.7269 139.818 77.0421V77.0421Z" fill="#F77C5B"/>
<g style="mix-blend-mode:multiply" opacity="0.2">
<path d="M97.3713 103.927L82.8634 23.1613C82.7681 22.6294 82.5807 22.1239 82.3119 21.6736C82.0432 21.2233 81.6985 20.837 81.2972 20.537C80.896 20.237 80.4462 20.029 79.9735 19.925C79.5009 19.821 79.0148 19.8229 78.5429 19.9307L21.8461 32.8696C20.8929 33.0879 20.0557 33.7236 19.5182 34.6372C18.9806 35.5507 18.7867 36.6673 18.9792 37.7417L33.4871 118.507C33.5827 119.039 33.7703 119.545 34.0394 119.995C34.3084 120.446 34.6536 120.832 35.0551 121.132C35.4565 121.432 35.9065 121.64 36.3793 121.744C36.8521 121.848 37.3384 121.846 37.8106 121.738L94.5074 108.809C94.9799 108.7 95.4289 108.488 95.8287 108.184C96.2284 107.88 96.571 107.49 96.837 107.037C97.1029 106.583 97.2871 106.075 97.3788 105.542C97.4704 105.008 97.4679 104.459 97.3713 103.927V103.927Z" fill="#3A7EC1"/>
</g>
<path d="M41.7537 113.076C40.8291 113.074 39.9334 112.713 39.2181 112.053C38.5027 111.393 38.0118 110.474 37.8279 109.453L23.32 28.6876C23.215 28.1063 23.2127 27.5075 23.3132 26.9252C23.4138 26.343 23.6152 25.7888 23.906 25.2944C24.1968 24.8 24.5712 24.375 25.0078 24.0438C25.4445 23.7126 25.9348 23.4817 26.4507 23.3642L83.1563 10.4384C84.1977 10.2032 85.2793 10.4428 86.1643 11.1048C87.0492 11.7667 87.6652 12.797 87.8771 13.9699L102.385 94.7356C102.594 95.9095 102.381 97.1289 101.794 98.1267C101.207 99.1244 100.292 99.8192 99.2514 100.059L42.5516 112.988C42.289 113.048 42.0216 113.078 41.7537 113.076V113.076ZM83.9658 11.1219C83.7437 11.1229 83.5222 11.1481 83.3043 11.1971L26.6074 24.1294C25.7413 24.325 24.9797 24.9003 24.49 25.7288C24.0003 26.5572 23.8225 27.5709 23.996 28.547L38.5039 109.313C38.6782 110.289 39.1893 111.147 39.9249 111.699C40.6605 112.251 41.5603 112.451 42.4268 112.255L99.1237 99.3231C99.99 99.1267 100.752 98.5508 101.241 97.7218C101.731 96.8929 101.909 95.8788 101.735 94.9023L87.2273 14.1367C87.0754 13.2875 86.6678 12.5235 86.0734 11.9741C85.4791 11.4247 84.7345 11.1236 83.9658 11.1219V11.1219Z" fill="#00D369"/>
<path d="M96.3413 104.257L39.6444 117.186C39.1723 117.294 38.686 117.296 38.2132 117.192C37.7404 117.088 37.2904 116.88 36.8889 116.58C36.4874 116.28 36.1424 115.894 35.8733 115.444C35.6043 114.993 35.4167 114.488 35.3211 113.956L20.8132 33.1899C20.6207 32.1159 20.8146 30.9997 21.3521 30.0867C21.8897 29.1737 22.727 28.5387 23.6799 28.3211L80.3797 15.3888C81.3328 15.1719 82.3232 15.3904 83.1334 15.9962C83.9436 16.602 84.507 17.5455 84.7001 18.6194L99.208 99.385C99.3037 99.9171 99.3055 100.465 99.2132 100.998C99.1209 101.531 98.9364 102.038 98.6702 102.49C98.404 102.943 98.0613 103.332 97.6617 103.635C97.2621 103.938 96.8134 104.149 96.3413 104.257V104.257Z" fill="white"/>
<path d="M45.6846 55.6172C50.5898 51.9348 51.9174 44.4683 48.6497 38.9405C45.3821 33.4127 38.7565 31.9167 33.8513 35.5991C28.946 39.2816 27.6186 46.7479 30.8863 52.2758C34.154 57.8036 40.7794 59.2996 45.6846 55.6172Z" fill="#ECF3FE"/>
<path d="M46.2136 52.044C45.7304 52.6658 45.1784 53.2152 44.5713 53.679C44.2591 53.9222 43.9324 54.1407 43.5934 54.3329C43.2295 54.5394 42.8523 54.7143 42.4648 54.8561C42.1416 54.9779 41.8121 55.0773 41.4781 55.1537C41.1453 55.2277 40.8093 55.2811 40.4714 55.3139C38.9462 55.4536 37.4159 55.1248 36.0435 54.3624C36.235 53.6572 36.5492 53.002 36.9676 52.4351C37.3861 51.8681 37.9006 51.4006 38.4809 51.0598V51.0598C38.6854 50.94 38.8978 50.8383 39.1163 50.7557H39.1424C39.338 50.6805 39.5377 50.6193 39.7401 50.5726L41.4811 50.1769C41.684 50.1295 41.8895 50.0978 42.0963 50.0821H42.1252C42.3561 50.0641 42.5878 50.0641 42.8187 50.0821C43.4718 50.1387 44.1084 50.3414 44.6913 50.6782C45.2741 51.0151 45.7917 51.4794 46.2136 52.044Z" fill="#F37451"/>
<path d="M43.898 40.4099L45.0324 46.7305C45.0922 47.0614 45.0935 47.4023 45.0363 47.7337C44.979 48.0651 44.8645 48.3806 44.6991 48.6621C44.5336 48.9436 44.3205 49.1856 44.072 49.3743C43.8235 49.5629 43.5446 49.6946 43.251 49.7617L37.9816 50.965C37.6878 51.0323 37.3852 51.0336 37.0909 50.9689C36.7966 50.9042 36.5166 50.7748 36.2668 50.588C36.0169 50.4012 35.8023 50.1608 35.635 49.8804C35.4677 49.6 35.3511 49.2852 35.2919 48.954L34.1545 42.6367C33.1447 37.0223 38.0628 36.1656 38.0628 36.1656C38.9251 35.959 39.8176 35.9736 40.6742 36.2081C41.8958 36.5613 43.2046 37.5161 43.7762 39.8802C43.8255 40.0469 43.8632 40.2268 43.898 40.4099Z" fill="#302F2F"/>
<path d="M41.954 49.0881L42.2876 50.9454C42.4298 51.7335 41.8698 52.5346 41.0428 52.7242C40.2158 52.9139 39.4209 52.4234 39.2787 51.6354L38.9449 49.7748C38.8903 49.4524 38.9452 49.1186 39.0988 48.8396C39.1334 48.7716 39.1731 48.707 39.2177 48.6467C39.301 48.5236 39.3986 48.4136 39.5078 48.3197C39.7096 48.1573 39.9394 48.0443 40.1822 47.988C40.4251 47.9317 40.6758 47.9333 40.9181 47.9927C41.0524 48.0269 41.1822 48.0808 41.3041 48.153H41.3214C41.3773 48.1861 41.4307 48.2244 41.481 48.2674C41.727 48.4617 41.8965 48.7559 41.954 49.0881V49.0881Z" fill="#F4B698"/>
<path opacity="0.28" d="M43.3698 42.0186L43.8573 44.7261C44.0179 45.6333 43.9283 46.5742 43.6005 47.4223C43.2726 48.2705 42.7224 48.9852 42.0236 49.4706L42.1512 50.1835C41.7529 50.4588 41.315 50.6536 40.8571 50.759L40.535 50.8309C40.0764 50.9367 39.6049 50.95 39.1423 50.8701L39.0116 50.1573C38.2008 50.0167 37.4477 49.5998 36.8533 48.9627C36.2589 48.3256 35.8516 47.4987 35.6864 46.5932L35.1991 43.8857C34.9978 42.7157 35.2139 41.5035 35.8005 40.5119C36.3871 39.5203 37.297 38.8292 38.3327 38.5885L38.6547 38.5133C39.5411 38.3105 40.4624 38.4547 41.2662 38.922V38.922C41.7999 39.2282 42.2659 39.6654 42.63 40.2012C42.994 40.7371 43.2468 41.3581 43.3698 42.0186V42.0186Z" fill="black"/>
<path d="M43.2454 41.3255L43.8576 44.7261C44.0182 45.622 43.9321 46.5518 43.6109 47.3911V47.3911C43.5382 47.58 43.4549 47.7635 43.3614 47.9404C43.1784 48.2817 42.957 48.595 42.7027 48.8723C42.4952 49.0965 42.2677 49.296 42.0238 49.4674C41.6247 49.7433 41.1856 49.9381 40.7268 50.0429L40.4047 50.1149C39.9472 50.2207 39.4765 50.234 39.0149 50.1541C38.2035 50.0141 37.4497 49.5975 36.8547 48.9604C36.2597 48.3232 35.8521 47.496 35.6867 46.59L35.0773 43.2089C35.0773 43.1599 35.0629 43.1141 35.0542 43.0651C34.9591 42.4452 34.9804 41.8097 35.1169 41.1997C35.2533 40.5897 35.5018 40.0188 35.8464 39.5238C35.9526 39.3691 36.0668 39.2217 36.1887 39.0823C36.7413 38.4664 37.4409 38.045 38.2023 37.8692L38.5245 37.7973C39.1736 37.6513 39.8445 37.6883 40.4778 37.9051C41.1111 38.1219 41.687 38.5117 42.1543 39.0398C42.2858 39.186 42.4071 39.3434 42.517 39.5107C42.88 40.0447 43.1292 40.6656 43.2454 41.3255V41.3255Z" fill="#F4B698"/>
<path d="M45.1399 42.7577C45.1818 42.9904 45.1827 43.2302 45.1424 43.4633C45.1021 43.6964 45.0214 43.9183 44.905 44.1162C44.7886 44.3142 44.6387 44.4844 44.4639 44.6171C44.2891 44.7498 44.093 44.8424 43.8864 44.8896L43.248 41.3451C43.4597 41.2977 43.6776 41.2977 43.8893 41.3451V41.3451C44.1977 41.4163 44.4808 41.5882 44.7032 41.8394C44.9256 42.0906 45.0774 42.4099 45.1399 42.7577V42.7577Z" fill="#F4B698"/>
<path d="M44.539 42.895C44.5894 43.1841 44.5363 43.484 44.3911 43.7291C44.2459 43.9741 44.0206 44.1445 43.7643 44.2029L43.3696 42.0088C43.498 41.9803 43.6302 41.9806 43.7585 42.0097C43.8868 42.0389 44.0088 42.0962 44.1174 42.1785C44.226 42.2608 44.3192 42.3665 44.3915 42.4894C44.4638 42.6124 44.514 42.7502 44.539 42.895V42.895Z" fill="#E29586"/>
<path d="M42.824 50.0691L42.4729 54.8594C42.1498 54.9812 41.8204 55.0806 41.4864 55.157C41.1537 55.231 40.8175 55.2845 40.4796 55.3172L38.4891 51.0664L39.3219 50.8767L39.3566 50.9029L40.941 52.1324L41.9796 50.3045L42.0029 50.262L42.824 50.0691Z" fill="#FCE2DA"/>
<path d="M35.077 43.2122L35.7154 46.7567C35.3281 46.8477 34.9247 46.7742 34.5826 46.5503C34.2404 46.3265 33.9837 45.9681 33.8618 45.544C33.7398 45.1199 33.7611 44.6599 33.9217 44.2524C34.0823 43.845 34.3707 43.5188 34.7317 43.3364L34.8043 43.3037H34.8421C34.9187 43.2677 34.997 43.2372 35.077 43.2122V43.2122Z" fill="#F4B698"/>
<path d="M34.4242 45.2068C34.476 45.4956 34.6272 45.7496 34.8447 45.9131C35.0621 46.0767 35.3282 46.1367 35.5847 46.0798L35.1902 43.8857C34.9335 43.947 34.7089 44.1204 34.5653 44.368C34.4218 44.6156 34.3709 44.9172 34.4242 45.2068V45.2068Z" fill="#E29586"/>
<path d="M44.5711 53.6921C44.259 53.9354 43.9322 54.1539 43.5933 54.3461L43.5208 53.9406L44.5711 53.6921Z" fill="#A34A32"/>
<path opacity="0.2" d="M40.9326 52.1291L42.2701 52.7929L42.8243 50.0691L40.9326 52.1291Z" fill="#363636"/>
<path d="M42.8243 50.0691L42.2324 52.7111L40.9326 52.1291L41.9946 50.2587L42.1338 50.0167L42.8243 50.0691Z" fill="#EEEEEE"/>
<path opacity="0.2" d="M38.4808 51.0598L39.9229 53.3291L40.9326 52.1291L38.4808 51.0598Z" fill="#363636"/>
<path d="M40.9326 52.1291L39.9403 53.2343L38.4808 51.0598L39.1017 50.7067L39.3107 50.8702L40.9326 52.1291Z" fill="#EEEEEE"/>
<path d="M43.8749 40.2922C40.9907 41.1979 40.7324 38.1504 40.7759 36.6201C41.9946 36.9733 43.3062 37.9346 43.8749 40.2922Z" fill="#302F2F"/>
<path d="M41.9134 38.0391C41.8467 38.2419 41.2054 40.521 39.3861 40.9362C37.5668 41.3515 34.9061 43.2415 35.1846 45.2982C35.4632 47.355 31.7898 39.5923 37.1925 37.686C42.5953 35.7797 41.9134 38.0391 41.9134 38.0391Z" fill="#302F2F"/>
<path d="M55.8467 46.7337L53.2701 32.3953L80.4029 26.2087L82.9765 40.5471L55.8467 46.7337ZM54.779 33.5202L56.8448 45.0366L81.4706 39.419L79.4018 27.9058L54.779 33.5202Z" fill="#ECF3FE"/>
<path d="M59.3519 53.2735C58.8531 53.3846 58.3356 53.2693 57.9117 52.9528C57.4879 52.6362 57.1922 52.144 57.0887 51.583C56.9894 51.0212 57.0914 50.438 57.3725 49.9607C57.6536 49.4834 58.0909 49.1509 58.5888 49.0358C59.0874 48.923 59.6054 49.0376 60.0292 49.3545C60.4529 49.6714 60.7478 50.1647 60.8492 50.7263C60.9494 51.2877 60.848 51.871 60.5674 52.3484C60.2868 52.8258 59.8497 53.1584 59.3519 53.2735V53.2735Z" fill="#00D369"/>
<path d="M65.0155 51.9918C64.5173 52.1047 63.9999 51.9905 63.5762 51.6743C63.1526 51.358 62.8573 50.8655 62.7552 50.3045V50.3045C62.6559 49.7427 62.7579 49.1595 63.039 48.6822C63.3201 48.2049 63.7573 47.8724 64.2553 47.7573V47.7573C64.7534 47.6444 65.2711 47.7586 65.6947 48.0749C66.1183 48.3911 66.4135 48.8836 66.5156 49.4446V49.4446C66.6157 50.0064 66.514 50.5901 66.2328 51.0676C65.9516 51.5451 65.5138 51.8775 65.0155 51.9918V51.9918Z" fill="#52D1BD"/>
<path d="M70.6825 50.7001C70.1839 50.812 69.6664 50.697 69.2428 50.3802C68.8193 50.0635 68.5242 49.5707 68.4221 49.0096V49.0096C68.3228 48.4478 68.4248 47.8645 68.7059 47.3873C68.987 46.91 69.4243 46.5775 69.9222 46.4624V46.4624C70.4206 46.3513 70.9378 46.4667 71.3611 46.7833C71.7844 47.0999 72.0797 47.5922 72.1826 48.1529V48.1529C72.2827 48.7148 72.181 49.2984 71.8998 49.7759C71.6186 50.2534 71.1808 50.5858 70.6825 50.7001Z" fill="#52D1BD"/>
<path d="M76.3493 49.4084C75.8521 49.5164 75.3372 49.3992 74.9162 49.0821C74.4952 48.765 74.2021 48.2737 74.1006 47.7147C74.0013 47.1529 74.1033 46.5696 74.3843 46.0923C74.6654 45.6151 75.1027 45.2825 75.6007 45.1674V45.1674C76.0991 45.0564 76.6164 45.1718 77.0397 45.4884C77.463 45.805 77.7582 46.2972 77.861 46.8579V46.8579C77.9601 47.422 77.8565 48.0073 77.5731 48.4855C77.2897 48.9636 76.8496 49.2955 76.3493 49.4084Z" fill="#52D1BD"/>
<path d="M82.016 48.117C81.5174 48.2289 80.9999 48.1139 80.5763 47.7972C80.1528 47.4804 79.8579 46.9876 79.7557 46.4265C79.6556 45.865 79.7568 45.2818 80.0374 44.8044C80.318 44.3269 80.7551 43.9943 81.2529 43.8792C81.7517 43.7673 82.2698 43.8822 82.6938 44.1989C83.1178 44.5156 83.4134 45.0084 83.5162 45.5698V45.5698C83.6147 46.1315 83.5122 46.7143 83.2313 47.1913C82.9503 47.6684 82.5135 48.0011 82.016 48.117Z" fill="#ECF3FE"/>
<path d="M59.0125 63.3447L34.732 68.8806C34.305 68.978 33.8611 68.8806 33.4977 68.6096C33.1343 68.3387 32.8812 67.9163 32.7939 67.4353V67.4353C32.7075 66.9536 32.7942 66.4529 33.0353 66.0433C33.2763 65.6338 33.6518 65.3488 34.0792 65.251L58.3625 59.7119C58.7895 59.6155 59.2332 59.7138 59.5959 59.9854C59.9587 60.2569 60.2112 60.6795 60.298 61.1604V61.1604C60.3844 61.6422 60.2974 62.1428 60.0564 62.5524C59.8154 62.962 59.4399 63.247 59.0125 63.3447V63.3447Z" fill="#ECF3FE"/>
<path d="M85.4165 65.5322L43.3697 75.1227C42.9422 75.2201 42.498 75.1222 42.1346 74.8506C41.7711 74.579 41.5183 74.1558 41.4316 73.6742V73.6742C41.3452 73.1925 41.4319 72.6918 41.673 72.2822C41.914 71.8726 42.2895 71.5877 42.7169 71.4899L84.7637 61.8994C85.1911 61.8021 85.6354 61.8999 85.9988 62.1716C86.3623 62.4432 86.6152 62.8663 86.702 63.348V63.348C86.7884 63.8297 86.7014 64.3304 86.4604 64.7399C86.2194 65.1495 85.8439 65.4345 85.4165 65.5322V65.5322Z" fill="#ECF3FE"/>
<path d="M86.8383 73.4192L37.5637 84.6643C37.1362 84.7616 36.692 84.6637 36.3286 84.3921C35.9651 84.1205 35.7121 83.6973 35.6254 83.2157V83.2157C35.5827 82.9774 35.5821 82.7319 35.6236 82.4933C35.665 82.2547 35.7477 82.0276 35.8671 81.8251C35.9865 81.6225 36.1401 81.4485 36.3192 81.3129C36.4983 81.1772 36.6993 81.0827 36.9109 81.0347L86.1884 69.7962C86.3999 69.748 86.6176 69.7473 86.8293 69.794C87.0411 69.8408 87.2427 69.9341 87.4224 70.0686C87.6021 70.2031 87.7566 70.3762 87.8769 70.578C87.9972 70.7798 88.0811 71.0064 88.1237 71.2448C88.2083 71.7251 88.1205 72.2237 87.8796 72.6312C87.6387 73.0388 87.2642 73.3222 86.8383 73.4192V73.4192Z" fill="#ECF3FE"/>
<path d="M88.2542 81.3059L38.9913 92.5444C38.7799 92.5926 38.562 92.5933 38.3502 92.5466C38.1385 92.4999 37.937 92.4066 37.7573 92.2721C37.5776 92.1375 37.4231 91.9644 37.3028 91.7626C37.1825 91.5608 37.0986 91.3342 37.056 91.0959V91.0959C36.9696 90.615 37.0561 90.1152 37.2966 89.7062C37.5371 89.2972 37.9118 89.0126 38.3385 88.9149L87.616 77.6763C87.8275 77.6282 88.0453 77.6274 88.2571 77.6742C88.4688 77.7209 88.6703 77.8142 88.85 77.9487C89.0297 78.0832 89.1842 78.2564 89.3045 78.4582C89.4248 78.66 89.5087 78.8865 89.5513 79.1249C89.5939 79.3641 89.5941 79.6105 89.5519 79.8498C89.5097 80.0892 89.4259 80.3167 89.3054 80.5194C89.1848 80.7221 89.03 80.896 88.8496 81.031C88.6692 81.1659 88.4668 81.2594 88.2542 81.3059Z" fill="#ECF3FE"/>
<path d="M80.2462 91.3447L40.3958 100.432C39.9691 100.529 39.5255 100.431 39.1626 100.16C38.7997 99.8894 38.5472 99.4671 38.4605 98.9863V98.9863C38.3741 98.5046 38.461 98.0039 38.702 97.5943C38.9431 97.1847 39.3185 96.8998 39.7459 96.802L79.5933 87.7151C80.0208 87.6177 80.465 87.7157 80.8285 87.9873C81.1919 88.2589 81.4447 88.682 81.5315 89.1637V89.1637C81.5742 89.402 81.5749 89.6475 81.5335 89.8861C81.492 90.1247 81.4091 90.3518 81.2898 90.5543C81.1704 90.7568 81.0169 90.9309 80.8378 91.0665C80.6587 91.2021 80.4577 91.2966 80.2462 91.3447V91.3447Z" fill="#ECF3FE"/>
<path d="M91.0892 97.0897L41.8145 108.328C41.3871 108.426 40.9428 108.328 40.5794 108.056C40.2159 107.784 39.963 107.361 39.8762 106.88V106.88C39.7898 106.398 39.8768 105.897 40.1178 105.488C40.3588 105.078 40.7343 104.793 41.1617 104.695L90.4363 93.4569C90.8638 93.3596 91.3082 93.4574 91.6716 93.7291C92.0351 94.0007 92.2879 94.4238 92.3746 94.9054V94.9054C92.461 95.3872 92.3741 95.8879 92.1331 96.2975C91.892 96.707 91.5166 96.992 91.0892 97.0897V97.0897Z" fill="#ECF3FE"/>
<g style="mix-blend-mode:multiply" opacity="0.2">
<path d="M167.735 53.4501L116.446 23.2987C115.586 22.7963 114.583 22.6986 113.659 23.0271C112.734 23.3556 111.963 24.0834 111.514 25.0513L77.6958 98.1001C77.247 99.0729 77.159 100.207 77.4511 101.252C77.7432 102.298 78.3915 103.171 79.2538 103.678L130.539 133.83C131.402 134.336 132.408 134.435 133.336 134.106C134.265 133.776 135.039 133.046 135.489 132.074L169.304 59.0252C169.527 58.5432 169.663 58.0164 169.704 57.475C169.746 56.9337 169.692 56.3884 169.546 55.8705C169.4 55.3526 169.165 54.8722 168.854 54.4569C168.544 54.0415 168.163 53.6994 167.735 53.4501V53.4501Z" fill="#3A7EC1"/>
</g>
<path d="M163.608 40.0077C164.032 40.1283 164.431 40.342 164.782 40.6365C165.132 40.9309 165.428 41.3005 165.652 41.7239C165.875 42.1472 166.023 42.6162 166.085 43.1039C166.148 43.5915 166.125 44.0884 166.017 44.5659L165.146 48.4505L165.767 48.8167L166.678 44.7522C166.808 44.1773 166.835 43.5792 166.759 42.9923C166.683 42.4053 166.506 41.841 166.236 41.3314C165.967 40.8219 165.611 40.3772 165.189 40.0227C164.767 39.6682 164.287 39.4109 163.777 39.2654L136.041 31.3425L138.652 32.8794L163.608 40.0077Z" fill="#00D369"/>
<path d="M103.493 26.7026C103.599 26.2243 103.788 25.7743 104.049 25.3785C104.309 24.9828 104.637 24.6492 105.013 24.3969C105.389 24.1446 105.805 23.9786 106.238 23.9085C106.671 23.8384 107.112 23.8657 107.535 23.9886L109.044 24.4202L109.369 23.7205L107.704 23.2463C107.193 23.1007 106.663 23.0697 106.142 23.1552C105.621 23.2407 105.12 23.441 104.668 23.7446C104.216 24.0483 103.821 24.4493 103.507 24.9249C103.192 25.4005 102.964 25.9412 102.835 26.5162L97.8934 48.542L99.2572 45.5991L103.493 26.7026Z" fill="#00D369"/>
<path d="M87.935 111.124C87.0798 110.879 86.3457 110.262 85.8941 109.408C85.4425 108.554 85.3103 107.533 85.5266 106.569L86.0547 104.211L85.4366 103.845L84.8563 106.379C84.5975 107.541 84.7577 108.771 85.3014 109.799C85.8452 110.828 86.7284 111.573 87.7579 111.869L109.769 118.157L107.158 116.617L87.935 111.124Z" fill="#444444"/>
<path d="M148.05 124.432C147.833 125.396 147.285 126.222 146.527 126.731C145.769 127.24 144.864 127.389 144.008 127.146L136.061 124.857L135.739 125.557L143.84 127.872C144.161 127.964 144.492 128.01 144.824 128.01C145.715 128.009 146.581 127.673 147.284 127.056C147.988 126.439 148.489 125.576 148.709 124.602L160.556 71.9575L159.192 74.9004L148.05 124.432Z" fill="#00D369"/>
<path d="M76.7873 94.1011C76.5642 94.5822 76.4276 95.1081 76.385 95.6487C76.3425 96.1894 76.395 96.7342 76.5395 97.252C76.6839 97.7698 76.9175 98.2504 77.2269 98.6663C77.5363 99.0823 77.9154 99.4255 78.3426 99.6762L85.4368 103.845L97.8933 48.5421L76.7873 94.1011Z" fill="#F4B545"/>
<path d="M115.552 19.2964C114.692 18.794 113.689 18.6963 112.765 19.0248C111.84 19.3532 111.069 20.0811 110.62 21.049L109.384 23.7205L136.055 31.3426L115.552 19.2964Z" fill="#3A7EC1"/>
<path d="M129.631 129.828C130.494 130.334 131.5 130.435 132.428 130.106C133.356 129.777 134.131 129.047 134.581 128.075L135.742 125.574L109.79 118.157L129.631 129.828Z" fill="#3A7EC1"/>
<path d="M166.841 49.4479L165.764 48.8168L160.568 71.9609L168.402 55.0262C168.851 54.0532 168.939 52.9189 168.646 51.8727C168.354 50.8266 167.704 49.9544 166.841 49.4479V49.4479Z" fill="#3A7EC1"/>
<path d="M165.143 48.4505L159.192 74.9103L136.061 124.877L107.164 116.617L86.0579 104.212L99.2426 45.5927L107.95 26.7811L108.284 26.065L109.044 24.4203L127.861 29.7959H127.867L136.026 32.1274L136.035 32.1306L138.658 32.8794L165.143 48.4505Z" fill="#3FA9F5"/>
<path d="M165.143 48.4504L159.192 74.9102L160.556 71.9608L165.764 48.8167L165.143 48.4504Z" fill="#00D369"/>
<path d="M99.2427 45.5925L97.8791 48.542L85.437 103.845L86.0552 104.211L99.2427 45.5925Z" fill="#F4B545"/>
<path d="M107.164 116.617L109.778 118.157L135.739 125.573L136.061 124.874L107.164 116.617Z" fill="white"/>
<path d="M138.025 32.5066L136.035 32.1305L136.026 32.1273L107.95 26.781L108.284 26.0649L127.861 29.7959H127.867L136.067 31.3588L138.025 32.5066Z" fill="white"/>
<path d="M154.825 70.8196L130.284 56.3929L136.287 43.4214L160.829 57.8513L154.825 70.8196ZM132.007 55.7782L154.283 68.874L159.117 58.4595L136.841 45.3637L132.007 55.7782Z" fill="white"/>
<path d="M129.338 63.9824C128.888 63.7151 128.551 63.2587 128.399 62.7125C128.247 62.1662 128.292 61.5743 128.525 61.0656V61.0656C128.762 60.5587 129.167 60.1778 129.652 60.0062C130.137 59.8347 130.662 59.8864 131.114 60.1501V60.1501C131.563 60.416 131.901 60.8718 132.053 61.4178C132.206 61.9638 132.16 62.5555 131.926 63.0635V63.0635C131.69 63.5711 131.285 63.9527 130.8 64.1248C130.315 64.297 129.789 64.2458 129.338 63.9824V63.9824Z" fill="#21365F"/>
<path d="M134.453 67.0069C134.003 66.741 133.664 66.2846 133.512 65.7378C133.36 65.1911 133.406 64.5986 133.641 64.0902V64.0902C133.877 63.5835 134.281 63.2027 134.766 63.0311C135.25 62.8595 135.775 62.9111 136.226 63.1747V63.1747C136.677 63.4407 137.015 63.8969 137.168 64.4434C137.321 64.99 137.275 65.5825 137.042 66.0914V66.0914C136.805 66.5984 136.4 66.9792 135.915 67.1508C135.43 67.3223 134.905 67.2706 134.453 67.0069V67.0069Z" fill="#21365F"/>
<path d="M139.589 70.0086C139.14 69.7414 138.802 69.2849 138.65 68.7387C138.498 68.1924 138.544 67.6006 138.777 67.0919V67.0919C139.013 66.5849 139.418 66.204 139.903 66.0325C140.388 65.8609 140.914 65.9127 141.365 66.1763V66.1763C141.815 66.4423 142.153 66.8981 142.305 67.4441C142.457 67.9901 142.411 68.5817 142.178 69.0898V69.0898C141.941 69.5973 141.537 69.9789 141.052 70.151C140.567 70.3232 140.041 70.272 139.589 70.0086V70.0086Z" fill="#21365F"/>
<path d="M142.766 91.9855L104.732 69.6229C104.346 69.3957 104.055 69.0051 103.924 68.5368C103.793 68.0684 103.832 67.5606 104.033 67.1247V67.1247C104.133 66.9086 104.27 66.7169 104.435 66.5604C104.601 66.404 104.792 66.2859 104.999 66.213C105.205 66.1401 105.422 66.1138 105.637 66.1356C105.852 66.1574 106.062 66.2268 106.253 66.3399L144.287 88.6992C144.478 88.8117 144.648 88.9655 144.787 89.1519C144.925 89.3383 145.03 89.5537 145.094 89.7857C145.159 90.0177 145.183 90.2618 145.163 90.504C145.144 90.7463 145.083 90.9819 144.983 91.1974C144.884 91.4136 144.748 91.6056 144.583 91.7624C144.417 91.9191 144.226 92.0375 144.02 92.1107C143.814 92.184 143.597 92.2106 143.382 92.1891C143.167 92.1676 142.958 92.0984 142.766 91.9855V91.9855Z" fill="white"/>
<path d="M139.465 99.1203L94.8906 72.9189C94.6989 72.8065 94.5288 72.6525 94.3899 72.4658C94.2511 72.2792 94.1463 72.0634 94.0816 71.8311C94.0169 71.5987 93.9936 71.3542 94.0129 71.1116C94.0322 70.869 94.0939 70.6331 94.1943 70.4174V70.4174C94.294 70.2018 94.4305 70.0104 94.5959 69.8543C94.7614 69.6981 94.9525 69.5802 95.1584 69.5073C95.3643 69.4344 95.5809 69.408 95.7958 69.4295C96.0108 69.451 96.2199 69.52 96.4111 69.6327L140.985 95.8374C141.176 95.9498 141.346 96.1036 141.485 96.29C141.623 96.4764 141.728 96.6918 141.793 96.9238C141.857 97.1558 141.881 97.3999 141.862 97.6421C141.843 97.8844 141.781 98.12 141.681 98.3356C141.582 98.5515 141.446 98.7432 141.28 98.8996C141.115 99.056 140.924 99.174 140.718 99.2469C140.512 99.3199 140.295 99.3462 140.08 99.3245C139.865 99.3027 139.656 99.2333 139.465 99.1203V99.1203Z" fill="white"/>
<path d="M136.159 106.245L91.5852 80.0406C91.1991 79.8123 90.9091 79.4209 90.7786 78.952C90.6481 78.4832 90.6877 77.9752 90.8888 77.5392V77.5392C91.0909 77.1043 91.4378 76.7775 91.8534 76.6304C92.2689 76.4833 92.7193 76.5279 93.1057 76.7544L137.68 102.975C138.066 103.203 138.357 103.593 138.488 104.062C138.619 104.53 138.58 105.038 138.379 105.474V105.474C138.174 105.906 137.826 106.231 137.41 106.375C136.995 106.52 136.545 106.473 136.159 106.245V106.245Z" fill="white"/>
<path d="M124.33 108.381L88.2835 87.1885C88.0922 87.0761 87.9224 86.9223 87.7838 86.7359C87.6452 86.5494 87.5406 86.334 87.476 86.102C87.4113 85.87 87.3879 85.626 87.407 85.3837C87.426 85.1415 87.4872 84.9059 87.5872 84.6903V84.6903C87.7887 84.2549 88.1354 83.9274 88.551 83.7796C88.9666 83.6319 89.4172 83.676 89.804 83.9023L125.85 105.094C126.042 105.206 126.212 105.36 126.351 105.546C126.49 105.733 126.594 105.948 126.659 106.18C126.724 106.412 126.747 106.657 126.728 106.899C126.709 107.141 126.647 107.377 126.547 107.592V107.592C126.447 107.808 126.311 108 126.146 108.157C125.98 108.313 125.789 108.431 125.583 108.504C125.378 108.578 125.161 108.604 124.946 108.583C124.731 108.562 124.521 108.493 124.33 108.381V108.381Z" fill="white"/>
<path d="M129.555 120.528L84.9813 94.3234C84.7896 94.2113 84.6195 94.0577 84.4807 93.8713C84.3419 93.6849 84.2373 93.4695 84.1726 93.2374C84.1079 93.0053 84.0844 92.761 84.1037 92.5187C84.123 92.2763 84.1846 92.0407 84.2849 91.8253V91.8253C84.3844 91.6093 84.5207 91.4176 84.686 91.2611C84.8513 91.1046 85.0424 90.9864 85.2483 90.9132C85.4542 90.84 85.6708 90.8133 85.8859 90.8346C86.101 90.8559 86.3103 90.9247 86.5018 91.0372L131.076 117.242C131.462 117.47 131.753 117.861 131.884 118.33C132.014 118.799 131.974 119.308 131.772 119.743V119.743C131.57 120.178 131.223 120.505 130.808 120.652C130.392 120.799 129.942 120.755 129.555 120.528V120.528Z" fill="white"/>
<path d="M121.627 55.4035C127.228 53.4111 130.334 46.6793 128.566 40.3677C126.798 34.0561 120.825 30.5548 115.224 32.5473C109.623 34.5397 106.516 41.2714 108.284 47.583C110.053 53.8946 116.026 57.396 121.627 55.4035Z" fill="white"/>
<path d="M113.878 53.6004C113.825 53.5711 113.774 53.5384 113.724 53.5024V53.5024C112.182 52.5318 110.925 51.0734 110.109 49.3071C110.669 48.8511 111.307 48.5304 111.982 48.3649C112.657 48.1995 113.355 48.193 114.032 48.3458V48.3458C114.261 48.3962 114.487 48.4684 114.705 48.5616C114.912 48.6446 115.114 48.7429 115.309 48.8559L116.907 49.7943C117.101 49.9078 117.289 50.0356 117.468 50.1769V50.1769C117.659 50.3271 117.841 50.4932 118.01 50.6739C118.498 51.1961 118.888 51.8242 119.155 52.5205C119.422 53.2167 119.562 53.9667 119.565 54.7253C117.849 55.0145 116.095 54.7445 114.511 53.9471C114.434 53.9132 114.36 53.8739 114.287 53.8293L114.253 53.813C114.236 53.8063 114.22 53.7963 114.206 53.7836C114.191 53.7793 114.177 53.7715 114.166 53.7607C114.11 53.7345 114.052 53.7018 113.994 53.6691L113.954 53.6462L113.904 53.6168H113.89L113.878 53.6004Z" fill="#F4B545"/>
<path d="M115.161 39.8278C115.161 39.8278 117.482 33.4418 120.482 35.0538C123.482 36.6659 125.09 36.5285 125.67 37.225C126.251 37.9215 124.234 43.7647 123.549 44.7457C122.864 45.7267 115.161 39.8278 115.161 39.8278Z" fill="#F4E86E"/>
<path d="M117.883 49.2746L117.096 50.9781C116.763 51.7008 115.869 51.9297 115.109 51.485C114.349 51.0403 114 50.0822 114.334 49.3596L115.12 47.656C115.261 47.3624 115.494 47.1386 115.773 47.0282C115.971 46.9478 116.181 46.9133 116.391 46.9268C116.642 46.9442 116.886 47.0211 117.108 47.1524C117.333 47.2806 117.531 47.4624 117.688 47.6854C117.777 47.8071 117.849 47.9426 117.903 48.0876V48.1105C117.927 48.1764 117.946 48.2441 117.961 48.3132C118.045 48.6332 118.017 48.9771 117.883 49.2746V49.2746Z" fill="#F4CB95"/>
<path d="M122.992 44.7196L121.846 47.2014C121.461 48.0329 120.859 48.7112 120.121 49.1445C119.383 49.5779 118.545 49.7454 117.72 49.6244L117.43 50.2783C116.96 50.2106 116.504 50.0501 116.083 49.8042L115.793 49.6309C115.372 49.381 114.994 49.0489 114.676 48.6499L114.966 47.996C114.405 47.3044 114.045 46.4352 113.936 45.506C113.827 44.5768 113.974 43.6323 114.357 42.8001L115.503 40.3183C116.003 39.249 116.858 38.446 117.882 38.0845C118.905 37.7231 120.014 37.8326 120.967 38.3891L121.257 38.5624C122.07 39.0394 122.715 39.8145 123.085 40.7597V40.7597C123.333 41.3855 123.454 42.0662 123.438 42.7516C123.422 43.4369 123.27 44.1095 122.992 44.7196V44.7196Z" fill="#D8A471"/>
<path d="M123.282 44.0851L121.831 47.2013C121.485 47.9567 120.957 48.5868 120.308 49.0193C120.209 49.0847 120.108 49.1436 120.018 49.1992C119.894 49.2672 119.767 49.3272 119.638 49.379C119.109 49.5979 118.546 49.6905 117.984 49.6511C117.422 49.6117 116.874 49.4411 116.373 49.1501L116.083 48.9768C115.127 48.4188 114.407 47.4558 114.08 46.2994C113.754 45.1431 113.848 43.8879 114.342 42.8099L115.837 39.576C116.113 39.0197 116.489 38.5347 116.941 38.1518C117.394 37.7689 117.912 37.4966 118.463 37.3525C118.633 37.3066 118.805 37.2749 118.979 37.2576C119.764 37.1646 120.555 37.3353 121.254 37.7481L121.544 37.9181C122.092 38.2368 122.566 38.696 122.928 39.2588C123.001 39.3632 123.068 39.4724 123.128 39.5858C123.205 39.7242 123.275 39.8672 123.337 40.0141C123.607 40.6515 123.743 41.3506 123.733 42.0569C123.724 42.7631 123.569 43.4573 123.282 44.0851V44.0851Z" fill="#F4CB95"/>
<path d="M123.97 46.5703C123.872 46.7841 123.737 46.974 123.573 47.129C123.41 47.2841 123.221 47.4013 123.017 47.4739C122.813 47.5464 122.599 47.573 122.386 47.5521C122.173 47.5311 121.966 47.4631 121.776 47.3518L123.276 44.1016C123.47 44.2144 123.642 44.3701 123.781 44.5593C123.984 44.8368 124.11 45.1754 124.144 45.5329C124.177 45.8904 124.117 46.2512 123.97 46.5703V46.5703Z" fill="#EDC28E"/>
<path d="M123.427 46.2499C123.367 46.3821 123.283 46.4994 123.182 46.5953C123.081 46.6912 122.965 46.7637 122.839 46.8086C122.713 46.8536 122.58 46.8701 122.449 46.8573C122.317 46.8444 122.189 46.8025 122.072 46.7338L123.001 44.7196C123.118 44.7882 123.222 44.8823 123.307 44.9965C123.392 45.1107 123.457 45.2426 123.496 45.3848C123.536 45.527 123.55 45.6767 123.538 45.8251C123.526 45.9736 123.489 46.1179 123.427 46.2499V46.2499Z" fill="#D8A471"/>
<path d="M115.785 39.7067L114.285 42.9569C113.929 42.75 113.653 42.4023 113.511 41.9807C113.369 41.559 113.37 41.093 113.514 40.672C113.657 40.251 113.934 39.9047 114.291 39.6994C114.647 39.4941 115.058 39.4443 115.445 39.5596L115.521 39.5857H115.558C115.636 39.62 115.712 39.6604 115.785 39.7067V39.7067Z" fill="#EDC28E"/>
<path d="M114.142 40.8088C114.081 40.941 114.044 41.0855 114.033 41.234C114.021 41.3825 114.036 41.532 114.076 41.6741C114.116 41.8163 114.18 41.9481 114.265 42.0622C114.35 42.1763 114.454 42.2703 114.572 42.339L115.5 40.3281C115.383 40.2588 115.255 40.2162 115.123 40.2029C114.992 40.1896 114.859 40.2057 114.733 40.2504C114.607 40.295 114.489 40.3673 114.388 40.4632C114.287 40.559 114.203 40.6764 114.142 40.8088V40.8088Z" fill="#D8A471"/>
<path d="M123.282 44.0852L121.831 47.2014C121.485 47.9568 120.957 48.587 120.308 49.0195C120.209 49.0849 120.108 49.1437 120.018 49.1993C123.448 43.7386 122.966 42.3718 121.721 41.659C120.386 40.884 120.935 38.86 120.935 38.86L123.14 39.5924C123.216 39.7308 123.286 39.8738 123.349 40.0208C123.616 40.6583 123.749 41.3568 123.738 42.0618C123.726 42.7668 123.57 43.4593 123.282 44.0852V44.0852Z" fill="#E5B67F"/>
<path d="M116.565 52.129L116.606 53.0086L114.514 53.9471C114.438 53.9111 114.366 53.8719 114.29 53.8261L114.255 53.8097C114.239 53.803 114.223 53.7931 114.209 53.7803L116.591 51.5339L116.986 51.1644L117.026 51.1284L117.415 50.2848L117.505 52.1977L116.609 52.1388L116.565 52.129Z" fill="#CC8E2B"/>
<path d="M113.953 53.6429L113.994 53.6658C114.052 53.6985 114.11 53.7312 114.165 53.7574C114.177 53.7682 114.191 53.776 114.206 53.7803C114.22 53.793 114.235 53.803 114.252 53.8097L114.58 53.5906L116.321 52.4036L116.562 51.8837L117.061 51.717L117.221 50.9126C117.173 50.9508 117.122 50.9847 117.07 51.0139C116.602 51.3158 116.076 51.4863 115.538 51.511C115.394 51.511 115.251 51.4935 115.111 51.4586C114.967 51.3065 114.842 51.1313 114.743 50.9387C114.501 50.4651 114.356 49.9367 114.319 49.3921V49.3921C114.316 49.3257 114.316 49.2591 114.319 49.1926L113.826 49.8008L113.991 50.3567L113.753 50.8799L113.875 52.8418L113.919 53.5906L113.953 53.6429Z" fill="white"/>
<path d="M116.614 52.1323V53.0087L114.293 53.8261L114.258 53.8098C114.242 53.8031 114.226 53.7931 114.212 53.7803C114.197 53.7761 114.183 53.7682 114.171 53.7574L116.461 51.6026L117.073 51.0271L117.462 50.1868L117.502 52.2043L116.606 52.0342L116.614 52.1323Z" fill="#E09F36"/>
<path d="M113.878 53.6005C113.825 53.5712 113.774 53.5385 113.725 53.5024V53.5024L113.144 50.9912L113.806 50.5203L113.777 50.4778L113.22 49.6832L114.671 48.6696L114.334 49.4053L114.285 49.5099V49.559L114.238 50.1508L113.971 53.6496L113.922 53.6201H113.907L113.878 53.6005Z" fill="#CC8E2B"/>
<path d="M113.878 53.5939L113.141 50.9813L113.774 50.4679L113.852 50.4025L113.217 49.6733L114.705 48.5551L114.656 48.6597L114.319 49.3954V49.4019L114.25 50.3077V50.311L113.995 53.6658L113.954 53.6429L113.905 53.6135L113.893 53.6037L113.878 53.5939Z" fill="#E09F36"/>
<path d="M123.668 39.1543C123.668 39.1543 122.151 37.4866 121.803 37.2839C121.295 36.9936 120.758 36.774 120.204 36.6299C119.426 36.4141 117.996 36.6495 117.996 36.6495L117.607 36.9536C117.477 36.9938 117.353 37.0543 117.238 37.1335C117.215 37.1694 117.131 37.2839 117.056 37.3852L116.734 37.637L116.902 37.6632L116.841 38.049C117.287 37.8084 117.774 37.6748 118.268 37.6566C119.2 37.8005 120.3 38.3401 120.761 39.3995C121.602 41.3254 124.446 42.156 124.446 42.156L123.668 39.1543Z" fill="#F4E86E"/>
<path d="M144.716 73.0202C144.266 72.7542 143.927 72.298 143.774 71.7514C143.622 71.2049 143.667 70.6123 143.901 70.1034V70.1034C144.138 69.5971 144.543 69.2168 145.028 69.0453C145.512 68.8739 146.038 68.9251 146.489 69.1879V69.1879C146.939 69.4539 147.278 69.9101 147.431 70.4567C147.583 71.0032 147.538 71.5957 147.304 72.1046V72.1046C147.068 72.6116 146.663 72.9924 146.178 73.164C145.693 73.3355 145.167 73.2839 144.716 73.0202V73.0202Z" fill="#21365F"/>
<path d="M149.832 76.035C149.382 75.7678 149.045 75.3114 148.893 74.7651C148.74 74.2188 148.786 73.627 149.019 73.1183V73.1183C149.255 72.6107 149.66 72.2292 150.145 72.0576C150.63 71.886 151.156 71.9382 151.607 72.2027V72.2027C152.057 72.4693 152.395 72.9257 152.547 73.4722C152.7 74.0187 152.654 74.6109 152.42 75.1194V75.1194C152.183 75.6264 151.778 76.0073 151.293 76.1788C150.808 76.3504 150.283 76.2987 149.832 76.035V76.035Z" fill="white"/>
<g style="mix-blend-mode:multiply" opacity="0.2">
<path d="M125.092 45.3053L64.9974 35.8227C62.8937 35.4958 60.9351 37.0391 60.6246 39.2823L49.3839 120.27C49.0735 122.513 50.5271 124.6 52.6308 124.933L112.725 134.416C114.829 134.743 116.788 133.196 117.098 130.953L118.207 122.866L120.505 124.237L128.339 49.9682C128.649 47.725 127.196 45.6356 125.092 45.3053Z" fill="#3A7EC1"/>
</g>
<path d="M112.448 132.211L55.2404 122.67C54.2778 122.509 53.4113 121.924 52.8313 121.044C52.2513 120.163 52.0052 119.059 52.1472 117.974L62.8512 36.4697C62.9974 35.3912 63.5158 34.4215 64.2935 33.7717C65.0712 33.1219 66.0452 32.8447 67.0034 33.0004L124.225 42.5418C125.188 42.7026 126.055 43.2875 126.635 44.168C127.215 45.0485 127.461 46.1525 127.319 47.2373L116.615 128.742C116.47 129.825 115.95 130.798 115.169 131.449C114.387 132.099 113.409 132.373 112.448 132.211V132.211Z" fill="white"/>
<path d="M119.089 67.1606L91.7072 62.5828L93.6076 48.1104L120.99 52.6882L119.089 67.1606ZM93.1579 61.3795L118.013 65.5224L119.539 53.9013L94.6841 49.7584L93.1579 61.3795Z" fill="#ECF3FE"/>
<path d="M93.0215 70.11C92.5194 70.0243 92.0679 69.7184 91.7651 69.259C91.4623 68.7996 91.333 68.224 91.4054 67.6576C91.4814 67.0909 91.753 66.5811 92.1612 66.2393C92.5694 65.8975 93.081 65.7515 93.5844 65.833V65.833C94.0867 65.9194 94.5384 66.226 94.8411 66.6859C95.1438 67.1458 95.2731 67.7219 95.2007 68.2887V68.2887C95.1254 68.8555 94.8538 69.3656 94.4453 69.707C94.0368 70.0484 93.5247 70.1933 93.0215 70.11V70.11Z" fill="#00D369"/>
<path d="M98.7408 71.0648C98.2385 70.9784 97.7868 70.6719 97.4841 70.212C97.1814 69.752 97.0523 69.176 97.1247 68.6092V68.6092C97.2014 68.0432 97.4734 67.5342 97.8815 67.193C98.2897 66.8519 98.8008 66.7063 99.3037 66.7879V66.7879C99.8061 66.8743 100.258 67.1809 100.56 67.6408C100.863 68.1007 100.992 68.6768 100.92 69.2436V69.2436C100.844 69.81 100.572 70.3195 100.164 70.6608C99.7556 71.002 99.2439 71.1473 98.7408 71.0648V71.0648Z" fill="#00D369"/>
<path d="M104.46 72.0195C103.957 71.9339 103.505 71.6276 103.202 71.1674C102.899 70.7073 102.77 70.1308 102.844 69.5639V69.5639C102.92 68.9974 103.191 68.4879 103.6 68.1466C104.008 67.8054 104.519 67.6601 105.023 67.7426V67.7426C105.525 67.829 105.977 68.1355 106.279 68.5955C106.582 69.0554 106.711 69.6314 106.639 70.1982V70.1982C106.562 70.7643 106.29 71.2733 105.882 71.6144C105.474 71.9555 104.963 72.1011 104.46 72.0195V72.0195Z" fill="#00D369"/>
<path d="M110.179 72.9712C109.676 72.8863 109.224 72.5807 108.921 72.1211C108.619 71.6615 108.49 71.0853 108.563 70.5188V70.5188C108.639 69.9521 108.911 69.4423 109.319 69.1005C109.727 68.7588 110.238 68.6127 110.742 68.6942V68.6942C111.244 68.7814 111.695 69.0882 111.998 69.5479C112.3 70.0076 112.43 70.5832 112.358 71.1499C112.283 71.7167 112.011 72.2268 111.603 72.5682C111.194 72.9096 110.682 73.0545 110.179 72.9712V72.9712Z" fill="#ECF3FE"/>
<path d="M115.898 73.9258C115.395 73.841 114.942 73.5349 114.64 73.0745C114.337 72.6142 114.208 72.0372 114.282 71.4702V71.4702C114.358 70.9044 114.629 70.3954 115.037 70.0542C115.445 69.713 115.955 69.5673 116.458 69.6488C116.961 69.7345 117.413 70.0407 117.717 70.5007C118.02 70.9607 118.15 71.5372 118.077 72.1045V72.1045C118.001 72.671 117.729 73.1805 117.321 73.5217C116.913 73.863 116.401 74.0083 115.898 73.9258V73.9258Z" fill="#ECF3FE"/>
<path d="M89.6734 79.4323L65.1667 75.345C64.9531 75.3098 64.7477 75.2275 64.5623 75.1027C64.3769 74.9779 64.2151 74.8132 64.0863 74.6179C63.9574 74.4226 63.8642 74.2006 63.8116 73.9646C63.759 73.7286 63.7482 73.4832 63.7798 73.2425V73.2425C63.8114 73.0017 63.8847 72.7703 63.9957 72.5615C64.1068 72.3527 64.2534 72.1706 64.427 72.0258C64.6006 71.8809 64.7977 71.776 65.0073 71.7171C65.2169 71.6583 65.4348 71.6466 65.6484 71.6828L90.1551 75.7668C90.5863 75.8395 90.9743 76.1021 91.2338 76.4969C91.4934 76.8918 91.6032 77.3866 91.5392 77.8726V77.8726C91.5076 78.1131 91.4343 78.3442 91.3234 78.5528C91.2125 78.7613 91.0662 78.9432 90.893 79.088C90.7197 79.2329 90.5229 79.3378 90.3136 79.3969C90.1044 79.456 89.8868 79.468 89.6734 79.4323V79.4323Z" fill="#00D369"/>
<path d="M113.852 91.6094L71.4162 84.5334C71.2026 84.4982 70.9972 84.4158 70.8118 84.2911C70.6264 84.1663 70.4646 84.0016 70.3358 83.8063C70.207 83.611 70.1137 83.389 70.0611 83.153C70.0085 82.917 69.9977 82.6716 70.0293 82.4309V82.4309C70.0606 82.1901 70.1335 81.9586 70.2443 81.7497C70.355 81.5408 70.5012 81.3585 70.6745 81.2134C70.8478 81.0682 71.0447 80.9629 71.2541 80.9037C71.4636 80.8444 71.6814 80.8322 71.895 80.8679L114.334 87.934C114.547 87.9693 114.753 88.0516 114.938 88.1764C115.123 88.3011 115.285 88.4659 115.414 88.6612C115.543 88.8565 115.636 89.0785 115.689 89.3145C115.741 89.5505 115.752 89.7959 115.721 90.0366V90.0366C115.69 90.2784 115.617 90.511 115.507 90.721C115.396 90.9311 115.25 91.1144 115.076 91.2606C114.903 91.4067 114.705 91.5128 114.495 91.5726C114.285 91.6325 114.066 91.645 113.852 91.6094Z" fill="#ECF3FE"/>
<path d="M112.808 99.5715L63.0745 91.2792C62.6433 91.2065 62.2553 90.9439 61.9958 90.549C61.7362 90.1542 61.6264 89.6594 61.6904 89.1734C61.7217 88.9327 61.7948 88.7013 61.9055 88.4926C62.0163 88.2838 62.1624 88.1018 62.3358 87.9568C62.5091 87.8119 62.7063 87.707 62.9157 87.6481C63.1251 87.5892 63.3428 87.5775 63.5562 87.6137L113.289 95.906C113.72 95.9787 114.108 96.2413 114.368 96.6362C114.627 97.031 114.737 97.5258 114.673 98.0118V98.0118C114.642 98.2523 114.568 98.4834 114.458 98.6919C114.347 98.9005 114.2 99.0824 114.027 99.2273C113.854 99.3721 113.657 99.477 113.448 99.5361C113.239 99.5952 113.021 99.6072 112.808 99.5715V99.5715Z" fill="#ECF3FE"/>
<path d="M111.763 107.533L62.0297 99.2378C61.5986 99.1659 61.2103 98.9041 60.9503 98.5099C60.6902 98.1157 60.5797 97.6213 60.6428 97.1353C60.7074 96.6492 60.9402 96.2116 61.2905 95.9187C61.6407 95.6257 62.0798 95.5011 62.5114 95.5723L112.244 103.868C112.458 103.904 112.663 103.986 112.848 104.111C113.033 104.236 113.195 104.401 113.323 104.596C113.452 104.791 113.545 105.013 113.597 105.249C113.649 105.485 113.66 105.73 113.629 105.97V105.97C113.565 106.456 113.332 106.894 112.983 107.187C112.633 107.48 112.194 107.605 111.763 107.533V107.533Z" fill="#ECF3FE"/>
<path d="M101.204 113.907L60.9854 107.2C60.7718 107.165 60.5664 107.083 60.381 106.958C60.1956 106.833 60.034 106.668 59.9051 106.473C59.7763 106.278 59.6829 106.056 59.6303 105.82C59.5777 105.584 59.5669 105.338 59.5985 105.098V105.098C59.6298 104.857 59.7029 104.625 59.8136 104.416C59.9243 104.208 60.0705 104.025 60.2437 103.88C60.417 103.735 60.6141 103.63 60.8235 103.57C61.0329 103.511 61.2507 103.499 61.4643 103.535L101.683 110.241C101.897 110.277 102.102 110.359 102.288 110.484C102.473 110.61 102.635 110.775 102.764 110.97C102.892 111.166 102.986 111.388 103.038 111.624C103.091 111.86 103.102 112.106 103.07 112.347V112.347C103.038 112.587 102.965 112.818 102.854 113.027C102.743 113.236 102.597 113.417 102.424 113.562C102.251 113.707 102.054 113.812 101.844 113.871C101.635 113.93 101.418 113.942 101.204 113.907V113.907Z" fill="#ECF3FE"/>
<path d="M109.671 123.455L59.9381 115.159C59.7246 115.124 59.5193 115.041 59.334 114.917C59.1488 114.792 58.9873 114.627 58.8587 114.432C58.7301 114.236 58.6369 114.014 58.5847 113.778C58.5324 113.542 58.522 113.297 58.5541 113.056V113.056C58.5857 112.816 58.659 112.585 58.7699 112.376C58.8807 112.168 59.027 111.986 59.2003 111.841C59.3735 111.696 59.5703 111.591 59.7796 111.532C59.9889 111.473 60.2065 111.461 60.4198 111.497L110.153 119.789C110.366 119.825 110.571 119.907 110.756 120.032C110.941 120.157 111.103 120.322 111.231 120.517C111.36 120.712 111.453 120.934 111.505 121.17C111.558 121.406 111.569 121.651 111.537 121.892V121.892C111.506 122.133 111.433 122.364 111.323 122.573C111.212 122.783 111.066 122.965 110.892 123.11C110.719 123.255 110.522 123.361 110.312 123.42C110.103 123.479 109.885 123.491 109.671 123.455V123.455Z" fill="#ECF3FE"/>
<path d="M79.8431 66.797C85.4697 64.9764 88.7212 58.3604 87.1057 52.0196C85.4902 45.6789 79.6193 42.0146 73.9927 43.8351C68.3661 45.6557 65.1144 52.2718 66.73 58.6125C68.3455 64.9533 74.2165 68.6176 79.8431 66.797Z" fill="#ECF3FE"/>
<path d="M75.3976 66.026C75.339 66.0178 75.2808 66.0058 75.2234 65.9901V65.9901C73.4904 65.6439 71.8849 64.7347 70.6041 63.3742C70.9986 62.738 71.5056 62.2006 72.0933 61.796C72.6811 61.3914 73.3369 61.1283 74.0193 61.0232V61.0232C74.2502 60.9899 74.4829 60.9746 74.7157 60.9774C74.9352 60.9793 75.1543 60.999 75.3713 61.0362L77.1471 61.3272C77.3626 61.3645 77.5759 61.4169 77.7856 61.4842C78.0101 61.554 78.2293 61.6437 78.4412 61.7523C79.33 62.2058 80.0807 62.9438 80.6 63.8745C80.7941 64.2272 80.9546 64.602 81.0787 64.9928C79.5477 65.8973 77.8189 66.2887 76.0967 66.1208C76.0151 66.117 75.9338 66.1083 75.8531 66.0947H75.8096C75.7932 66.0978 75.7766 66.0978 75.7603 66.0947C75.7449 66.0979 75.7291 66.0979 75.7138 66.0947C75.6505 66.0906 75.5875 66.0819 75.5252 66.0685H75.4816H75.4265H75.409L75.3976 66.026Z" fill="#BAB9B9"/>
<path d="M72.6149 52.5772C72.6149 52.5772 72.9398 45.7105 76.2418 46.1258C79.5438 46.541 81.0091 45.8184 81.7548 46.2598C82.5005 46.7013 82.3032 52.9565 81.9376 54.1075C81.572 55.2585 72.6149 52.5772 72.6149 52.5772Z" fill="#302F2F"/>
<path d="M77.9165 60.4673L77.6698 62.3606C77.5654 63.1617 76.7993 63.7045 75.9463 63.5671C75.0932 63.4298 74.4955 62.6549 74.6 61.8537L74.8465 59.9572C74.8936 59.6293 75.0479 59.333 75.2789 59.1267C75.3331 59.0765 75.3902 59.0306 75.4501 58.9893C75.5701 58.9089 75.6989 58.8463 75.8332 58.8029C76.0739 58.7274 76.3259 58.7096 76.5731 58.7506C76.8199 58.7913 77.0563 58.8905 77.2666 59.0417C77.3854 59.1239 77.4928 59.2252 77.5857 59.3425C77.5905 59.3436 77.5955 59.3436 77.6003 59.3425C77.6415 59.3969 77.6802 59.4537 77.7163 59.5125C77.8882 59.7906 77.9598 60.1319 77.9165 60.4673V60.4673Z" fill="#F4B698"/>
<path opacity="0.28" d="M81.4067 54.3037L81.0468 57.0602C80.923 57.9851 80.5507 58.8451 79.9801 59.5244C79.4095 60.2038 78.6678 60.6698 77.8551 60.8597L77.7623 61.5889C77.2992 61.6976 76.8228 61.7132 76.355 61.6347L76.0271 61.5824C75.5596 61.5033 75.1079 61.3329 74.6923 61.0788L74.7881 60.3529C74.0606 59.9062 73.4716 59.2195 73.1003 58.3849C72.729 57.5503 72.593 56.6077 72.7105 55.6835L73.0674 52.9238C73.2322 51.7345 73.806 50.6662 74.6646 49.9502C75.5232 49.2342 76.5975 48.928 77.6549 49.098L77.9827 49.1536C78.8868 49.3039 79.7187 49.7963 80.3417 50.5499V50.5499C80.756 51.0467 81.0667 51.6416 81.251 52.291C81.4352 52.9405 81.4884 53.6281 81.4067 54.3037V54.3037Z" fill="black"/>
<path d="M81.4969 53.6005L81.0442 57.0666C80.9383 57.9041 80.6244 58.6907 80.1389 59.3359C80.0634 59.434 79.9851 59.5288 79.9038 59.6171C79.8075 59.7322 79.7059 59.8413 79.5992 59.9441C79.0929 60.407 78.4962 60.7276 77.8582 60.8792C77.3944 60.9891 76.9169 61.0057 76.4479 60.9283L76.123 60.876C75.0645 60.6949 74.1122 60.0503 73.4732 59.0822C72.8342 58.1141 72.5601 56.9009 72.7107 55.7063L73.1778 52.1095C73.2761 51.4842 73.4896 50.8892 73.8044 50.3626C74.1193 49.836 74.5286 49.3896 75.0059 49.0522C75.1536 48.9453 75.3077 48.8503 75.4672 48.7677C76.1784 48.3937 76.9713 48.2629 77.7478 48.3916L78.0758 48.4472C78.6835 48.5442 79.2622 48.8019 79.7645 49.1993C79.866 49.2712 79.963 49.351 80.0547 49.438C80.165 49.5426 80.2723 49.6505 80.3739 49.765C80.8109 50.2634 81.1397 50.8689 81.3345 51.5343C81.5293 52.1997 81.5849 52.9069 81.4969 53.6005Z" fill="#F4B698"/>
<path d="M82.8635 55.6866C82.8011 56.1653 82.5724 56.5965 82.228 56.8853C81.8835 57.1741 81.4514 57.2969 81.0266 57.2267L81.4967 53.6135C81.7114 53.6507 81.9174 53.7351 82.1032 53.862V53.862C82.3752 54.0481 82.5925 54.3204 82.7277 54.645C82.863 54.9696 82.9102 55.3319 82.8635 55.6866V55.6866Z" fill="#F4B698"/>
<path d="M82.254 55.5852C82.2349 55.7323 82.1901 55.8737 82.1224 56.0014C82.0547 56.129 81.9654 56.2403 81.8595 56.329C81.7536 56.4177 81.6332 56.4819 81.5053 56.5181C81.3773 56.5544 81.2442 56.5618 81.1136 56.54L81.4038 54.3035C81.5343 54.3247 81.66 54.3747 81.7733 54.4506C81.8867 54.5265 81.9857 54.6269 82.0646 54.7459C82.1436 54.8649 82.2009 55.0003 82.2334 55.1443C82.2659 55.2883 82.2729 55.4382 82.254 55.5852V55.5852Z" fill="#E29586"/>
<path d="M73.1661 52.237L72.6961 55.8338C72.3006 55.7711 71.9396 55.5459 71.6825 55.2015C71.4254 54.857 71.2903 54.4177 71.3032 53.9678C71.3162 53.518 71.4763 53.0894 71.7526 52.7645C72.029 52.4395 72.4023 52.2412 72.8005 52.2075H72.9196C73.0024 52.2092 73.0848 52.2191 73.1661 52.237V52.237Z" fill="#F4B698"/>
<path d="M71.9388 53.8783C71.9006 54.1749 71.9683 54.4764 72.1272 54.7167C72.2861 54.957 72.5231 55.1165 72.7862 55.1601L73.0764 52.9235C72.8133 52.8814 72.5461 52.9581 72.3331 53.1369C72.12 53.3158 71.9782 53.5823 71.9388 53.8783Z" fill="#E29586"/>
<path d="M81.4969 53.6005L81.0442 57.0666C80.9384 57.9041 80.6245 58.6908 80.1389 59.3359C80.0635 59.434 79.9851 59.5288 79.9039 59.6171C81.552 53.2147 80.7018 52.0964 79.3235 51.8904C77.8408 51.655 77.7711 49.5459 77.7711 49.5459L80.0605 49.4216C80.1708 49.5263 80.2782 49.6342 80.3798 49.7486C80.8179 50.2494 81.1468 50.858 81.3406 51.5264C81.5345 52.1948 81.588 52.9048 81.4969 53.6005V53.6005Z" fill="#EAA78C"/>
<path d="M75.4845 66.0261H75.528C75.5903 66.0394 75.6533 66.0482 75.7166 66.0522C75.7319 66.0554 75.7477 66.0554 75.7631 66.0522C75.7794 66.0554 75.796 66.0554 75.8124 66.0522V66.0522L76.0562 65.7253L77.3619 63.9628L77.4373 63.384L77.8609 63.057L77.7768 62.2428C77.7415 62.2953 77.7037 62.3455 77.6636 62.3932V62.3932C77.3115 62.8505 76.8666 63.205 76.3666 63.4265C76.2313 63.4797 76.0912 63.5159 75.9488 63.5344C75.7681 63.4447 75.5999 63.3257 75.4497 63.1813C75.0853 62.8208 74.796 62.3742 74.6024 61.8733V61.8733C74.5765 61.8148 74.5533 61.7547 74.5328 61.6935L74.2427 62.4456L74.5589 62.9099L74.4864 63.4886L75.1741 65.3034L75.4322 65.9934L75.4845 66.0261Z" fill="white"/>
<path d="M77.5505 63.6292L77.7942 64.4598L75.8558 66.0947H75.8123C75.796 66.0978 75.7794 66.0978 75.763 66.0947C75.7477 66.0979 75.7319 66.0979 75.7166 66.0947L77.2487 63.2237L77.6577 62.4521L77.7797 61.5201L78.4035 63.4036L77.5098 63.5736L77.5505 63.6292Z" fill="#565656"/>
<path d="M75.3974 66.0129L73.9466 63.8221L74.3905 63.106L74.4486 63.0177L73.639 62.5632L74.7155 60.9609L74.7009 61.0819L74.5937 61.8961L74.5965 61.9027L74.7967 62.7823V62.7855L75.5279 66.0358L75.4844 66.0292L75.4293 66.0194H75.4119L75.3974 66.0129Z" fill="#565656"/>
<path d="M80.4289 48.8134C80.4289 48.8134 78.5168 47.803 78.1309 47.7376C77.57 47.6617 77.003 47.6617 76.4421 47.7376C75.6471 47.8194 74.3675 48.5682 74.3675 48.5682L74.0774 48.9965C73.9677 49.0823 73.8699 49.1859 73.7872 49.3039C73.7872 49.3464 73.7292 49.4837 73.6886 49.608L73.4594 49.9611L73.6247 49.9252L73.6798 50.311C74.0292 49.9186 74.4486 49.6143 74.9101 49.4183C75.8299 49.2091 77.0167 49.3137 77.7624 50.141C79.1116 51.6418 82.0306 51.3803 82.0306 51.3803L80.4289 48.8134Z" fill="#302F2F"/>
<path d="M104.518 142.253C104.036 137.466 104.808 123.736 116.994 87.6463C117.084 87.3809 117.121 87.0963 117.101 86.8132C117.081 86.53 117.005 86.2554 116.879 86.0093C116.753 85.7632 116.58 85.5518 116.373 85.3904C116.166 85.229 115.929 85.1217 115.68 85.0762L97.6902 81.7704C97.2185 81.684 96.7349 81.7419 96.2899 81.938C95.8448 82.1342 95.4547 82.4614 95.1601 82.8854L91.3184 88.4115C90.9063 89.0048 90.3603 89.4625 89.7377 89.7369C89.115 90.0112 88.4385 90.0921 87.7785 89.9712L48.6536 82.7775C48.0935 82.6747 47.5192 82.7918 47.0264 83.109C46.5337 83.4262 46.1525 83.9244 45.9466 84.5204C44.4697 88.8202 41.1038 99.9312 37.9382 119.747L36.4874 129.828C36.4078 130.382 36.5266 130.949 36.8177 131.404C37.1087 131.86 37.5483 132.166 38.0398 132.257L103.282 144.235L105.078 144.562C105.542 144.671 106.014 144.729 106.488 144.735C105.147 144.676 104.686 143.335 104.518 142.253Z" fill="#3A7EC1"/>
<path d="M104.518 142.253C104.036 137.466 104.808 123.736 116.994 87.6463C117.084 87.3809 117.121 87.0963 117.101 86.8132C117.081 86.53 117.005 86.2554 116.879 86.0093C116.753 85.7632 116.58 85.5518 116.373 85.3904C116.166 85.229 115.929 85.1217 115.68 85.0762L97.6902 81.7704C97.2185 81.684 96.7349 81.7419 96.2899 81.938C95.8448 82.1342 95.4547 82.4614 95.1601 82.8854L91.3184 88.4115C90.9063 89.0048 90.3603 89.4625 89.7377 89.7369C89.115 90.0112 88.4385 90.0921 87.7785 89.9712L48.6536 82.7775C48.0935 82.6747 47.5192 82.7918 47.0264 83.109C46.5337 83.4262 46.1525 83.9244 45.9466 84.5204C44.4697 88.8202 41.1038 99.9312 37.9382 119.747L36.4874 129.828C36.4078 130.382 36.5266 130.949 36.8177 131.404C37.1087 131.86 37.5483 132.166 38.0398 132.257L103.282 144.235L105.078 144.562C105.542 144.671 106.014 144.729 106.488 144.735C105.147 144.676 104.686 143.335 104.518 142.253Z" fill="#3A7EC1"/>
<g style="mix-blend-mode:multiply" opacity="0.3">
<path d="M116.98 87.6464C116.812 88.3003 101.312 148.191 115.686 140.007C112.225 144.228 108.473 144.8 106.477 144.745H106.45C105.977 144.737 105.504 144.678 105.04 144.571L103.247 144.244L90.7703 141.955C90.8051 141.387 90.8428 140.808 90.8805 140.222C91.78 126.025 92.8767 108.23 92.8767 108.23L116.98 87.6496V87.6464Z" fill="#3A7EC1"/>
</g>
<path d="M116.98 87.6397C104.793 123.726 104.033 137.453 104.503 142.246C104.672 143.322 105.142 144.666 106.439 144.732C105.965 144.723 105.493 144.665 105.029 144.558L103.235 144.231L90.7586 141.942L37.9962 132.257C37.7525 132.213 37.519 132.115 37.3089 131.969C37.0989 131.823 36.9165 131.631 36.7723 131.406C36.628 131.18 36.5247 130.924 36.4684 130.654C36.412 130.383 36.4038 130.102 36.444 129.828L37.8948 119.747C41.0633 99.9312 44.4261 88.8202 45.903 84.5203C46.109 83.9246 46.4904 83.4267 46.9832 83.11C47.476 82.7934 48.0504 82.6771 48.6102 82.7807L60.6227 84.9846L87.7352 89.9613C88.3951 90.0822 89.0717 90.0013 89.6943 89.727C90.317 89.4526 90.8629 88.9949 91.275 88.4016L95.1168 82.8755C95.4114 82.4515 95.8015 82.1243 96.2466 81.9282C96.6916 81.732 97.1752 81.6741 97.6469 81.7605L115.651 85.0663C115.902 85.1095 116.14 85.2154 116.35 85.3761C116.559 85.5368 116.734 85.7483 116.862 85.995C116.989 86.2418 117.066 86.5177 117.086 86.8023C117.107 87.0868 117.07 87.373 116.98 87.6397Z" fill="#F37451"/>
<g style="mix-blend-mode:multiply" opacity="0.2">
<path d="M84.7059 18.6294L90.7324 36.9439L87.9122 36.473L84.7059 18.6294Z" fill="#3A7EC1"/>
</g>
<path d="M138.658 32.8794L136.041 31.3425L109.369 23.7205L109.044 24.4202L138.658 32.8794Z" fill="#00D369"/>
<path d="M169.708 100.654C171.355 100.654 172.69 99.1488 172.69 97.2923C172.69 95.4359 171.355 93.9309 169.708 93.9309C168.06 93.9309 166.725 95.4359 166.725 97.2923C166.725 99.1488 168.06 100.654 169.708 100.654Z" fill="#3A7EC1"/>
<path d="M135.008 5.39353C135.271 3.56106 134.167 1.83432 132.541 1.53687C130.915 1.23942 129.383 2.48389 129.119 4.31636C128.855 6.14883 129.959 7.87541 131.585 8.17286C133.211 8.47031 134.744 7.226 135.008 5.39353Z" fill="#00D369"/>
<path d="M71.7286 92.197L50.1009 88.5892C49.5064 88.4901 48.9532 88.9527 48.8652 89.6227L48.7343 90.6189C48.6464 91.2888 49.0569 91.9123 49.6514 92.0114L71.2791 95.6192C71.8736 95.7184 72.4268 95.2557 72.5148 94.5858L72.6457 93.5895C72.7337 92.9196 72.3231 92.2962 71.7286 92.197Z" fill="#FFF5EE"/>
<path d="M29.0059 118.495C30.1345 117.223 30.1345 115.161 29.0059 113.889C27.8773 112.617 26.0475 112.617 24.9189 113.889C23.7903 115.161 23.7903 117.223 24.9189 118.495C26.0475 119.767 27.8773 119.767 29.0059 118.495Z" fill="#00D369"/>
<path d="M20.6125 111.552C20.6125 111.831 20.5391 112.104 20.4017 112.335C20.2643 112.567 20.069 112.748 19.8405 112.854C19.612 112.961 19.3605 112.989 19.1179 112.935C18.8753 112.88 18.6524 112.746 18.4775 112.549C18.3026 112.352 18.1836 112.101 18.1354 111.827C18.0871 111.554 18.1118 111.271 18.2065 111.013C18.3011 110.756 18.4614 110.535 18.6671 110.381C18.8728 110.226 19.1146 110.143 19.3619 110.143C19.6936 110.143 20.0116 110.292 20.2461 110.556C20.4807 110.82 20.6125 111.179 20.6125 111.552V111.552Z" fill="#00D369"/>
</svg>
