<svg width="175" height="152" viewBox="0 0 175 152" fill="none" xmlns="http://www.w3.org/2000/svg">
<path d="M30.482 33.0752C52.9008 7.13923 87.4088 6.43349 99.9577 6.17734C132.12 5.52063 172.617 18.5704 174.901 36.8274C176.862 52.4686 149.142 58.8994 143.7 89.0591C140.757 105.368 147.71 109.905 143.7 120.022C133.482 145.803 67.7055 168.347 31.4487 135.972C2.02127 109.698 6.82178 60.4526 30.482 33.0752Z" fill="#ECF3FE"/>
<path d="M39.7186 120.243C38.815 120.246 37.9456 119.907 37.2944 119.298L1.08535 85.6638C0.412392 85.0367 0.0224768 84.1759 0.000941389 83.2699C-0.020594 82.3638 0.328099 81.4864 0.970542 80.8298L57.5779 23.2055C58.2227 22.552 59.1073 22.1733 60.0385 22.1524C60.9696 22.1314 61.8713 22.4699 62.5465 23.0938L98.7556 56.7222C99.4285 57.3493 99.8184 58.2101 99.84 59.1162C99.8615 60.0222 99.513 60.8997 98.8705 61.5563L42.2631 119.181C41.9456 119.507 41.5645 119.768 41.1421 119.949C40.7197 120.131 40.2643 120.229 39.8026 120.238L39.7186 120.243ZM60.1084 22.8404C59.7293 22.8394 59.3539 22.9138 59.0055 23.0591C58.6571 23.2044 58.3429 23.4174 58.0823 23.6851L1.47491 81.3094C1.21023 81.5762 1.00496 81.8932 0.871885 82.2406C0.73881 82.588 0.680848 82.9584 0.701528 83.3285C0.734609 84.0285 1.0436 84.6892 1.56454 85.1733L37.7738 118.802C38.04 119.051 38.3543 119.246 38.6985 119.376C39.0427 119.507 39.4099 119.57 39.7792 119.562C40.1485 119.554 40.5125 119.475 40.8503 119.329C41.1881 119.184 41.493 118.975 41.7474 118.715L98.3548 61.0876C98.6106 60.8285 98.8113 60.5228 98.9452 60.188C99.0791 59.8532 99.1436 59.496 99.135 59.1369C99.1264 58.7778 99.0449 58.4239 98.8951 58.0955C98.7454 57.7672 98.5303 57.4709 98.2623 57.2236L62.0561 23.5897C61.5353 23.1058 60.8428 22.8355 60.1225 22.8349L60.1084 22.8404Z" fill="#293961"/>
<path d="M79.6574 86.7919L51.3789 95.5744C51.1164 95.6558 50.873 95.7867 50.6626 95.9597C50.4522 96.1327 50.2789 96.3443 50.1526 96.5824C50.0264 96.8206 49.9497 97.0806 49.9269 97.3476C49.9041 97.6146 49.9356 97.8834 50.0198 98.1385L54.8145 112.739C55.4647 112.439 56.1186 112.15 56.7762 111.872C57.4908 111.57 58.2082 111.275 58.9228 110.981C59.5483 110.685 60.1934 110.429 60.8537 110.215C61.1117 110.133 61.3921 110.146 61.6409 110.252C61.8897 110.358 62.0895 110.55 62.2016 110.79C62.3461 111.021 62.4168 111.288 62.4048 111.558C62.3928 111.828 62.2986 112.088 62.1343 112.305C61.7385 112.757 61.2546 113.127 60.7107 113.395C60.0465 113.78 59.3543 114.118 58.6622 114.45L56.5913 115.445C56.3419 115.565 56.0869 115.701 55.8263 115.823L55.9188 116.096C56.6502 115.693 57.3787 115.278 58.1073 114.878C58.2951 114.777 58.4492 115.074 58.2642 115.175L57.247 115.736C56.8407 115.96 56.4343 116.194 56.028 116.426L57.5721 121.132C57.7413 121.646 58.1137 122.075 58.6077 122.323C59.1017 122.571 59.6768 122.618 60.2063 122.453L88.4876 113.671C89.0171 113.506 89.4577 113.144 89.7126 112.664C89.9675 112.183 90.0158 111.624 89.8467 111.109L82.2944 88.1107C82.124 87.5961 81.7507 87.1683 81.2563 86.921C80.762 86.6738 80.187 86.6273 79.6574 86.7919Z" fill="#00D369"/>
<path d="M55.3975 113.177C56.1009 112.889 56.7987 112.605 57.5134 112.319C57.7095 112.24 57.8664 112.537 57.6674 112.616C56.978 112.889 56.2831 113.161 55.5937 113.458C55.4368 113.524 55.277 113.589 55.1172 113.66L55.7197 115.496L56.1037 115.303C57.2919 114.733 58.4941 114.183 59.6655 113.578C60.2348 113.299 60.7827 112.98 61.3049 112.624C61.6917 112.352 62.1457 111.946 62.0785 111.42C62.0603 111.254 62.0077 111.094 61.9238 110.949C61.84 110.804 61.7267 110.677 61.5908 110.575C61.4882 110.526 61.3764 110.498 61.2622 110.492C61.148 110.487 61.0338 110.504 60.9266 110.542C60.3377 110.732 59.7629 110.961 59.206 111.226C57.9702 111.736 56.7343 112.237 55.518 112.785L54.9211 113.058L55.0136 113.33C55.1398 113.284 55.2686 113.229 55.3975 113.177Z" fill="#00D369"/>
<path d="M54.2035 115.837C54.0667 115.805 53.9382 115.746 53.8258 115.663C53.7135 115.581 53.6198 115.477 53.5505 115.357C53.4926 115.218 53.481 115.064 53.5171 114.917C53.5533 114.771 53.6355 114.639 53.7524 114.54C54.1419 114.163 54.6062 113.867 55.117 113.671L55.0134 113.352C54.4826 113.562 53.9948 113.863 53.573 114.24C53.1946 114.608 52.9929 115.134 53.3208 115.619C53.4735 115.829 53.6826 115.994 53.9253 116.096C54.168 116.197 54.4349 116.232 54.6967 116.197C55.0891 116.138 55.4682 116.015 55.8176 115.832L55.7112 115.507C55.246 115.731 54.7191 115.962 54.2035 115.837Z" fill="#293961"/>
<path d="M54.6132 116.796C54.033 117.122 53.415 117.379 52.7721 117.562C52.5058 117.652 52.22 117.675 51.9423 117.627C51.6646 117.579 51.4041 117.463 51.1858 117.289C50.972 117.103 50.8183 116.861 50.7432 116.591C50.6681 116.322 50.6748 116.037 50.7626 115.772C50.9504 115.227 51.4745 114.897 51.9509 114.611C52.9119 114.042 53.9035 113.523 54.9215 113.058L54.8149 112.736C54.0526 113.09 53.2988 113.464 52.573 113.872C51.5501 114.439 50.1236 115.134 50.4011 116.551C50.4577 116.823 50.5787 117.079 50.7543 117.298C50.9298 117.517 51.1553 117.693 51.4129 117.813C51.6959 117.922 51.9982 117.975 52.3026 117.971C52.6069 117.966 52.9074 117.903 53.1868 117.785C54.1819 117.424 55.1375 116.968 56.0396 116.423L55.9302 116.093C55.4847 116.336 55.0532 116.57 54.6132 116.796Z" fill="#293961"/>
<path d="M57.6675 112.613C57.8664 112.534 57.7096 112.237 57.5134 112.316C56.8072 112.589 56.1122 112.886 55.3976 113.175C55.2687 113.226 55.1399 113.281 55.0138 113.338L55.1174 113.657C55.2771 113.586 55.4369 113.521 55.5938 113.455C56.2832 113.175 56.9781 112.886 57.6675 112.613Z" fill="#293961"/>
<path d="M55.5182 112.785C56.7344 112.24 57.9703 111.736 59.2061 111.226C59.763 110.961 60.3378 110.732 60.9266 110.542C61.0338 110.504 61.1481 110.487 61.2623 110.492C61.3765 110.498 61.4882 110.526 61.5908 110.575C61.7267 110.676 61.8401 110.804 61.9239 110.949C62.0077 111.094 62.0603 111.254 62.0785 111.42C62.1402 111.946 61.6917 112.349 61.305 112.624C60.7828 112.98 60.2349 113.299 59.6656 113.578C58.4942 114.183 57.292 114.733 56.1038 115.303L55.7199 115.496L55.8264 115.821C56.0871 115.698 56.3421 115.548 56.5915 115.442L58.6623 114.447C59.3545 114.115 60.0467 113.777 60.7109 113.393C61.2548 113.124 61.7387 112.754 62.1345 112.303C62.2988 112.085 62.393 111.825 62.405 111.555C62.417 111.285 62.3462 111.018 62.2018 110.788C62.0896 110.547 61.8899 110.355 61.6411 110.249C61.3922 110.143 61.1119 110.13 60.8539 110.213C60.1936 110.426 59.5485 110.682 58.923 110.978C58.2084 111.273 57.4909 111.567 56.7763 111.869C56.1187 112.147 55.4648 112.436 54.8147 112.736L54.9213 113.058L55.5182 112.785Z" fill="#293961"/>
<path d="M58.2643 115.178C58.4492 115.077 58.2951 114.78 58.1073 114.881C57.3788 115.284 56.6503 115.698 55.9189 116.099L56.0281 116.428C56.4345 116.197 56.8408 115.962 57.2471 115.739L58.2643 115.178Z" fill="#293961"/>
<g style="mix-blend-mode:multiply" opacity="0.2">
<path d="M162.506 41.7241L95.2246 36.0426C94.7607 36.0033 94.2935 36.0533 93.8494 36.1897C93.4054 36.3261 92.9934 36.5462 92.6368 36.8374C92.2803 37.1287 91.9862 37.4854 91.7715 37.8871C91.5568 38.2889 91.4256 38.7279 91.3854 39.179L83.6313 126.08C83.5909 126.531 83.6424 126.985 83.7826 127.417C83.9229 127.849 84.1492 128.25 84.4487 128.596C84.7482 128.943 85.1151 129.229 85.5283 129.438C85.9415 129.646 86.3929 129.774 86.8568 129.813L154.138 135.503C154.602 135.542 155.07 135.492 155.514 135.356C155.958 135.219 156.37 134.999 156.726 134.708C157.083 134.417 157.377 134.06 157.592 133.658C157.806 133.256 157.937 132.818 157.978 132.366L165.732 45.4654C165.773 45.0137 165.723 44.5584 165.583 44.1257C165.443 43.693 165.217 43.2914 164.917 42.9438C164.618 42.5963 164.251 42.3096 163.837 42.1003C163.423 41.891 162.971 41.7631 162.506 41.7241V41.7241Z" fill="#3A7EC1"/>
</g>
<path d="M92.3015 32.1432C91.3648 32.0646 90.4344 32.3508 89.7145 32.9389C88.9946 33.527 88.5443 34.3689 88.4623 35.2796L88.3362 36.6829L121.222 34.582L92.3015 32.1432Z" fill="white"/>
<path d="M80.7084 122.183C80.668 122.634 80.7194 123.089 80.8596 123.521C80.9999 123.952 81.2262 124.353 81.5257 124.7C81.8253 125.046 82.1922 125.332 82.6054 125.541C83.0186 125.75 83.47 125.877 83.9339 125.916L89.9477 126.423L85.8003 65.1122L80.7084 122.183Z" fill="white"/>
<path d="M162.809 41.5525C162.89 40.6413 162.595 39.7361 161.99 39.0361C161.384 38.336 160.518 37.8984 159.581 37.8194H159.449L161.041 61.371L162.809 41.5525Z" fill="white"/>
<path d="M125.84 34.9745L88.275 37.3752L86.204 60.5999L90.6569 126.483L120.196 128.974L155.206 126.737L160.64 65.8617L158.737 37.7485L125.84 34.9745Z" fill="white"/>
<path d="M151.207 131.593C151.671 131.632 152.138 131.582 152.582 131.446C153.026 131.309 153.438 131.089 153.795 130.798C154.151 130.507 154.445 130.15 154.66 129.748C154.875 129.346 155.006 128.907 155.046 128.456L155.139 127.429L124.82 129.366L151.207 131.593Z" fill="white"/>
<path d="M94.1401 130.642C93.2948 130.695 92.4626 130.419 91.8258 129.876C91.189 129.333 90.7999 128.567 90.7437 127.745L90.6568 126.483L89.9478 126.423L90.0403 127.786C90.1062 128.745 90.5438 129.644 91.2646 130.301C91.9855 130.958 92.936 131.326 93.9243 131.328H94.1849L124.826 129.369L120.196 128.977L94.1401 130.642Z" fill="#293961"/>
<path d="M165.219 122.985L161.052 61.36L160.651 65.8644L164.516 123.031C164.544 123.438 164.488 123.846 164.354 124.233C164.219 124.619 164.007 124.976 163.73 125.283C163.454 125.59 163.118 125.84 162.741 126.021C162.365 126.201 161.955 126.307 161.537 126.333L155.217 126.737L155.156 127.429L161.584 127.017C162.096 126.986 162.597 126.857 163.057 126.637C163.517 126.417 163.928 126.111 164.267 125.736C164.605 125.361 164.864 124.926 165.029 124.453C165.194 123.981 165.261 123.482 165.227 122.985H165.219Z" fill="#293961"/>
<path d="M84.859 40.705C84.8052 39.884 85.0881 39.0758 85.6459 38.4573C86.2038 37.8387 86.9909 37.4604 87.835 37.4051L88.2751 37.3779L88.3366 36.6857L87.7903 36.7212C87.2789 36.753 86.7789 36.8826 86.319 37.1024C85.8591 37.3223 85.4483 37.628 85.1099 38.0023C84.7716 38.3766 84.5124 38.812 84.3472 39.2837C84.182 39.7554 84.1141 40.2541 84.1472 40.7513L85.7921 65.1041L86.1956 60.6025L84.859 40.705Z" fill="#444444"/>
<path d="M155.223 33.0943H155.436C156.246 33.096 157.025 33.3966 157.616 33.9352C158.207 34.4739 158.565 35.2106 158.619 35.9964L158.737 37.754L159.449 37.8139L159.323 35.9501C159.256 34.946 158.782 34.009 158.004 33.3447C157.227 32.6805 156.211 32.3434 155.178 32.4077L155.2 32.751L155.178 32.4077L121.211 34.5876L125.84 34.9773L155.223 33.0943Z" fill="#293961"/>
<path d="M120.196 128.974L124.826 129.366L155.144 127.429L155.206 126.737L120.196 128.974Z" fill="white"/>
<path d="M125.84 34.9745L121.211 34.5821L88.3362 36.683L88.2747 37.3751L125.84 34.9745Z" fill="#444444"/>
<path d="M86.2039 60.5999L85.8004 65.1015L89.9479 126.423L90.657 126.483L86.2039 60.5999Z" fill="#444444"/>
<path d="M160.639 65.8616L161.04 61.36L159.448 37.8084L158.737 37.7485L160.639 65.8616Z" fill="white"/>
<path d="M144.507 52.7493L104.509 49.3731C104.245 49.3511 103.989 49.2789 103.754 49.1606C103.52 49.0423 103.311 48.8802 103.141 48.6836C102.971 48.487 102.842 48.2597 102.762 48.0147C102.683 47.7697 102.653 47.5118 102.676 47.2558C102.722 46.7384 102.978 46.2601 103.387 45.9259C103.796 45.5918 104.324 45.4291 104.856 45.4737L144.854 48.8499C145.386 48.8949 145.878 49.1435 146.222 49.541C146.565 49.9385 146.733 50.4525 146.687 50.9699V50.9699C146.64 51.4867 146.384 51.9644 145.975 52.298C145.567 52.6315 145.038 52.7938 144.507 52.7493V52.7493Z" fill="#00D369"/>
<path d="M151.075 65.1641L95.8383 60.5017C95.575 60.4798 95.3187 60.4076 95.0841 60.2893C94.8495 60.171 94.6412 60.0089 94.471 59.8123C94.3008 59.6157 94.172 59.3884 94.0922 59.1434C94.0124 58.8984 93.9829 58.6405 94.0056 58.3845V58.3845C94.0526 57.8674 94.3085 57.3895 94.7171 57.0555C95.1258 56.7214 95.654 56.5585 96.1859 56.6023L151.423 61.2647C151.686 61.2867 151.943 61.3589 152.177 61.4772C152.412 61.5955 152.62 61.7576 152.79 61.9542C152.961 62.1508 153.089 62.3781 153.169 62.6231C153.249 62.8681 153.278 63.126 153.256 63.382V63.382C153.209 63.8994 152.954 64.3777 152.545 64.7118C152.136 65.046 151.607 65.2087 151.075 65.1641V65.1641Z" fill="#E4ECF9"/>
<path d="M150.157 75.4752L94.9167 70.8128C94.3854 70.7678 93.8942 70.5195 93.5511 70.1225C93.2079 69.7255 93.041 69.2122 93.0868 68.6955V68.6955C93.1331 68.1782 93.3887 67.6999 93.7975 67.3657C94.2063 67.0315 94.7349 66.8689 95.267 66.9134L150.504 71.5758C150.767 71.5978 151.023 71.67 151.258 71.7883C151.492 71.9066 151.701 72.0688 151.871 72.2654C152.041 72.4621 152.169 72.6894 152.248 72.9344C152.328 73.1794 152.357 73.4372 152.334 73.6931V73.6931C152.311 73.9491 152.237 74.1984 152.115 74.4265C151.994 74.6547 151.827 74.8573 151.625 75.0228C151.423 75.1883 151.189 75.3134 150.937 75.391C150.685 75.4687 150.42 75.4973 150.157 75.4752V75.4752Z" fill="#E4ECF9"/>
<path d="M149.245 85.7864L94.0083 81.124C93.7451 81.1021 93.4889 81.0299 93.2544 80.9115C93.0199 80.7932 92.8118 80.6311 92.6418 80.4344C92.4718 80.2377 92.3434 80.0104 92.2639 79.7654C92.1843 79.5205 92.1553 79.2626 92.1783 79.0067C92.2009 78.7507 92.2752 78.5015 92.3969 78.2733C92.5185 78.0452 92.6852 77.8426 92.8874 77.6771C93.0896 77.5116 93.3233 77.3864 93.5753 77.3088C93.8272 77.2312 94.0924 77.2026 94.3558 77.2246L149.596 81.887C150.127 81.932 150.618 82.1803 150.961 82.5773C151.304 82.9744 151.471 83.4876 151.426 84.0043V84.0043C151.379 84.5216 151.124 84.9999 150.715 85.3341C150.306 85.6683 149.777 85.831 149.245 85.7864Z" fill="#E4ECF9"/>
<path d="M111.285 92.972L93.0699 91.4351C92.8066 91.4132 92.5503 91.341 92.3157 91.2227C92.081 91.1044 91.8726 90.9423 91.7024 90.7457C91.5322 90.5491 91.4036 90.3218 91.3238 90.0768C91.2439 89.8318 91.2145 89.5739 91.2372 89.3179V89.3179C91.2835 88.8005 91.5391 88.3222 91.9479 87.988C92.3567 87.6539 92.8852 87.4912 93.4173 87.5357L111.632 89.0726C111.896 89.0946 112.152 89.1668 112.387 89.2851C112.621 89.4034 112.83 89.5654 113 89.7621C113.17 89.9587 113.299 90.186 113.379 90.431C113.459 90.6759 113.488 90.9338 113.465 91.1899C113.419 91.7072 113.163 92.1856 112.754 92.5197C112.346 92.8539 111.817 93.0166 111.285 92.972V92.972Z" fill="#00D369"/>
<g style="mix-blend-mode:multiply" opacity="0.2">
<path d="M108.116 68.9626L80.4649 28.361C80.0012 27.6818 79.2794 27.2092 78.4577 27.0467C77.6361 26.8843 76.7817 27.0453 76.082 27.4945L7.75798 71.5077C7.05993 71.9591 6.5745 72.6612 6.40798 73.4601C6.24145 74.259 6.40744 75.0895 6.86965 75.7695L34.5177 116.371C34.747 116.708 35.0423 116.997 35.3867 117.223C35.7311 117.448 36.118 117.606 36.525 117.686C36.932 117.766 37.3514 117.768 37.759 117.69C38.1666 117.613 38.5545 117.458 38.9006 117.235L107.224 73.2326C107.572 73.0098 107.871 72.7224 108.104 72.3869C108.337 72.0514 108.5 71.6744 108.583 71.2777C108.665 70.8809 108.667 70.4721 108.587 70.0748C108.507 69.6776 108.346 69.2996 108.116 68.9626V68.9626Z" fill="#3A7EC1"/>
</g>
<path d="M76.8186 27.1976L104.469 67.7992C104.699 68.1358 104.858 68.5132 104.937 68.9096C105.017 69.3061 105.015 69.7139 104.932 70.1097C104.849 70.5055 104.687 70.8815 104.455 71.2163C104.223 71.5511 103.925 71.8382 103.578 72.061L35.2571 116.063C34.9108 116.287 34.5226 116.441 34.1148 116.519C33.707 116.596 33.2874 116.595 32.8801 116.515C32.4729 116.434 32.0859 116.277 31.7413 116.051C31.3966 115.826 31.1009 115.536 30.8713 115.199L3.22341 74.5979C2.76119 73.9178 2.59507 73.0873 2.76159 72.2884C2.92812 71.4895 3.41368 70.7874 4.11173 70.3361L72.4358 26.3311C73.1355 25.8819 73.9897 25.7208 74.8114 25.8833C75.633 26.0457 76.3548 26.5184 76.8186 27.1976V27.1976Z" fill="#293961"/>
<path opacity="0.5" d="M74.8911 25.9005L55.667 70.0227C55.3487 70.7075 54.8377 71.2908 54.1932 71.7055C53.5486 72.1201 52.7966 72.3491 52.024 72.3661H2.74756C2.82076 71.9552 2.97961 71.5631 3.2143 71.214C3.44898 70.8649 3.75459 70.5661 4.11233 70.336L72.4363 26.331C72.7941 26.1011 73.1961 25.9444 73.6182 25.8703C74.0402 25.7963 74.4733 25.8066 74.8911 25.9005V25.9005Z" fill="#B3CEF6"/>
<path d="M74.8911 25.9005L47.6383 60.3165C47.3208 61.0018 46.8101 61.5857 46.1653 62.0005C45.5205 62.4152 44.7682 62.6439 43.9953 62.6599L2.74756 72.3661C2.82076 71.9552 2.97961 71.5631 3.2143 71.214C3.44898 70.8649 3.75459 70.5661 4.11233 70.3361L72.4363 26.331C72.7941 26.1011 73.1961 25.9444 73.6182 25.8703C74.0402 25.7963 74.4733 25.8066 74.8911 25.9005V25.9005Z" fill="#293961"/>
<g style="mix-blend-mode:multiply" opacity="0.2">
<path d="M133.204 116.665C133.871 117.363 135.186 117.439 136.139 116.837C137.091 116.235 137.321 115.186 136.654 114.488L116.685 93.6532L112.201 91.3669C112.133 91.3088 112.048 91.2745 111.958 91.2695C111.868 91.2646 111.779 91.2893 111.705 91.3397C111.668 91.3566 111.636 91.3814 111.611 91.4123C111.586 91.4432 111.569 91.4793 111.56 91.5178C111.552 91.5562 111.553 91.5961 111.563 91.6342C111.573 91.6723 111.592 91.7076 111.618 91.7375L113.243 95.8249L133.204 116.665Z" fill="#3A7EC1"/>
</g>
<path d="M71.1079 129.535C70.0262 129.075 68.6054 128.374 67.5993 129.434C67.4082 129.641 67.2689 129.888 67.1925 130.155C67.1162 130.423 67.1049 130.704 67.1594 130.977C67.2799 131.584 67.7423 132.015 68.2383 132.339C69.4938 133.179 70.9705 133.702 72.3577 134.298L73.4254 134.759C73.6215 134.841 73.773 134.544 73.5796 134.459C72.3578 133.933 71.1219 133.426 69.9141 132.871C69.3005 132.61 68.7203 132.281 68.1851 131.89C67.9518 131.735 67.763 131.525 67.637 131.279C67.5109 131.033 67.4517 130.761 67.4648 130.486C67.4916 130.209 67.6001 129.945 67.7776 129.726C67.9551 129.507 68.194 129.342 68.4654 129.252C69.0258 129.069 69.6114 129.287 70.1327 129.492C71.3809 129.985 72.5975 130.551 73.7757 131.187C74.9527 131.811 76.1045 132.478 77.259 133.138C77.8105 133.415 78.3422 133.728 78.8506 134.075C78.9475 134.136 79.0304 134.216 79.0941 134.31C79.1577 134.404 79.2008 134.509 79.2206 134.62C79.2165 134.786 79.1782 134.95 79.1079 135.102C79.0376 135.253 78.9369 135.39 78.8115 135.503C78.4164 135.865 77.8139 135.754 77.3571 135.615C76.7507 135.42 76.1597 135.182 75.5888 134.903C74.395 134.358 73.2236 133.74 72.0438 133.151C71.4833 132.879 70.7324 132.606 70.4746 131.985C70.4178 131.86 70.3884 131.724 70.3884 131.587C70.3884 131.45 70.4178 131.315 70.4746 131.189C70.5548 131.058 70.6758 130.954 70.8202 130.893C70.9647 130.833 71.1252 130.818 71.2788 130.851C71.9934 130.925 72.6548 131.306 73.2601 131.653L75.1909 132.77C75.3731 132.876 75.5243 132.579 75.3421 132.473C74.6864 132.091 74.0306 131.707 73.3805 131.331C72.7848 130.947 72.119 130.676 71.4189 130.535C70.8892 130.456 70.3345 130.612 70.1299 131.157C70.0474 131.401 70.0355 131.663 70.0958 131.913C70.1562 132.164 70.2862 132.393 70.4717 132.576C70.9341 133.061 71.6235 133.317 72.2148 133.615L74.269 134.639C74.9583 134.98 75.6476 135.32 76.3622 135.609C76.9072 135.874 77.5003 136.032 78.1081 136.075C78.3853 136.073 78.6558 135.992 78.8853 135.84C79.1147 135.689 79.2929 135.475 79.3972 135.225C79.5304 134.994 79.5706 134.724 79.51 134.466C79.4494 134.208 79.2923 133.981 79.0693 133.83C78.501 133.441 77.9065 133.089 77.2898 132.778C76.6172 132.394 75.9475 132.01 75.2749 131.631C73.9252 130.861 72.5342 130.161 71.1079 129.535V129.535Z" fill="#293961"/>
<path d="M112.201 91.6096C112.142 91.6708 112.064 91.711 111.979 91.724C111.894 91.7369 111.807 91.7219 111.732 91.6812C111.656 91.6405 111.597 91.5765 111.563 91.4993C111.53 91.4222 111.523 91.3363 111.546 91.2554C111.599 91.1865 111.677 91.1406 111.765 91.1273C111.852 91.1141 111.942 91.1346 112.014 91.1845C112.095 91.2183 112.16 91.2814 112.195 91.3605C112.23 91.4397 112.232 91.5289 112.201 91.6096V91.6096Z" fill="#3B82F4"/>
<path d="M115.92 88.792L112.201 91.6096L111.546 91.2553L112.05 86.6938L115.92 88.792Z" fill="#444444"/>
<path d="M129.724 64.6872L115.92 88.792C114.591 89.1599 113.7 88.871 113.117 88.4051C112.59 87.9549 112.219 87.3571 112.055 86.6938L125.859 62.5917L129.724 64.6872Z" fill="#3FA9F5"/>
<path d="M113.112 88.4051C112.585 87.9549 112.214 87.3572 112.05 86.6938L125.854 62.5917L126.188 62.7716C123.184 68.6248 115.191 84.315 113.112 88.4051Z" fill="#CFE9FC"/>
<path d="M129.727 64.6871C129.265 65.5046 128.026 65.6763 126.956 65.0959C125.885 64.5155 125.395 63.3955 125.854 62.5917C126.314 61.7878 127.555 61.6025 128.626 62.1829C129.696 62.7633 130.19 63.8833 129.727 64.6871Z" fill="#444444"/>
<path d="M106.272 7.03682C106.762 4.10296 104.713 1.33853 101.695 0.862296C98.6783 0.386063 95.8353 2.37836 95.3455 5.31223C94.8558 8.24609 96.9047 11.0105 99.9219 11.4867C102.939 11.963 105.782 9.97068 106.272 7.03682Z" fill="#293961"/>
<path d="M133.264 148.662C135.217 148.662 136.8 147.122 136.8 145.223C136.8 143.323 135.217 141.784 133.264 141.784C131.31 141.784 129.727 143.323 129.727 145.223C129.727 147.122 131.31 148.662 133.264 148.662Z" fill="#293961"/>
<path d="M49.2015 133.241C49.6502 131.393 48.4729 129.54 46.5719 129.104C44.6709 128.668 42.7662 129.813 42.3175 131.661C41.8689 133.51 43.0462 135.362 44.9471 135.798C46.8481 136.234 48.7528 135.089 49.2015 133.241Z" fill="#293961"/>
<path d="M72.6878 103.264L72.812 102.562L74.5251 102.506L73.7865 107.054C73.7503 107.242 73.7302 107.433 73.7263 107.624C73.7257 107.706 73.7568 107.787 73.8135 107.849C73.8364 107.874 73.8647 107.894 73.8963 107.908C73.928 107.921 73.9621 107.928 73.9964 107.927C74.231 107.92 74.5247 107.762 74.8776 107.453C75.2619 107.104 75.568 106.682 75.7778 106.212C76.0012 105.728 76.1123 105.199 76.1032 104.664C76.0942 104.129 75.9652 103.6 75.7253 103.114C75.5067 102.678 75.1935 102.292 74.8077 101.982C74.3875 101.651 73.9044 101.405 73.3873 101.259C72.7777 101.085 72.1443 101.012 71.5138 101.043C70.8549 101.057 70.2041 101.169 69.5837 101.374C69.0333 101.558 68.5229 101.835 68.0764 102.194C67.6444 102.547 67.2885 102.98 67.028 103.467C66.7818 103.92 66.6049 104.406 66.5027 104.91C66.3925 105.435 66.352 105.973 66.3823 106.511C66.411 107.196 66.5999 107.868 66.9347 108.477C67.2635 109.065 67.7357 109.568 68.3092 109.94C68.9437 110.346 69.6572 110.617 70.4023 110.736C71.3044 110.881 72.2218 110.886 73.12 110.751C73.8194 110.662 74.4967 110.461 75.1244 110.157C75.6608 109.883 76.1231 109.492 76.476 109.015L77.8579 108.97C77.6612 109.422 77.3881 109.837 77.0496 110.2C76.6973 110.572 76.2856 110.887 75.8296 111.132C75.3279 111.401 74.7907 111.605 74.2317 111.737C73.5919 111.888 72.936 111.973 72.275 111.99C71.3017 112.035 70.3241 111.929 69.3789 111.678C68.5713 111.463 67.8164 111.086 67.1639 110.571C66.5592 110.086 66.0731 109.476 65.7424 108.788C65.3957 108.052 65.2001 107.26 65.167 106.456C65.1125 105.601 65.2219 104.746 65.4897 103.935C65.742 103.158 66.163 102.446 66.7246 101.846C67.2862 101.245 67.9755 100.77 68.7467 100.452C69.6058 100.093 70.5315 99.8979 71.4732 99.8788C72.2413 99.8446 73.0124 99.9376 73.7534 100.154C74.4178 100.346 75.0368 100.668 75.5721 101.1C76.0814 101.516 76.4926 102.034 76.7769 102.617C77.0746 103.237 77.2427 103.906 77.2713 104.585C77.3299 105.728 76.9634 106.845 76.2386 107.732C75.8806 108.168 75.4347 108.529 74.9274 108.793C74.4139 109.06 73.8413 109.208 73.2542 109.223C72.9712 109.248 72.6853 109.196 72.4274 109.074C72.3243 109.016 72.2339 108.938 72.1619 108.846C72.0898 108.753 72.0375 108.648 72.0081 108.536C71.6749 108.897 71.2361 109.15 70.7482 109.262C70.2767 109.373 69.7788 109.343 69.3193 109.177C68.8506 109.007 68.446 108.699 68.163 108.297C67.8394 107.824 67.6612 107.273 67.6497 106.71C67.6159 106.038 67.729 105.37 67.9815 104.749C68.2212 104.125 68.6198 103.572 69.1408 103.14C69.6362 102.721 70.2687 102.483 70.9318 102.467C71.7074 102.443 72.2927 102.709 72.6878 103.264ZM69.3179 106.643C69.3451 107.146 69.4748 107.528 69.7071 107.79C69.8121 107.916 69.9461 108.015 70.0979 108.08C70.2497 108.146 70.4147 108.175 70.579 108.165C70.782 108.158 70.9802 108.109 71.1607 108.022C71.3412 107.935 71.4998 107.811 71.6261 107.659C71.9322 107.307 72.1506 106.891 72.2649 106.442C72.3951 105.987 72.45 105.514 72.4277 105.039C72.4199 104.836 72.3818 104.634 72.3145 104.44C72.2553 104.273 72.1653 104.116 72.0489 103.978C71.9407 103.852 71.8036 103.752 71.6488 103.686C71.4857 103.619 71.3098 103.59 71.1346 103.599C70.9422 103.607 70.7541 103.652 70.5814 103.731C70.4087 103.811 70.2549 103.924 70.1292 104.063C69.8244 104.389 69.6046 104.781 69.4877 105.208C69.3477 105.672 69.2903 106.157 69.3179 106.643V106.643Z" fill="white"/>
</svg>
