<svg width="189" height="152" viewBox="0 0 189 152" fill="none" xmlns="http://www.w3.org/2000/svg">
<path d="M26.9337 28.2717C54.8416 -0.390934 152.54 12.4747 175.566 53.9194C187.167 74.7997 161.036 112.019 147.051 128.132C124.81 153.757 72.7736 152.519 40.3148 121.757C11.3009 94.2599 7.40567 48.3289 26.9337 28.2717Z" fill="#ECF3FE"/>
<path d="M98.7604 126.421C98.5578 126.421 98.3562 126.393 98.1613 126.339L50.7908 113.168C50.5111 113.09 50.2496 112.959 50.0214 112.782C49.7931 112.604 49.6026 112.384 49.4606 112.134C49.3186 111.883 49.2279 111.608 49.1938 111.323C49.1597 111.039 49.1828 110.75 49.2618 110.474L66.5478 49.9368C66.7076 49.3797 67.0848 48.9079 67.5967 48.625C68.1086 48.342 68.7133 48.271 69.2782 48.4275L116.649 61.5985C116.928 61.6763 117.19 61.8077 117.418 61.9852C117.646 62.1627 117.837 62.3828 117.979 62.6331C118.121 62.8833 118.212 63.1586 118.246 63.4434C118.28 63.7282 118.257 64.0168 118.178 64.2928L100.89 124.83C100.759 125.288 100.48 125.691 100.096 125.978C99.7113 126.265 99.2425 126.421 98.7604 126.421V126.421ZM68.6775 48.9776C68.335 48.9779 68.0019 49.0885 67.7287 49.2925C67.4556 49.4966 67.2573 49.7829 67.164 50.1082L49.8774 110.647C49.8214 110.843 49.805 111.048 49.8294 111.25C49.8537 111.452 49.9181 111.648 50.0191 111.826C50.12 112.003 50.2555 112.16 50.4177 112.286C50.5799 112.412 50.7657 112.505 50.9644 112.56L98.3349 125.731C98.7361 125.842 99.1657 125.792 99.5293 125.591C99.8928 125.39 100.161 125.054 100.274 124.659L117.561 64.12C117.674 63.7241 117.623 63.3001 117.419 62.9412C117.216 62.5824 116.876 62.3181 116.475 62.2065L69.1031 49.0355C68.9646 48.9972 68.8214 48.9777 68.6775 48.9776Z" fill="#293961"/>
<g style="mix-blend-mode:multiply" opacity="0.2">
<path d="M125.916 62.812L124.468 64.1078L115.323 61.3698L111.515 59.2042L125.916 62.812Z" fill="#3A7EC1"/>
</g>
<g style="mix-blend-mode:multiply" opacity="0.2">
<path d="M160.028 27.0527L148.384 59.3068L147.135 57.9485L160.028 27.0527Z" fill="#3A7EC1"/>
</g>
<path d="M175.84 114.464L172.696 125.028L172.083 124.846L175.226 114.282L175.84 114.464ZM150.804 131.8L158.039 133.896L157.862 134.506L150.628 132.409L150.804 131.8ZM126.723 124.822L133.958 126.918L133.781 127.528L126.547 125.431L126.723 124.822ZM123.014 99.1581L119.871 109.721L119.258 109.538L122.402 98.976L123.014 99.1581ZM132.157 68.4361L129.013 78.9986L128.401 78.8164L131.544 68.254L132.157 68.4361ZM153.435 61.4798L146.203 59.3842L146.379 58.7785L153.61 60.8741L153.435 61.4798ZM177.515 68.458L170.284 66.3624L170.459 65.7567L177.691 67.8523L177.515 68.458ZM181.225 94.1231L184.368 83.5596L184.984 83.7428L181.84 94.3062L181.225 94.1231Z" stroke="#293961" stroke-width="5" stroke-linecap="square" stroke-linejoin="round" stroke-dasharray="15 15"/>
<path opacity="0.2" d="M172.887 131.692L122.867 127.558C122.549 127.531 122.24 127.444 121.956 127.299C121.672 127.155 121.42 126.957 121.214 126.716C121.008 126.476 120.852 126.198 120.755 125.898C120.658 125.598 120.622 125.282 120.648 124.968L126.065 61.1532C126.119 60.5196 126.426 59.9331 126.918 59.5225C127.41 59.1119 128.047 58.9109 128.689 58.9637L178.712 63.0981C179.03 63.1243 179.34 63.2121 179.623 63.3564C179.907 63.5008 180.159 63.6988 180.365 63.9393C180.571 64.1798 180.727 64.458 180.824 64.758C180.921 65.058 180.957 65.3739 180.931 65.6877L175.512 129.503C175.485 129.816 175.396 130.122 175.25 130.402C175.103 130.682 174.903 130.931 174.659 131.134C174.415 131.337 174.133 131.491 173.829 131.587C173.525 131.683 173.205 131.718 172.887 131.692V131.692Z" fill="#3A7EC1"/>
<path d="M167.301 126.167L117.28 122.032C116.638 121.979 116.044 121.677 115.627 121.191C115.211 120.705 115.008 120.077 115.061 119.443L120.478 55.6274C120.505 55.3136 120.594 55.008 120.741 54.7282C120.887 54.4484 121.088 54.1997 121.331 53.9964C121.575 53.7932 121.857 53.6393 122.161 53.5435C122.465 53.4478 122.785 53.412 123.103 53.4384L173.126 57.5728C173.444 57.5991 173.754 57.6869 174.037 57.8313C174.321 57.9757 174.573 58.1737 174.779 58.4142C174.985 58.6547 175.141 58.9328 175.238 59.2328C175.335 59.5328 175.371 59.8486 175.345 60.1624L169.925 123.977C169.898 124.291 169.809 124.597 169.663 124.877C169.517 125.157 169.316 125.405 169.073 125.609C168.829 125.812 168.547 125.966 168.243 126.062C167.939 126.157 167.619 126.193 167.301 126.167V126.167Z" fill="white"/>
<path d="M75.7462 0L60.8696 37.3352C60.5054 38.1577 60.898 39.212 61.6377 39.3976L150.326 61.6158C151.014 61.7881 151.702 61.3987 152.05 60.6408L168.256 21.8024L75.7462 0Z" fill="#0A71BB"/>
<g style="mix-blend-mode:multiply" opacity="0.2">
<path d="M124.891 73.5001C125.01 73.2849 125.085 73.0486 125.111 72.8048C125.137 72.5611 125.115 72.3145 125.045 72.0794C124.974 71.8442 124.858 71.6249 124.702 71.4342C124.546 71.2434 124.353 71.0848 124.135 70.9675L80.9247 47.7219C80.7065 47.6043 80.4669 47.5303 80.2197 47.5042C79.9725 47.478 79.7225 47.5002 79.4839 47.5695C79.2454 47.6387 79.0231 47.7537 78.8296 47.9078C78.6362 48.062 78.4754 48.2522 78.3565 48.4677L47.8486 103.69C47.7297 103.906 47.6549 104.142 47.6285 104.386C47.602 104.629 47.6245 104.876 47.6947 105.111C47.7648 105.346 47.8812 105.565 48.0372 105.756C48.1932 105.947 48.3858 106.106 48.6039 106.223L91.8149 129.469C92.033 129.586 92.2724 129.66 92.5195 129.686C92.7665 129.712 93.0164 129.69 93.2547 129.62C93.493 129.551 93.7152 129.436 93.9085 129.282C94.1019 129.128 94.2626 128.938 94.3814 128.723L124.891 73.5001Z" fill="#3A7EC1"/>
</g>
<path d="M92.6641 148.648C94.5404 146.796 94.5404 143.794 92.6641 141.943C90.7878 140.092 87.7458 140.092 85.8695 141.943C83.9932 143.794 83.9932 146.796 85.8695 148.648C87.7458 150.499 90.7878 150.499 92.6641 148.648Z" fill="#293961"/>
<path d="M5.38765 76.653C5.71136 75.3447 4.89892 74.0251 3.57302 73.7057C2.24712 73.3862 0.909841 74.1879 0.58613 75.4963C0.262419 76.8047 1.07486 78.1242 2.40076 78.4437C3.72666 78.7631 5.06394 77.9614 5.38765 76.653Z" fill="#3A7EC1"/>
<path d="M5.38765 76.653C5.71136 75.3447 4.89892 74.0251 3.57302 73.7057C2.24712 73.3862 0.909841 74.1879 0.58613 75.4963C0.262419 76.8047 1.07486 78.1242 2.40076 78.4437C3.72666 78.7631 5.06394 77.9614 5.38765 76.653Z" fill="#F37451"/>
<g style="mix-blend-mode:multiply" opacity="0.2">
<path d="M59.3596 30.1069L9.37517 34.6191C9.05736 34.6477 8.7484 34.7379 8.4659 34.8844C8.18341 35.0309 7.93292 35.2308 7.72875 35.4729C7.52458 35.7149 7.37071 35.9942 7.27594 36.2949C7.18117 36.5956 7.14736 36.9118 7.17642 37.2254L13.0844 100.997C13.1433 101.63 13.4547 102.215 13.9501 102.622C14.4455 103.029 15.0843 103.225 15.7262 103.167L65.7127 98.6552C66.3545 98.5971 66.9466 98.29 67.3589 97.8012C67.7713 97.3125 67.97 96.6821 67.9114 96.0488L62.0009 32.2766C61.9718 31.963 61.8805 31.6581 61.732 31.3793C61.5836 31.1006 61.3809 30.8534 61.1356 30.6519C60.8904 30.4504 60.6073 30.2986 60.3026 30.2051C59.9978 30.1116 59.6774 30.0782 59.3596 30.1069V30.1069Z" fill="#3A7EC1"/>
</g>
<path d="M69.8923 93.1929L19.9053 97.7061C19.2635 97.7638 18.6247 97.5677 18.1294 97.1609C17.6341 96.754 17.3228 96.1697 17.264 95.5364L11.3529 31.7626C11.3238 31.449 11.3576 31.1328 11.4523 30.8321C11.547 30.5313 11.7009 30.252 11.9051 30.0099C12.1093 29.7679 12.3598 29.5679 12.6423 29.4214C12.9248 29.275 13.2338 29.1849 13.5517 29.1563L63.5382 24.6446C63.856 24.6159 64.1764 24.6493 64.4811 24.7428C64.7858 24.8363 65.0689 24.9881 65.3142 25.1896C65.5595 25.3911 65.7621 25.6383 65.9106 25.917C66.059 26.1958 66.1504 26.5007 66.1794 26.8143L72.0905 90.5891C72.1486 91.2219 71.9497 91.8517 71.5375 92.3399C71.1254 92.8282 70.5336 93.135 69.8923 93.1929V93.1929Z" fill="white"/>
<path d="M18.14 49.2336C18.551 48.934 18.6381 48.3623 18.3345 47.9567C18.0309 47.5511 17.4516 47.4652 17.0406 47.7648C16.6295 48.0643 16.5424 48.636 16.846 49.0416C17.1496 49.4472 17.729 49.5331 18.14 49.2336Z" fill="#CFE9FC"/>
<path d="M33.9086 47.9832L20.8985 49.125C20.6542 49.1459 20.4114 49.0704 20.2234 48.9151C20.0353 48.7598 19.9172 48.5374 19.895 48.2964V48.2964C19.8739 48.0554 19.9504 47.8161 20.1076 47.6306C20.2649 47.4452 20.4901 47.3287 20.7342 47.3066L33.7428 46.1648C33.987 46.1439 34.2297 46.2193 34.4177 46.3745C34.6058 46.5297 34.7239 46.752 34.7463 46.9929V46.9929C34.7675 47.2337 34.6913 47.473 34.5344 47.6585C34.3774 47.844 34.1525 47.9608 33.9086 47.9832V47.9832Z" fill="#CFE9FC"/>
<path d="M34.2064 51.2733L17.9708 52.6967C17.7266 52.7176 17.4839 52.6422 17.2958 52.487C17.1078 52.3318 16.9896 52.1095 16.9673 51.8686C16.9461 51.6275 17.0226 51.388 17.1799 51.2024C17.3373 51.0168 17.5628 50.9003 17.807 50.8783L34.0426 49.4549C34.2869 49.434 34.5297 49.5095 34.7178 49.6648C34.9058 49.8201 35.0239 50.0425 35.0462 50.2835V50.2835C35.0672 50.5245 34.9907 50.7639 34.8333 50.9494C34.6759 51.1349 34.4506 51.2513 34.2064 51.2733V51.2733Z" fill="#CFE9FC"/>
<path d="M18.9928 56.7777C19.3207 56.3909 19.2688 55.8151 18.8769 55.4915C18.485 55.168 17.9015 55.2192 17.5735 55.6059C17.2456 55.9926 17.2975 56.5684 17.6894 56.892C18.0813 57.2156 18.6648 57.1644 18.9928 56.7777Z" fill="#CFE9FC"/>
<path d="M34.6016 55.6741L21.5914 56.8159C21.3471 56.8368 21.1044 56.7613 20.9163 56.6061C20.7282 56.4508 20.6101 56.2283 20.5879 55.9873V55.9873C20.5669 55.7463 20.6434 55.5069 20.8008 55.3214C20.9581 55.1359 21.1835 55.0195 21.4276 54.9975L34.4377 53.8557C34.6822 53.8344 34.9253 53.9096 35.1137 54.0648C35.3021 54.2201 35.4205 54.4427 35.4428 54.6839V54.6839C35.464 54.9252 35.3873 55.1649 35.2296 55.3506C35.0719 55.5362 34.8461 55.6526 34.6016 55.6741Z" fill="#CFE9FC"/>
<path d="M34.8983 58.9642L18.6627 60.3876C18.4184 60.4085 18.1757 60.3331 17.9877 60.1779C17.7996 60.0227 17.6815 59.8004 17.6591 59.5595V59.5595C17.6379 59.3185 17.7143 59.079 17.8716 58.8934C18.0289 58.7079 18.2542 58.5913 18.4983 58.5692L34.7339 57.1458C34.9782 57.1249 35.221 57.2004 35.4091 57.3557C35.5972 57.511 35.7152 57.7334 35.7375 57.9744V57.9744C35.7585 58.2154 35.6821 58.4547 35.5248 58.6402C35.3676 58.8256 35.1423 58.9421 34.8983 58.9642V58.9642Z" fill="#CFE9FC"/>
<path d="M47.5466 46.7102C48.057 46.6865 48.4514 46.259 48.4274 45.7554C48.4034 45.2517 47.9702 44.8626 47.4597 44.8862C46.9493 44.9099 46.555 45.3374 46.5789 45.8411C46.6029 46.3447 47.0362 46.7339 47.5466 46.7102Z" fill="#CFE9FC"/>
<path d="M63.823 45.2803L50.8129 46.422C50.5686 46.4429 50.3259 46.3675 50.1378 46.2122C49.9497 46.0569 49.8316 45.8344 49.8094 45.5934V45.5934C49.7882 45.3523 49.8647 45.1128 50.022 44.9272C50.1794 44.7416 50.4049 44.6251 50.6491 44.6031L63.6592 43.4614C63.9035 43.4405 64.1463 43.5159 64.3344 43.6712C64.5224 43.8265 64.6405 44.049 64.6628 44.29V44.29C64.6839 44.5311 64.6075 44.7706 64.4501 44.9562C64.2927 45.1418 64.0673 45.2583 63.823 45.2803V45.2803Z" fill="#CFE9FC"/>
<path d="M64.1198 48.5699L47.8842 49.9933C47.6399 50.0145 47.3971 49.9393 47.2088 49.7843C47.0206 49.6293 46.9022 49.4071 46.8796 49.1662V49.1662C46.8584 48.9252 46.9348 48.6857 47.0921 48.5001C47.2493 48.3145 47.4747 48.198 47.7188 48.1759L63.9544 46.7525C64.199 46.7313 64.4422 46.8068 64.6305 46.9623C64.8189 47.1179 64.937 47.3408 64.959 47.5821C64.9794 47.8227 64.9027 48.0615 64.7455 48.2465C64.5883 48.4316 64.3634 48.5478 64.1198 48.5699V48.5699Z" fill="#CFE9FC"/>
<path d="M67.4318 82.89L54.4217 84.0313C54.1775 84.0522 53.9348 83.9768 53.7467 83.8216C53.5586 83.6664 53.4405 83.444 53.4181 83.2031C53.397 82.9621 53.4734 82.7225 53.6308 82.5369C53.7882 82.3513 54.0136 82.2348 54.2579 82.2129L67.268 81.0711C67.5123 81.0502 67.7551 81.1257 67.9431 81.281C68.1312 81.4363 68.2493 81.6587 68.2715 81.8997V81.8997C68.2927 82.1408 68.2163 82.3804 68.0589 82.5659C67.9015 82.7515 67.676 82.8681 67.4318 82.89V82.89Z" fill="#CFE9FC"/>
<path d="M67.7286 86.1801L51.493 87.6035C51.2487 87.6244 51.0059 87.5489 50.8178 87.3936C50.6298 87.2384 50.5117 87.0159 50.4894 86.7749C50.4683 86.5338 50.5447 86.2942 50.7021 86.1087C50.8595 85.9231 51.0849 85.8066 51.3292 85.7846L67.5648 84.3612C67.8091 84.3403 68.0518 84.4158 68.2399 84.5711C68.428 84.7264 68.5461 84.9488 68.5683 85.1898V85.1898C68.5895 85.4309 68.513 85.6705 68.3557 85.856C68.1983 86.0416 67.9728 86.1582 67.7286 86.1801V86.1801Z" fill="#CFE9FC"/>
<path d="M64.7482 56.3868L48.5126 57.8102C48.2684 57.8311 48.0257 57.7558 47.8377 57.6006C47.6496 57.4454 47.5315 57.223 47.5091 56.9821V56.9821C47.4879 56.7411 47.5644 56.5015 47.7217 56.3159C47.8791 56.1303 48.1046 56.0138 48.3488 55.9919L64.5844 54.5685C64.8287 54.5476 65.0715 54.623 65.2596 54.7783C65.4477 54.9336 65.5657 55.1561 65.588 55.3971V55.3971C65.609 55.6381 65.5325 55.8775 65.3751 56.063C65.2178 56.2485 64.9924 56.3649 64.7482 56.3868V56.3868Z" fill="#CFE9FC"/>
<path d="M31.8309 70.5141L19.659 71.5816C19.3518 71.6076 19.0466 71.5126 18.8102 71.3174C18.5737 71.1221 18.4251 70.8425 18.3968 70.5395V70.5395C18.3704 70.2363 18.4666 69.9351 18.6645 69.7018C18.8624 69.4684 19.1458 69.3218 19.4529 69.294L31.6249 68.2265C31.932 68.2004 32.2372 68.2952 32.4737 68.4904C32.7102 68.6856 32.8588 68.9652 32.887 69.2681C32.9137 69.5714 32.8175 69.8727 32.6196 70.1062C32.4217 70.3397 32.1381 70.4863 31.8309 70.5141Z" fill="#00D369"/>
<path d="M48.9181 69.1212L36.7462 70.1887C36.439 70.2149 36.1339 70.12 35.8974 69.9248C35.6609 69.7296 35.5123 69.4501 35.484 69.1471C35.4577 68.844 35.5539 68.5429 35.7518 68.3095C35.9497 68.0762 36.2331 67.9295 36.5401 67.9017L48.712 66.8341C49.0192 66.8081 49.3244 66.9031 49.5609 67.0984C49.7974 67.2936 49.9459 67.5733 49.9742 67.8762V67.8762C50.0005 68.1793 49.9042 68.4804 49.7064 68.7136C49.5085 68.9469 49.2251 69.0934 48.9181 69.1212Z" fill="#00D369"/>
<path d="M65.7745 67.4329L53.602 68.5005C53.295 68.5265 52.9899 68.4315 52.7536 68.2364C52.5172 68.0412 52.3687 67.7617 52.3404 67.4588V67.4588C52.3141 67.1557 52.4103 66.8546 52.6082 66.6212C52.8061 66.3879 53.0895 66.2413 53.3965 66.2134L65.5684 65.1458C65.8757 65.1197 66.1809 65.2147 66.4174 65.4099C66.6539 65.6052 66.8025 65.8849 66.8306 66.188V66.188C66.8569 66.491 66.7606 66.7921 66.5628 67.0254C66.3649 67.2586 66.0815 67.4052 65.7745 67.4329Z" fill="#00D369"/>
<path d="M66.9913 72.9023L19.8058 77.0434C19.2066 77.0942 18.6652 76.5737 18.6034 75.8833C18.541 75.193 18.98 74.5845 19.5796 74.5321L66.7651 70.391C67.3643 70.3402 67.9052 70.8608 67.9676 71.5511C68.0299 72.2414 67.5894 72.8499 66.9913 72.9023Z" fill="#CFE9FC"/>
<path d="M67.557 77.4699L20.3715 81.6105C19.7724 81.6613 19.2314 81.1412 19.1691 80.4509C19.1068 79.7611 19.5462 79.151 20.1453 79.1002L67.3319 74.9586C67.931 74.9078 68.472 75.4278 68.5343 76.1187C68.5956 76.809 68.1562 77.417 67.557 77.4699Z" fill="#CFE9FC"/>
<path d="M63.1666 40.0372L16.8325 43.8749C16.1885 43.9284 15.6133 43.4038 15.5541 42.7099C15.4954 42.0155 15.974 41.404 16.6165 41.3506L62.9506 37.5129C63.5946 37.4595 64.1697 37.9835 64.2289 38.6779C64.2896 39.3723 63.8106 39.9838 63.1666 40.0372Z" fill="#CFE9FC"/>
<path d="M62.4923 35.1945L16.2942 39.5146C15.6897 39.5721 15.1555 39.0035 15.1004 38.2468L14.7397 33.2592C14.6846 32.5026 15.1302 31.8437 15.7347 31.7868L61.9328 27.4661C62.5398 27.4086 63.072 27.9772 63.1266 28.7344L63.4878 33.7215C63.5424 34.4787 63.0968 35.1404 62.4923 35.1945Z" fill="#00D369"/>
<path d="M145.522 65.347L126.122 63.9877C125.724 63.9597 125.352 63.7766 125.091 63.4787C124.829 63.1808 124.697 62.7925 124.726 62.3991V62.3991C124.74 62.2043 124.792 62.0141 124.881 61.8394C124.969 61.6647 125.092 61.5089 125.241 61.3809C125.391 61.253 125.564 61.1553 125.752 61.0935C125.94 61.0317 126.138 61.0071 126.335 61.0209L145.735 62.3803C146.134 62.4084 146.505 62.5915 146.767 62.8894C147.029 63.1873 147.16 63.5755 147.132 63.9689V63.9689C147.104 64.3623 146.918 64.7284 146.616 64.9869C146.314 65.2453 145.921 65.3749 145.522 65.347Z" fill="#DAE0EF"/>
<path d="M145.239 71.3105L125.839 69.9512C125.441 69.9232 125.069 69.7401 124.808 69.4422C124.546 69.1443 124.414 68.756 124.443 68.3626V68.3626C124.457 68.1678 124.509 67.9776 124.598 67.8029C124.686 67.6282 124.809 67.4724 124.958 67.3444C125.108 67.2165 125.281 67.1188 125.469 67.057C125.657 66.9952 125.855 66.9706 126.053 66.9844L145.452 68.3438C145.851 68.3719 146.222 68.555 146.484 68.8529C146.746 69.1508 146.877 69.539 146.849 69.9324V69.9324C146.821 70.3258 146.635 70.6919 146.333 70.9504C146.031 71.2088 145.638 71.3384 145.239 71.3105Z" fill="#DAE0EF"/>
<path d="M141.804 105.17L123.367 103.645C123.221 103.633 123.078 103.592 122.947 103.526C122.817 103.459 122.7 103.368 122.606 103.257C122.511 103.146 122.439 103.018 122.394 102.88C122.349 102.742 122.333 102.596 122.345 102.452V102.452C122.357 102.307 122.398 102.166 122.466 102.037C122.533 101.909 122.625 101.794 122.738 101.7C122.85 101.607 122.98 101.536 123.12 101.492C123.26 101.447 123.408 101.431 123.554 101.443L141.991 102.968C142.287 102.993 142.561 103.132 142.752 103.356C142.944 103.58 143.038 103.869 143.013 104.161C142.988 104.453 142.847 104.723 142.62 104.913C142.393 105.102 142.1 105.194 141.804 105.17V105.17Z" fill="#DAE0EF"/>
<path d="M163.84 112.276L122.921 108.893C122.626 108.869 122.352 108.729 122.16 108.506C121.968 108.282 121.875 107.992 121.899 107.701C121.911 107.556 121.952 107.415 122.02 107.286C122.087 107.157 122.18 107.043 122.292 106.949C122.404 106.855 122.534 106.784 122.674 106.74C122.814 106.696 122.962 106.68 123.108 106.692L164.029 110.074C164.176 110.086 164.319 110.127 164.449 110.193C164.58 110.26 164.696 110.351 164.791 110.462C164.886 110.572 164.958 110.701 165.002 110.839C165.047 110.977 165.064 111.123 165.052 111.267V111.267C165.039 111.412 164.998 111.553 164.931 111.682C164.863 111.811 164.77 111.926 164.658 112.019C164.545 112.113 164.415 112.184 164.275 112.228C164.135 112.272 163.987 112.288 163.84 112.276Z" fill="#DAE0EF"/>
<path d="M166.152 89.3135L125.233 85.9309C124.938 85.9065 124.664 85.7671 124.472 85.5435C124.28 85.3198 124.187 85.0302 124.211 84.7383C124.223 84.5938 124.264 84.4529 124.332 84.324C124.399 84.195 124.492 84.0805 124.604 83.9868C124.716 83.8931 124.846 83.8222 124.986 83.7781C125.126 83.734 125.274 83.7176 125.42 83.7298L166.341 87.1118C166.488 87.124 166.631 87.1644 166.761 87.2309C166.892 87.2975 167.008 87.3887 167.103 87.4995C167.198 87.6103 167.27 87.7384 167.314 87.8766C167.359 88.0148 167.376 88.1604 167.363 88.305V88.305C167.351 88.4497 167.31 88.5906 167.243 88.7197C167.175 88.8488 167.082 88.9635 166.97 89.0571C166.857 89.1508 166.727 89.2217 166.587 89.2657C166.447 89.3097 166.299 89.3259 166.152 89.3135Z" fill="#DAE0EF"/>
<path d="M163.395 117.526L122.476 114.143C122.329 114.131 122.187 114.09 122.056 114.024C121.925 113.958 121.809 113.866 121.714 113.756C121.619 113.645 121.547 113.517 121.503 113.379C121.458 113.24 121.441 113.095 121.454 112.95V112.95C121.466 112.806 121.507 112.665 121.574 112.536C121.642 112.407 121.734 112.293 121.846 112.199C121.959 112.105 122.089 112.034 122.229 111.99C122.369 111.946 122.516 111.93 122.663 111.942L163.582 115.324C163.728 115.336 163.871 115.376 164.002 115.443C164.132 115.509 164.248 115.601 164.343 115.711C164.438 115.822 164.51 115.95 164.555 116.089C164.599 116.227 164.616 116.372 164.604 116.517V116.517C164.592 116.662 164.551 116.802 164.483 116.931C164.416 117.06 164.323 117.175 164.211 117.268C164.099 117.362 163.969 117.433 163.829 117.477C163.689 117.521 163.541 117.538 163.395 117.526V117.526Z" fill="#DAE0EF"/>
<path d="M165.707 94.5633L124.788 91.1807C124.641 91.1687 124.499 91.1283 124.368 91.0618C124.237 90.9953 124.121 90.9041 124.026 90.7934C123.931 90.6826 123.859 90.5545 123.815 90.4163C123.77 90.2782 123.753 90.1327 123.766 89.9881V89.9881C123.778 89.8436 123.819 89.7028 123.886 89.5739C123.954 89.4449 124.046 89.3304 124.158 89.2367C124.271 89.1431 124.401 89.0721 124.541 89.028C124.681 88.9839 124.828 88.9674 124.975 88.9795L165.894 92.3616C166.04 92.3738 166.183 92.4142 166.314 92.4807C166.444 92.5473 166.56 92.6385 166.655 92.7493C166.75 92.8601 166.822 92.9883 166.867 93.1265C166.911 93.2647 166.928 93.4102 166.916 93.5548V93.5548C166.904 93.6993 166.863 93.8401 166.795 93.969C166.728 94.098 166.635 94.2125 166.523 94.3062C166.411 94.3998 166.281 94.4707 166.141 94.5149C166.001 94.559 165.853 94.5755 165.707 94.5633V94.5633Z" fill="#DAE0EF"/>
<path d="M159.408 62.442C155.363 63.2088 152.625 66.7111 152.899 70.5128C152.903 70.5985 152.925 70.6827 152.964 70.7603C153.002 70.838 153.057 70.9075 153.124 70.9648C153.192 71.022 153.271 71.0659 153.356 71.0938C153.442 71.1217 153.533 71.1331 153.623 71.1272C153.713 71.1213 153.802 71.0983 153.883 71.0596C153.963 71.0209 154.035 70.9672 154.094 70.9017C154.152 70.8363 154.196 70.7603 154.224 70.6784C154.251 70.5965 154.26 70.5103 154.251 70.4249C154.022 67.2549 156.291 64.3434 159.674 63.7009C160.547 63.5346 161.445 63.5339 162.317 63.6988C163.19 63.8637 164.019 64.1908 164.757 64.6614L163.663 66.2158L167.783 66.088L166.319 62.4378L165.507 63.5958C163.776 62.5014 161.607 62.0243 159.408 62.442ZM168.314 68.881C168.149 68.9101 168.001 68.9961 167.899 69.1225C167.797 69.2489 167.748 69.4066 167.762 69.5651C167.991 72.7348 165.723 75.6466 162.339 76.2891C160.331 76.6703 158.37 76.1588 156.87 75.059L157.686 73.8991L153.565 74.0269L155.029 77.6771L156.118 76.1291C157.906 77.4071 160.237 77.9976 162.605 77.5481C166.65 76.7812 169.389 73.2789 169.114 69.4772C169.109 69.3862 169.083 69.2973 169.038 69.2164C168.994 69.1356 168.932 69.0646 168.856 69.0082C168.78 68.9518 168.693 68.9113 168.6 68.8894C168.506 68.8674 168.409 68.8646 168.314 68.881V68.881Z" fill="#F37451"/>
<g style="mix-blend-mode:multiply" opacity="0.2">
<path d="M168.254 21.8024L153.513 45.4058C153.261 45.8388 152.873 46.1793 152.408 46.3762C151.943 46.5732 151.425 46.6158 150.934 46.4978L56.2665 27.6266C56.1195 27.5913 55.9834 27.5213 55.87 27.4225C55.7566 27.3238 55.6692 27.1993 55.6154 27.0598C55.5616 26.9203 55.543 26.77 55.5612 26.6218C55.5794 26.4737 55.6339 26.3321 55.7199 26.2093L75.8893 3.62457L168.254 21.8024Z" fill="#666666"/>
</g>
<path d="M59.0531 17.5464C58.2906 17.3665 57.8496 17.0833 58.0691 16.9145C58.2886 16.7458 59.086 16.7544 59.8485 16.9338L81.7324 22.0916C82.4964 22.2716 82.9364 22.5542 82.7164 22.7235C82.4964 22.8928 81.701 22.8842 80.937 22.7042L59.0531 17.5464ZM168.254 21.8024L75.7462 0L55.4876 15.5882L54.4145 16.4138C53.9261 16.7895 54.9044 17.4183 56.6009 17.8179L81.3914 23.6604C82.1251 23.8344 82.8743 23.9375 83.6283 23.9685L90.48 24.2003C91.7381 24.2526 92.988 24.4249 94.2125 24.7147L145.177 36.7262C146.733 37.0927 148.359 37.1105 148.807 36.7658L168.254 21.8024Z" fill="#3FA9F5"/>
<path d="M81.7324 22.0916L59.8485 16.9338C59.086 16.7544 58.289 16.7452 58.0691 16.9145C57.8491 17.0838 58.2906 17.3664 59.053 17.5464L80.937 22.7042C81.701 22.8841 82.4969 22.8923 82.7164 22.7235C82.9358 22.5547 82.4964 22.2716 81.7324 22.0916Z" fill="white"/>
<path d="M99.6053 127.374L56.3943 104.129C56.1762 104.011 55.9837 103.853 55.8277 103.662C55.6717 103.471 55.5553 103.252 55.4851 103.017C55.415 102.781 55.3925 102.535 55.4189 102.291C55.4453 102.047 55.5202 101.811 55.6391 101.596L86.148 46.3733C86.2669 46.158 86.4276 45.9679 86.6209 45.8139C86.8143 45.6599 87.0365 45.545 87.2748 45.4758C87.5131 45.4065 87.763 45.3843 88.01 45.4103C88.2571 45.4363 88.4965 45.5101 88.7146 45.6275L131.926 68.8731C132.366 69.1101 132.693 69.5101 132.835 69.985C132.977 70.4599 132.921 70.971 132.681 71.4057L102.172 126.628C101.932 127.063 101.526 127.386 101.045 127.526C100.564 127.666 100.046 127.611 99.6053 127.374Z" fill="white" stroke="#3FA9F5" stroke-miterlimit="10"/>
<path d="M116.229 73.1189L93.602 60.9463C93.4146 60.8455 93.2492 60.7093 93.1151 60.5455C92.9811 60.3816 92.8811 60.1933 92.8208 59.9913C92.7605 59.7893 92.7412 59.5776 92.7638 59.3682C92.7865 59.1588 92.8507 58.9559 92.9528 58.771V58.771C93.1592 58.3976 93.5074 58.1203 93.9209 58.0002C94.3344 57.8801 94.7793 57.9269 95.1578 58.1305L117.785 70.3057C118.163 70.5093 118.444 70.853 118.566 71.261C118.688 71.669 118.64 72.108 118.434 72.4814V72.4814C118.227 72.8543 117.879 73.1309 117.465 73.2505C117.052 73.37 116.607 73.3227 116.229 73.1189Z" fill="#3FA9F5"/>
<path d="M119.582 82.7375L83.5928 63.3767C83.5117 63.3333 83.4165 63.3233 83.328 63.3491C83.2396 63.3748 83.1651 63.4341 83.1209 63.514L71.613 84.3434C71.5911 84.383 71.5774 84.4264 71.5725 84.4712C71.5677 84.5161 71.5718 84.5614 71.5847 84.6046C71.5977 84.6479 71.6191 84.6882 71.6478 84.7233C71.6765 84.7583 71.7119 84.7875 71.7521 84.809L107.741 104.17C107.781 104.191 107.825 104.205 107.87 104.21C107.916 104.214 107.962 104.21 108.006 104.198C108.049 104.185 108.09 104.164 108.126 104.135C108.161 104.107 108.191 104.072 108.213 104.033L119.721 83.2031C119.742 83.1635 119.756 83.1201 119.761 83.0753C119.766 83.0304 119.762 82.9851 119.749 82.9419C119.736 82.8986 119.715 82.8583 119.686 82.8232C119.657 82.7882 119.622 82.759 119.582 82.7375ZM101.526 86.5344L96.1387 83.6368L97.7239 80.7676L103.111 83.6652L101.526 86.5344ZM103.722 83.9926L109.109 86.8902L107.524 89.7589L102.137 86.8613L103.722 83.9926ZM98.0551 80.1632L99.6403 77.294L105.027 80.1916L103.445 83.0654L98.0551 80.1632ZM97.4441 79.8343L92.057 76.9366L93.6422 74.068L99.0293 76.9656L97.4441 79.8343ZM97.1113 80.4372L95.5262 83.3063L90.139 80.4087L91.7242 77.5395L97.1113 80.4372ZM89.528 80.0813L84.1409 77.1837L85.7261 74.315L91.1132 77.2127L89.528 80.0813ZM83.5299 76.8548L78.1428 73.9571L79.7279 71.088L85.1151 73.9856L83.5299 76.8548ZM83.1971 77.4572L81.6119 80.3263L76.2248 77.4287L77.81 74.5596L83.1971 77.4572ZM83.8081 77.7861L89.1952 80.6837L87.61 83.5524L82.2229 80.6547L83.8081 77.7861ZM89.8062 81.0126L95.1934 83.9103L93.6082 86.7794L88.221 83.8818L89.8062 81.0126ZM93.2754 87.3823L91.6902 90.2515L86.3031 87.3539L87.8882 84.4847L93.2754 87.3823ZM93.8864 87.7112L99.2735 90.6089L97.6883 93.4775L92.3012 90.5799L93.8864 87.7112ZM94.2192 87.1083L95.8044 84.2397L101.191 87.1373L99.6063 90.006L94.2192 87.1083ZM101.802 87.4642L107.19 90.3618L105.606 93.2325L100.219 90.3349L101.802 87.4642ZM107.802 90.6907L113.189 93.5883L111.604 96.4575L106.217 93.5599L107.802 90.6907ZM108.135 90.0883L109.72 87.2191L115.107 90.1168L113.522 92.9859L108.135 90.0883ZM110.053 86.6167L111.638 83.7476L117.025 86.6452L115.441 89.5144L110.053 86.6167ZM109.442 86.2878L104.055 83.3902L105.64 80.5236L111.027 83.4212L109.442 86.2878ZM105.973 79.9181L107.558 77.0495L112.945 79.9471L111.36 82.8158L105.973 79.9181ZM105.362 79.5897L99.9747 76.6921L101.56 73.8229L106.947 76.7206L105.362 79.5897ZM99.3637 76.3627L93.9765 73.4651L95.5617 70.5964L100.949 73.494L99.3637 76.3627ZM93.3655 73.1362L87.9784 70.2385L89.5636 67.3699L94.9507 70.2675L93.3655 73.1362ZM93.0327 73.7386L91.4476 76.6092L86.0604 73.7116L87.6456 70.8425L93.0327 73.7386ZM85.4494 73.3827L80.0623 70.4851L81.6475 67.6164L87.0346 70.5141L85.4494 73.3827ZM75.893 78.0326L81.2807 80.9303L79.696 83.7974L74.3089 80.8998L75.893 78.0326ZM81.8917 81.2597L87.2788 84.1573L85.6936 87.026L80.3065 84.1283L81.8917 81.2597ZM85.3608 87.6294L83.7756 90.498L78.3885 87.6004L79.9737 84.7318L85.3608 87.6294ZM85.9718 87.9578L91.3589 90.8554L89.7738 93.7246L84.3866 90.827L85.9718 87.9578ZM91.9699 91.1848L97.3571 94.0825L95.7719 96.9511L90.3848 94.0535L91.9699 91.1848ZM97.9681 94.4114L103.355 97.309L101.77 100.178L96.3829 97.2805L97.9681 94.4114ZM98.3009 93.8085L99.886 90.9398L105.273 93.8374L103.689 96.7061L98.3009 93.8085ZM105.884 94.1643L111.271 97.0619L109.687 99.9306L104.299 97.033L105.884 94.1643ZM117.359 86.0443L111.971 83.1467L113.556 80.2781L118.943 83.1757L117.359 86.0443ZM88.9526 67.042L87.3674 69.9106L81.9803 67.013L83.5649 64.1444L88.9526 67.042ZM73.9776 81.5017L79.3647 84.3993L77.7796 87.2685L72.3924 84.3708L73.9776 81.5017ZM102.383 100.505L103.968 97.6354L109.355 100.533L107.77 103.402L102.383 100.505Z" fill="#CFE9FC"/>
<path d="M83.1314 82.9754L79.8228 81.1953L76.7784 86.7052L80.087 88.4853L83.1314 82.9754Z" fill="#3FA9F5"/>
<path d="M91.9218 80.9287L88.6132 79.1487L82.6827 89.882L85.9914 91.662L91.9218 80.9287Z" fill="#3FA9F5"/>
<path d="M99.5095 81.2967L96.2008 79.5166L88.6884 93.1131L91.997 94.8932L99.5095 81.2967Z" fill="#3FA9F5"/>
<path d="M102.822 89.4646L99.5133 87.6845L94.7205 96.3589L98.0291 98.139L102.822 89.4646Z" fill="#3FA9F5"/>
<path d="M109.597 91.2432L106.289 89.4631L100.701 99.5765L104.009 101.357L109.597 91.2432Z" fill="#3FA9F5"/>
<path d="M104.62 108.473L77.3262 93.7886C77.0933 93.6633 76.9205 93.4518 76.8456 93.2007C76.7707 92.9496 76.8 92.6794 76.9269 92.4496V92.4496C77.0539 92.2199 77.2681 92.0493 77.5225 91.9755C77.7768 91.9016 78.0505 91.9304 78.2834 92.0556L105.58 106.74C105.812 106.865 105.985 107.077 106.06 107.328C106.135 107.579 106.106 107.849 105.979 108.079V108.079C105.916 108.193 105.831 108.293 105.729 108.375C105.626 108.456 105.509 108.517 105.383 108.554C105.256 108.59 105.124 108.602 104.993 108.588C104.863 108.574 104.736 108.535 104.62 108.473V108.473Z" fill="#CFE9FC"/>
<path d="M102.621 112.089L67.7775 93.3448C67.5447 93.2195 67.3718 93.008 67.297 92.7569C67.2221 92.5058 67.2513 92.2357 67.3783 92.0058V92.0058C67.5052 91.7761 67.7194 91.6056 67.9738 91.5317C68.2282 91.4578 68.5019 91.4866 68.7347 91.6119L103.578 110.356C103.694 110.418 103.795 110.502 103.878 110.603C103.961 110.704 104.022 110.82 104.059 110.944C104.096 111.068 104.108 111.199 104.094 111.327C104.08 111.456 104.041 111.581 103.978 111.695V111.695C103.915 111.809 103.83 111.909 103.728 111.991C103.626 112.072 103.508 112.133 103.382 112.169C103.256 112.206 103.124 112.218 102.994 112.204C102.863 112.19 102.736 112.151 102.621 112.089V112.089Z" fill="#CFE9FC"/>
<path d="M100.625 115.705L65.7812 96.9613C65.6658 96.8993 65.5639 96.8155 65.4814 96.7146C65.3988 96.6138 65.3372 96.4979 65.3001 96.3735C65.263 96.2492 65.251 96.1188 65.265 95.9899C65.2789 95.861 65.3185 95.7361 65.3814 95.6223V95.6223C65.5084 95.3925 65.7228 95.222 65.9772 95.1481C66.2317 95.0742 66.5054 95.1031 66.7383 95.2283L101.582 113.973C101.815 114.099 101.988 114.31 102.062 114.561C102.137 114.812 102.108 115.082 101.981 115.312V115.312C101.918 115.426 101.833 115.526 101.731 115.608C101.629 115.689 101.512 115.75 101.386 115.786C101.26 115.823 101.128 115.834 100.997 115.821C100.866 115.807 100.74 115.768 100.625 115.705V115.705Z" fill="#CFE9FC"/>
<path d="M98.6265 119.322L63.7829 100.578C63.5501 100.452 63.3772 100.241 63.3023 99.9898C63.2275 99.7387 63.2567 99.4685 63.3836 99.2387C63.5107 99.009 63.725 98.8384 63.9795 98.7645C64.2339 98.6906 64.5077 98.7195 64.7406 98.8447L99.5842 117.589C99.817 117.715 99.9898 117.926 100.065 118.177C100.14 118.428 100.11 118.698 99.9834 118.928V118.928C99.9206 119.042 99.8357 119.142 99.7334 119.224C99.6312 119.305 99.5137 119.366 99.3877 119.402C99.2617 119.439 99.1296 119.451 98.999 119.437C98.8683 119.423 98.7417 119.384 98.6265 119.322Z" fill="#CFE9FC"/>
<path d="M186.334 52.8835C187.806 51.4322 187.806 49.0792 186.334 47.6278C184.861 46.1765 182.473 46.1765 181.001 47.6278C179.528 49.0792 179.528 51.4322 181.001 52.8835C182.473 54.3348 184.861 54.3348 186.334 52.8835Z" fill="#00D369"/>
</svg>
