<svg width="201" height="152" viewBox="0 0 201 152" fill="none" xmlns="http://www.w3.org/2000/svg">
<path d="M86.2964 140.43C68.2782 150.952 35.0878 158.456 20.2903 143.914C16.7158 140.399 14.2279 136.304 12.3019 129.277C7.19912 110.669 -0.629714 54.8046 33.8392 22.2862C79.737 -21.0142 172.282 3.82188 194.684 53.6519C205.692 78.1367 202.933 115.714 181.481 132.413C162.813 146.947 128.997 146.433 116.171 139.034C114.856 138.275 110.823 135.75 105.055 135.201C96.1206 134.348 89.071 138.808 86.2964 140.43Z" fill="#EBF6FF"/>
<path d="M132.47 120.65L132.47 120.65L145.829 73.3891L145.829 73.389C146.033 72.6661 146.375 71.9916 146.835 71.4038C147.294 70.816 147.863 70.3266 148.508 69.9633C149.152 69.6 149.86 69.3699 150.592 69.2859C151.323 69.2019 152.064 69.2656 152.771 69.4735L152.837 69.2508L152.771 69.4735L190.117 80.4466C190.824 80.6545 191.484 81.0024 192.06 81.4708C192.636 81.9392 193.116 82.5189 193.473 83.177C193.83 83.8351 194.056 84.5587 194.138 85.3063C194.221 86.0539 194.158 86.8106 193.953 87.5333L193.953 87.5334L180.594 134.794C180.39 135.517 180.048 136.192 179.588 136.78C179.128 137.367 178.559 137.857 177.915 138.22C177.27 138.583 176.561 138.813 175.83 138.897C175.098 138.981 174.357 138.918 173.65 138.71L136.307 127.737C135.599 127.529 134.939 127.181 134.363 126.712C133.787 126.244 133.307 125.664 132.95 125.006C132.594 124.348 132.368 123.625 132.285 122.877C132.203 122.129 132.266 121.373 132.47 120.65Z" stroke="#3FA9F5" stroke-width="0.5"/>
<path d="M151.676 44.5576C151.799 44.8523 151.834 45.1777 151.776 45.4927C151.718 45.8076 151.569 46.0979 151.349 46.3267C151.129 46.5555 150.847 46.7127 150.54 46.7782C150.232 46.8438 149.912 46.8148 149.621 46.6949C149.329 46.575 149.079 46.3696 148.902 46.1048C148.725 45.8399 148.629 45.5275 148.626 45.2071C148.624 44.8867 148.714 44.5727 148.887 44.3047C149.059 44.0368 149.306 43.827 149.595 43.7019C149.982 43.5346 150.419 43.5307 150.809 43.6911C151.199 43.8515 151.511 44.1631 151.676 44.5576V44.5576Z" fill="#92BEFF"/>
<path d="M160.55 40.7106C160.673 41.0053 160.708 41.3307 160.65 41.6457C160.592 41.9606 160.443 42.2509 160.223 42.4797C160.003 42.7085 159.721 42.8656 159.414 42.9311C159.106 42.9966 158.786 42.9676 158.495 42.8478C158.203 42.7279 157.953 42.5226 157.776 42.2578C157.599 41.9929 157.503 41.6805 157.5 41.3601C157.498 41.0397 157.588 40.7255 157.761 40.4576C157.933 40.1897 158.18 39.98 158.469 39.8549C158.856 39.6876 159.293 39.6837 159.683 39.8441C160.073 40.0045 160.385 40.3161 160.55 40.7106Z" fill="#92BEFF"/>
<path d="M149.423 65.0889C149.627 64.2204 149.102 63.3477 148.25 63.1396C147.398 62.9316 146.542 63.4671 146.338 64.3356C146.134 65.2041 146.659 66.0768 147.511 66.2849C148.363 66.4929 149.219 65.9574 149.423 65.0889Z" fill="#92BEFF"/>
<path d="M152.635 71.9843C152.759 72.279 152.793 72.6044 152.735 72.9194C152.677 73.2343 152.529 73.5246 152.309 73.7534C152.088 73.9822 151.807 74.1393 151.499 74.2048C151.191 74.2703 150.872 74.2413 150.58 74.1215C150.289 74.0016 150.039 73.7963 149.862 73.5315C149.685 73.2666 149.589 72.9542 149.586 72.6338C149.583 72.3134 149.674 71.9994 149.846 71.7314C150.019 71.4635 150.265 71.2537 150.554 71.1286C150.942 70.9613 151.378 70.9574 151.768 71.1178C152.159 71.2782 152.47 71.5898 152.635 71.9843V71.9843Z" fill="#92BEFF"/>
<path d="M161.507 68.1326C161.63 68.4273 161.665 68.7527 161.607 69.0676C161.549 69.3826 161.4 69.6728 161.18 69.9017C160.96 70.1305 160.678 70.2875 160.371 70.3531C160.063 70.4186 159.743 70.3896 159.452 70.2697C159.16 70.1499 158.91 69.9446 158.733 69.6797C158.556 69.4149 158.46 69.1025 158.458 68.7821C158.455 68.4616 158.545 68.1475 158.718 67.8796C158.89 67.6116 159.137 67.4018 159.426 67.2768C159.813 67.1094 160.25 67.1056 160.64 67.266C161.03 67.4264 161.342 67.7381 161.507 68.1326Z" fill="#92BEFF"/>
<path d="M142.802 48.4118C142.925 48.7065 142.96 49.0319 142.902 49.3468C142.844 49.6617 142.695 49.952 142.475 50.1808C142.255 50.4097 141.974 50.5667 141.666 50.6323C141.358 50.6978 141.038 50.6688 140.747 50.5489C140.455 50.4291 140.205 50.2238 140.028 49.9589C139.851 49.6941 139.755 49.3817 139.753 49.0613C139.75 48.7408 139.841 48.4268 140.013 48.1589C140.185 47.8909 140.432 47.6811 140.721 47.5561C141.109 47.3894 141.545 47.3859 141.935 47.5462C142.325 47.7065 142.637 48.0177 142.802 48.4118Z" fill="#00D369"/>
<path d="M168.505 39.0411C169.324 38.7231 169.735 37.7887 169.423 36.9542C169.111 36.1196 168.194 35.7009 167.376 36.0189C166.557 36.3369 166.147 37.2712 166.459 38.1058C166.77 38.9403 167.687 39.3591 168.505 39.0411Z" fill="#00D369"/>
<path d="M146.078 56.2613C146.201 56.5556 146.235 56.8805 146.177 57.1947C146.118 57.5089 145.97 57.7983 145.75 58.0265C145.53 58.2547 145.249 58.4114 144.942 58.4767C144.635 58.5419 144.316 58.5129 144.025 58.3933C143.734 58.2737 143.485 58.0688 143.308 57.8046C143.131 57.5404 143.035 57.2288 143.032 56.909C143.029 56.5892 143.119 56.2757 143.291 56.0081C143.463 55.7405 143.709 55.5309 143.997 55.4057C144.189 55.3225 144.395 55.2787 144.603 55.2766C144.812 55.2746 145.018 55.3145 145.212 55.3939C145.405 55.4734 145.581 55.591 145.73 55.7398C145.878 55.8886 145.997 56.0658 146.078 56.2613V56.2613Z" fill="#00D369"/>
<path d="M154.948 52.4191C155.07 52.7136 155.104 53.0384 155.045 53.3525C154.986 53.6665 154.837 53.9557 154.617 54.1836C154.397 54.4115 154.116 54.5678 153.809 54.6327C153.502 54.6977 153.183 54.6684 152.892 54.5485C152.601 54.4286 152.352 54.2236 152.176 53.9593C151.999 53.695 151.904 53.3832 151.901 53.0635C151.898 52.7437 151.988 52.4304 152.16 52.163C152.332 51.8956 152.578 51.6861 152.867 51.561C153.254 51.3938 153.691 51.3903 154.081 51.5511C154.471 51.712 154.783 52.0242 154.948 52.4191Z" fill="#00D369"/>
<path d="M163.826 48.5696C163.949 48.864 163.983 49.1888 163.925 49.503C163.866 49.8172 163.718 50.1066 163.498 50.3348C163.278 50.563 162.997 50.7197 162.69 50.785C162.383 50.8502 162.064 50.8212 161.773 50.7016C161.482 50.582 161.233 50.3771 161.056 50.1129C160.879 49.8487 160.783 49.5371 160.78 49.2173C160.777 48.8975 160.868 48.584 161.039 48.3164C161.211 48.0488 161.457 47.8392 161.745 47.714C161.937 47.6308 162.143 47.587 162.351 47.5849C162.56 47.5829 162.766 47.6228 162.96 47.7022C163.153 47.7817 163.329 47.8992 163.478 48.048C163.626 48.1968 163.745 48.3741 163.826 48.5696V48.5696Z" fill="#00D369"/>
<path d="M172.7 44.7226C172.823 45.0169 172.857 45.3418 172.799 45.656C172.74 45.9702 172.592 46.2596 172.372 46.4878C172.152 46.716 171.871 46.8726 171.564 46.9378C171.257 47.0031 170.938 46.9741 170.647 46.8545C170.356 46.7349 170.106 46.5301 169.93 46.2659C169.753 46.0017 169.657 45.6899 169.654 45.3702C169.651 45.0504 169.741 44.737 169.913 44.4694C170.085 44.2018 170.331 43.9922 170.619 43.867C170.811 43.7838 171.017 43.7398 171.225 43.7378C171.434 43.7358 171.64 43.7758 171.833 43.8552C172.027 43.9347 172.203 44.0521 172.351 44.201C172.5 44.3498 172.619 44.5271 172.7 44.7226V44.7226Z" fill="#00D369"/>
<path d="M158.251 61.5619C158.579 60.7337 158.186 59.7914 157.374 59.4572C156.561 59.1231 155.637 59.5237 155.31 60.3519C154.982 61.1802 155.375 62.1224 156.187 62.4565C156.999 62.7907 157.924 62.3902 158.251 61.5619Z" fill="#00D369"/>
<path d="M167.102 56.4264C167.225 56.7208 167.258 57.0456 167.2 57.3597C167.141 57.6738 166.992 57.963 166.772 58.1908C166.552 58.4187 166.271 58.575 165.964 58.64C165.657 58.7049 165.338 58.6756 165.047 58.5557C164.756 58.4358 164.507 58.2308 164.33 57.9665C164.154 57.7022 164.058 57.3904 164.056 57.0707C164.053 56.751 164.143 56.4377 164.315 56.1703C164.487 55.9028 164.733 55.6933 165.021 55.5683C165.213 55.4852 165.419 55.4415 165.628 55.4396C165.836 55.4378 166.043 55.4779 166.236 55.5576C166.43 55.6373 166.606 55.755 166.754 55.904C166.903 56.0531 167.021 56.2306 167.102 56.4264Z" fill="#00D369"/>
<path d="M175.988 52.5817C176.11 52.876 176.145 53.2008 176.086 53.515C176.028 53.8292 175.879 54.1187 175.66 54.3469C175.44 54.575 175.159 54.7317 174.852 54.797C174.545 54.8623 174.226 54.8333 173.935 54.7137C173.644 54.5941 173.394 54.3892 173.217 54.1249C173.041 53.8607 172.945 53.549 172.942 53.2292C172.939 52.9095 173.029 52.596 173.201 52.3285C173.373 52.0609 173.618 51.8512 173.907 51.726C174.099 51.6428 174.305 51.599 174.513 51.597C174.721 51.595 174.928 51.6348 175.121 51.7143C175.314 51.7937 175.49 51.9112 175.639 52.06C175.788 52.2089 175.906 52.3862 175.988 52.5817V52.5817Z" fill="#00D369"/>
<path d="M170.447 65.255C170.651 64.3865 170.126 63.5138 169.274 63.3057C168.422 63.0977 167.566 63.6332 167.362 64.5017C167.158 65.3702 167.683 66.2429 168.535 66.4509C169.387 66.6589 170.243 66.1236 170.447 65.255Z" fill="#00D369"/>
<path d="M179.275 61.7304C179.603 60.9022 179.21 59.96 178.398 59.6259C177.585 59.2917 176.661 59.6923 176.333 60.5205C176.006 61.3487 176.398 62.291 177.211 62.6251C178.023 62.9593 178.947 62.5587 179.275 61.7304Z" fill="#00D369"/>
<path d="M169.935 132.493L132.592 121.52C131.853 121.302 131.162 120.939 130.561 120.45C129.959 119.96 129.458 119.355 129.086 118.668C128.714 117.982 128.478 117.227 128.392 116.448C128.306 115.668 128.372 114.879 128.585 114.125L141.944 66.8642C142.157 66.1102 142.514 65.4064 142.993 64.7929C143.473 64.1794 144.067 63.6682 144.74 63.2886C145.414 62.9091 146.154 62.6685 146.919 62.5807C147.684 62.4928 148.458 62.5595 149.197 62.7768L186.543 73.7499C187.282 73.9671 187.972 74.3308 188.574 74.82C189.175 75.3092 189.676 75.9144 190.048 76.601C190.421 77.2877 190.656 78.0424 190.742 78.822C190.828 79.6016 190.763 80.3907 190.55 81.1445L177.19 128.405C176.977 129.159 176.62 129.863 176.14 130.477C175.66 131.09 175.067 131.601 174.393 131.981C173.719 132.361 172.979 132.601 172.214 132.689C171.449 132.777 170.674 132.71 169.935 132.493V132.493Z" fill="white"/>
<path d="M145.29 101.766L136.957 99.2887L132.162 116.05L140.495 118.528L145.29 101.766Z" fill="#3FA9F5"/>
<path d="M166.087 90.3836L157.747 87.9325L149.008 118.843L157.348 121.294L166.087 90.3836Z" fill="#3FA9F5"/>
<path d="M177.68 99.8896L169.34 97.4385L162.192 122.719L170.533 125.17L177.68 99.8896Z" fill="#3FA9F5"/>
<path d="M174.085 82.3703L148.124 74.7423C147.517 74.5637 147.003 74.1462 146.697 73.5817C146.391 73.0172 146.317 72.3519 146.492 71.7321C146.667 71.1123 147.077 70.5887 147.63 70.2766C148.184 69.9645 148.837 69.8895 149.445 70.0678L175.407 77.6959C176.015 77.875 176.528 78.2927 176.833 78.8571C177.139 79.4216 177.212 80.0865 177.037 80.7061C176.862 81.3259 176.453 81.8493 175.899 82.1614C175.345 82.4735 174.693 82.5487 174.085 82.3703V82.3703Z" fill="#3FA9F5"/>
<path d="M182.811 84.3051C184.031 83.7989 184.619 82.3798 184.122 81.1352C183.626 79.8907 182.234 79.2921 181.013 79.7982C179.792 80.3043 179.205 81.7235 179.702 82.968C180.198 84.2126 181.59 84.8112 182.811 84.3051Z" fill="#3FA9F5"/>
<path d="M32.5769 143.072C30.6825 143.07 28.8386 142.449 27.315 141.301C25.7915 140.154 24.6684 138.539 24.11 136.693L0.387688 57.9608C-0.298877 55.6723 -0.0671703 53.1997 1.03204 51.0852C2.13125 48.9707 4.00819 47.387 6.25117 46.6814L115.242 12.5507C116.353 12.2025 117.521 12.0809 118.679 12.1929C119.836 12.3049 120.961 12.6482 121.988 13.2034C123.015 13.7585 123.925 14.5145 124.666 15.4282C125.407 16.342 125.964 17.3955 126.305 18.5287L150.025 97.261C150.712 99.5495 150.481 102.022 149.382 104.137C148.282 106.252 146.405 107.836 144.162 108.541L35.1803 142.671C34.3372 142.937 33.4595 143.072 32.5769 143.072V143.072ZM117.852 12.5813C117.01 12.5826 116.174 12.7113 115.369 12.9633L6.37835 47.094C4.24492 47.7631 2.45937 49.2684 1.41408 51.2791C0.368793 53.2899 0.149326 55.6414 0.803879 57.8171L24.5261 136.549C25.1835 138.724 26.6602 140.543 28.6321 141.609C30.604 142.674 32.9099 142.899 35.0439 142.233L144.035 108.104C146.167 107.434 147.952 105.928 148.997 103.917C150.042 101.906 150.262 99.5549 149.609 97.3789L125.889 18.6466C125.36 16.8933 124.294 15.3587 122.848 14.267C121.402 13.1753 119.651 12.5838 117.852 12.579V12.5813Z" fill="#293961"/>
<path d="M131.249 20.0704L154.968 98.8027C155.641 101.035 155.416 103.447 154.344 105.511C153.272 107.574 151.44 109.118 149.251 109.804L40.267 143.939C39.1829 144.279 38.0437 144.398 36.9146 144.289C35.7855 144.179 34.6886 143.845 33.6865 143.303C32.6844 142.761 31.7968 142.024 31.0744 141.132C30.352 140.241 29.809 139.213 29.4764 138.108L5.75407 59.3752C5.4208 58.2699 5.30441 57.1085 5.41154 55.9574C5.51867 54.8062 5.84723 53.688 6.37844 52.6663C6.90965 51.6447 7.63308 50.7398 8.50743 50.0033C9.38179 49.2668 10.3899 48.713 11.4742 48.3739L120.458 14.2314C121.542 13.8921 122.682 13.774 123.811 13.8838C124.941 13.9937 126.038 14.3293 127.04 14.8715C128.042 15.4138 128.929 16.152 129.651 17.044C130.374 17.9361 130.916 18.9644 131.249 20.0704V20.0704Z" fill="#CFE9FC"/>
<path d="M150.945 85.4536L154.968 98.8074C155.641 101.039 155.416 103.452 154.344 105.515C153.272 107.578 151.44 109.123 149.251 109.809L40.2668 143.939C39.1827 144.279 38.0436 144.398 36.9145 144.289C35.7854 144.179 34.6884 143.845 33.6864 143.303C32.6843 142.761 31.7967 142.024 31.0743 141.132C30.3519 140.241 29.8089 139.213 29.4762 138.108L25.4508 124.754L150.945 85.4536Z" fill="white"/>
<path d="M81.975 116.692L46.2066 127.891C45.993 127.959 45.7685 127.982 45.5459 127.961C45.3233 127.94 45.107 127.874 44.9094 127.767C44.7118 127.661 44.5368 127.515 44.3944 127.34C44.2519 127.164 44.1449 126.961 44.0795 126.743V126.743C43.9475 126.303 43.9922 125.828 44.2038 125.422C44.4154 125.016 44.7765 124.712 45.2078 124.577L80.9762 113.375C81.4076 113.241 81.8737 113.286 82.2722 113.502C82.6706 113.718 82.9687 114.086 83.101 114.526C83.1667 114.743 83.1897 114.972 83.1687 115.199C83.1476 115.425 83.083 115.645 82.9784 115.847C82.8739 116.048 82.7314 116.226 82.5592 116.371C82.387 116.516 82.1885 116.625 81.975 116.692V116.692Z" fill="#00D369"/>
<path d="M72.3406 127.882L48.4565 135.361C48.243 135.428 48.0187 135.452 47.7964 135.43C47.574 135.409 47.358 135.343 47.1606 135.236C46.9633 135.13 46.7885 134.985 46.6463 134.809C46.504 134.633 46.3971 134.431 46.3316 134.213V134.213C46.2656 133.996 46.2423 133.767 46.2632 133.54C46.2841 133.313 46.3487 133.093 46.4533 132.892C46.558 132.691 46.7005 132.512 46.8729 132.367C47.0452 132.222 47.244 132.114 47.4577 132.047L71.3417 124.567C71.5552 124.5 71.7795 124.477 72.0018 124.499C72.2242 124.52 72.4402 124.586 72.6376 124.692C72.8349 124.799 73.0097 124.944 73.152 125.12C73.2942 125.295 73.4011 125.498 73.4666 125.715V125.715C73.5987 126.155 73.5543 126.63 73.3432 127.036C73.132 127.442 72.7715 127.746 72.3406 127.882Z" fill="#00D369"/>
<path d="M55.0643 92.3486C54.0699 92.6611 53.0435 92.8557 52.0054 92.9285L51.1268 103.635C55.0039 103.623 58.8211 102.658 62.2547 100.822C65.6883 98.9864 68.6372 96.3336 70.8514 93.0887L61.7232 87.7354C60.0109 89.9228 57.6896 91.531 55.0643 92.3486V92.3486Z" fill="#00D369"/>
<path d="M53.6216 107.244L54.5163 96.3418H54.5996C56.4706 96.2116 58.2945 95.686 59.9556 94.7985C61.6166 93.911 63.0784 92.6809 64.248 91.1864L64.3012 91.1205L64.3752 91.1628L73.5959 96.5728L73.5335 96.6623C71.3092 99.9195 68.3481 102.582 64.9006 104.426C61.4531 106.269 57.6207 107.238 53.7279 107.251L53.6216 107.244ZM54.699 96.5303L53.8366 107.044C56.168 107.024 58.4842 106.66 60.7128 105.962C65.82 104.379 70.2572 101.092 73.3115 96.6293L64.3498 91.3727C62.6308 93.5424 60.314 95.1377 57.6978 95.9529V95.9529C56.7222 96.2578 55.7165 96.4515 54.699 96.5303V96.5303Z" fill="#444444"/>
<path d="M64.1347 74.9119C65.0386 77.9022 64.9246 81.1162 63.8111 84.0321L72.9416 89.3879C74.3627 86.2803 75.1308 82.9041 75.1966 79.4761C75.2623 76.0481 74.6243 72.6438 73.3234 69.4821C72.0225 66.3203 70.0875 63.4708 67.6426 61.1164C65.1978 58.7621 62.2971 56.955 59.1267 55.8111L56.4771 66.2066C58.2968 67.0039 59.9244 68.1956 61.2469 69.6989C62.5693 71.2022 63.5547 72.9811 64.1347 74.9119V74.9119Z" fill="white"/>
<path d="M37.9662 83.1058C37.3034 80.9053 37.1848 78.5718 37.6209 76.3133C38.057 74.0547 39.0344 71.9412 40.4659 70.1612C41.8974 68.3811 43.7386 66.9897 45.8254 66.1109C47.9122 65.2321 50.1798 64.8933 52.4262 65.1246L55.0759 54.7315C51.9495 54.1881 48.7488 54.2777 45.6565 54.9954C42.5642 55.7131 39.6408 57.0448 37.0532 58.9144C34.4656 60.7839 32.2646 63.1547 30.5757 65.8915C28.8869 68.6283 27.7433 71.6775 27.2103 74.8648C26.6773 78.0522 26.7652 81.3154 27.4692 84.4681C28.1731 87.6208 29.4793 90.6013 31.313 93.2394C35.0164 98.5672 40.6441 102.177 46.958 103.274L47.8366 92.5702C45.5274 92.0012 43.4032 90.8293 41.6726 89.17C39.9421 87.5106 38.6648 85.4208 37.9662 83.1058V83.1058Z" fill="#00D369"/>
<path d="M43.1825 102.796L43.0761 102.777C36.7785 101.629 31.181 97.9904 27.5029 92.6538C23.8249 87.3171 22.3643 80.7149 23.4394 74.2852C24.5146 67.8556 28.0383 62.1196 33.2429 58.3268C38.4475 54.534 44.9113 52.9918 51.2263 54.036L51.3327 54.0549L48.6367 64.6366H48.5512C46.3215 64.4092 44.0713 64.747 42.0006 65.6201C39.9299 66.4933 38.103 67.8745 36.6823 69.6412C35.2615 71.4078 34.2911 73.5051 33.8572 75.7464C33.4233 77.9877 33.5394 80.3036 34.1953 82.4881C34.8962 84.7826 36.167 86.8535 37.8842 88.4998C39.6015 90.1461 41.7069 91.3118 43.9963 91.8841L44.0772 91.903L43.1825 102.796ZM47.15 53.8805C44.7678 53.8828 42.3993 54.2491 40.1235 54.9671C34.9556 56.5774 30.4705 59.9155 27.3913 64.4429C24.3122 68.9703 22.8186 74.4233 23.1514 79.9222C23.4843 85.421 25.6242 90.6453 29.226 94.7524C32.8278 98.8595 37.6816 101.61 43.0044 102.56L43.8668 92.0491C41.5616 91.4579 39.444 90.2726 37.7172 88.6071C35.9904 86.9415 34.7123 84.8515 34.0057 82.5376C33.3406 80.3283 33.2201 77.9858 33.6548 75.7177C34.0895 73.4495 35.066 71.3257 36.498 69.5341C37.9299 67.7426 39.773 66.3385 41.8641 65.4465C43.9552 64.5544 46.2298 64.2018 48.4864 64.4198L51.0876 54.2152C49.7863 53.994 48.4693 53.882 47.15 53.8805V53.8805Z" fill="#293961"/>
<path d="M106.004 44.0308L81.6342 51.6603L83.7002 58.5196L108.07 50.8902L106.004 44.0308Z" fill="#293961"/>
<path d="M84.0142 70.1315L81.8893 63.0809L81.9841 63.0526L123.343 50.0995L125.468 57.1524L125.373 57.1807L84.0142 70.1315ZM82.1368 63.2129L84.146 69.8816L125.221 57.018L123.211 50.3517L82.1368 63.2129Z" fill="#293961"/>
<path d="M126.391 50.3259L85.1254 63.2445L87.1914 70.1039L128.457 57.1852L126.391 50.3259Z" fill="white"/>
<path d="M87.5148 81.7504L85.39 74.6974L85.4848 74.6692L126.842 61.7184L128.966 68.7689L128.872 68.7972L87.5148 81.7504ZM85.6374 74.8318L87.6443 81.4981L128.721 68.6346L126.712 61.9682L85.6374 74.8318Z" fill="#293961"/>
<path d="M129.878 61.9131L88.6128 74.8318L90.6787 81.6912L131.944 68.7725L129.878 61.9131Z" fill="white"/>
<path d="M153.227 49.3191L83.9033 29.8058C83.0123 29.5552 82.1784 29.1282 81.4493 28.5491C80.7202 27.9699 80.11 27.25 79.6538 26.4305C79.1976 25.6109 78.9041 24.7078 78.7903 23.7726C78.6764 22.8375 78.7443 21.8886 78.9901 20.9802L79.9265 17.5221C80.1725 16.6136 80.5916 15.7635 81.1599 15.0202C81.7282 14.2769 82.4346 13.655 83.2386 13.1901C84.0427 12.7251 84.9288 12.4262 85.8462 12.3105C86.7635 12.1947 87.6943 12.2643 88.5853 12.5153L157.909 32.0287C158.8 32.2792 159.634 32.7062 160.363 33.2854C161.093 33.8645 161.703 34.5844 162.159 35.404C162.615 36.2235 162.909 37.1266 163.022 38.0618C163.136 38.997 163.068 39.9458 162.823 40.8542L161.898 44.3123C161.652 45.2219 161.232 46.073 160.663 46.8171C160.094 47.5611 159.386 48.1835 158.581 48.6486C157.775 49.1136 156.888 49.4122 155.97 49.5272C155.051 49.6423 154.119 49.5716 153.227 49.3191V49.3191Z" fill="#F37451"/>
<path d="M92.1294 26.4846C94.1098 26.4617 95.697 24.8064 95.6746 22.7873C95.6521 20.7682 94.0284 19.15 92.048 19.1729C90.0676 19.1958 88.4804 20.8512 88.5028 22.8703C88.5253 24.8893 90.149 26.5076 92.1294 26.4846Z" fill="#FCE2DA"/>
<path d="M150.034 41.6392L102.079 28.1392C101.47 27.9658 100.953 27.5539 100.642 26.9935C100.33 26.433 100.248 25.7696 100.414 25.1479V25.1479C100.585 24.5277 100.989 24.0015 101.539 23.684C102.088 23.3665 102.739 23.2835 103.348 23.453L151.304 36.9506C151.912 37.1241 152.429 37.536 152.741 38.0964C153.053 38.6568 153.135 39.3203 152.968 39.942C152.798 40.5626 152.394 41.0893 151.845 41.4073C151.295 41.7253 150.644 41.8087 150.034 41.6392Z" fill="#FCE2DA"/>
<path d="M154.085 63.9342C154.051 63.9342 154.018 63.9248 153.989 63.9069C153.96 63.889 153.937 63.8634 153.921 63.8328C153.671 63.3203 153.321 62.8653 152.892 62.4957C152.464 62.126 151.966 61.8494 151.428 61.6829C149.607 61.1007 147.921 61.2633 146.416 62.1544C146.374 62.1797 146.323 62.1869 146.276 62.1743C146.228 62.1617 146.187 62.1304 146.163 62.0873C146.138 62.0441 146.131 61.9927 146.143 61.9443C146.155 61.8959 146.186 61.8544 146.229 61.8291C147.829 60.8862 149.616 60.7024 151.546 61.3176C152.131 61.4978 152.673 61.798 153.139 62.1997C153.606 62.6015 153.987 63.0963 154.258 63.6537C154.273 63.6827 154.279 63.7149 154.278 63.7473C154.276 63.7796 154.267 63.811 154.25 63.8385C154.234 63.8661 154.21 63.8889 154.183 63.9048C154.155 63.9207 154.124 63.9292 154.092 63.9295L154.085 63.9342Z" fill="#293961"/>
<path d="M45.4808 35.7085C45.4885 35.9844 45.4157 36.2564 45.2717 36.4902C45.1276 36.724 44.9189 36.909 44.6717 37.0218C44.4246 37.1345 44.1501 37.17 43.8832 37.1237C43.6163 37.0775 43.3688 36.9515 43.1721 36.7619C42.9753 36.5722 42.8382 36.3273 42.778 36.0581C42.7178 35.789 42.7373 35.5076 42.834 35.2498C42.9307 34.9919 43.1001 34.7691 43.321 34.6095C43.5419 34.4498 43.8043 34.3606 44.075 34.353C44.4377 34.3429 44.7895 34.4799 45.0531 34.7341C45.3167 34.9882 45.4705 35.3387 45.4808 35.7085V35.7085Z" fill="#293961"/>
<path d="M45.6287 40.9746C45.6364 41.2505 45.5636 41.5225 45.4196 41.7563C45.2756 41.9901 45.0668 42.1751 44.8196 42.2878C44.5725 42.4006 44.2981 42.4361 44.0312 42.3898C43.7642 42.3436 43.5167 42.2176 43.32 42.028C43.1232 41.8383 42.9861 41.5934 42.926 41.3242C42.8658 41.0551 42.8852 40.7737 42.9819 40.5159C43.0786 40.258 43.2481 40.0352 43.469 39.8756C43.6899 39.7159 43.9523 39.6267 44.223 39.6191C44.4027 39.6135 44.5817 39.6441 44.7498 39.7093C44.9179 39.7744 45.0716 39.8728 45.2023 39.9987C45.3329 40.1247 45.4379 40.2758 45.5111 40.4432C45.5842 40.6107 45.6242 40.7913 45.6287 40.9746V40.9746Z" fill="#293961"/>
<path d="M50.5812 35.5599C50.5889 35.8359 50.5161 36.1079 50.3721 36.3417C50.2281 36.5755 50.0193 36.7605 49.7722 36.8732C49.525 36.986 49.2506 37.0215 48.9836 36.9753C48.7167 36.929 48.4692 36.8031 48.2725 36.6134C48.0758 36.4237 47.9386 36.1788 47.8784 35.9097C47.8183 35.6405 47.8377 35.3592 47.9344 35.1013C48.031 34.8434 48.2006 34.6206 48.4215 34.461C48.6424 34.3013 48.9048 34.2121 49.1755 34.2045C49.3551 34.1992 49.534 34.2301 49.7019 34.2953C49.8699 34.3606 50.0236 34.459 50.1541 34.5849C50.2847 34.7108 50.3897 34.8617 50.463 35.029C50.5363 35.1963 50.5764 35.3768 50.5812 35.5599V35.5599Z" fill="#293961"/>
<path d="M50.7291 40.8236C50.7372 41.0997 50.6649 41.3719 50.5211 41.606C50.3774 41.84 50.1687 42.0254 49.9216 42.1385C49.6746 42.2517 49.4001 42.2875 49.133 42.2416C48.8659 42.1956 48.6183 42.0698 48.4213 41.8803C48.2244 41.6907 48.0869 41.4457 48.0266 41.1765C47.9662 40.9073 47.9855 40.626 48.0821 40.368C48.1787 40.1099 48.3482 39.8869 48.5692 39.7272C48.7901 39.5674 49.0525 39.4781 49.3233 39.4705C49.6856 39.4604 50.0371 39.5972 50.3006 39.8508C50.5641 40.1045 50.7182 40.4543 50.7291 40.8236V40.8236Z" fill="#293961"/>
<path d="M55.6818 35.409C55.6899 35.6851 55.6175 35.9573 55.4738 36.1914C55.3301 36.4254 55.1215 36.6108 54.8744 36.7239C54.6273 36.8371 54.3528 36.8729 54.0858 36.8269C53.8187 36.781 53.571 36.6552 53.374 36.4656C53.177 36.2761 53.0397 36.0312 52.9793 35.762C52.9189 35.4928 52.9382 35.2113 53.0348 34.9533C53.1314 34.6953 53.3009 34.4723 53.5218 34.3126C53.7428 34.1528 54.0053 34.0636 54.276 34.056C54.6383 34.0458 54.9897 34.1825 55.2533 34.4362C55.5168 34.6898 55.6709 35.0397 55.6818 35.409V35.409Z" fill="#293961"/>
<path d="M45.3372 30.6262C45.3448 30.9022 45.2721 31.1742 45.1281 31.408C44.9841 31.6417 44.7753 31.8267 44.5281 31.9395C44.281 32.0523 44.0066 32.0878 43.7396 32.0415C43.4727 31.9953 43.2252 31.8694 43.0285 31.6797C42.8317 31.49 42.6946 31.245 42.6344 30.9759C42.5743 30.7067 42.5937 30.4255 42.6904 30.1676C42.787 29.9097 42.9566 29.6869 43.1775 29.5272C43.3984 29.3676 43.6608 29.2784 43.9314 29.2708C44.2941 29.2606 44.6459 29.3977 44.9095 29.6518C45.1731 29.906 45.3269 30.2565 45.3372 30.6262V30.6262Z" fill="#293961"/>
<path d="M50.4401 30.4777C50.4478 30.7536 50.375 31.0257 50.231 31.2595C50.0869 31.4933 49.8782 31.6782 49.631 31.791C49.3839 31.9037 49.1095 31.9393 48.8426 31.893C48.5756 31.8467 48.3281 31.7208 48.1314 31.5311C47.9346 31.3414 47.7975 31.0966 47.7374 30.8274C47.6772 30.5583 47.6966 30.2769 47.7933 30.0191C47.89 29.7612 48.0595 29.5383 48.2804 29.3787C48.5013 29.2191 48.7636 29.1298 49.0343 29.1222C49.214 29.1169 49.3929 29.1478 49.5609 29.2131C49.7288 29.2783 49.8824 29.3767 50.013 29.5027C50.1436 29.6286 50.2486 29.7795 50.3218 29.9468C50.3951 30.1141 50.4353 30.2945 50.4401 30.4777V30.4777Z" fill="#293961"/>
<path d="M55.5384 30.3269C55.5465 30.6029 55.4741 30.8752 55.3304 31.1093C55.1867 31.3434 54.978 31.5287 54.731 31.6418C54.4839 31.7549 54.2094 31.7908 53.9423 31.7448C53.6752 31.6988 53.4275 31.5731 53.2306 31.3835C53.0336 31.1939 52.8963 30.949 52.8359 30.6798C52.7755 30.4106 52.7948 30.1292 52.8914 29.8712C52.988 29.6132 53.1575 29.3902 53.3785 29.2305C53.5994 29.0708 53.8618 28.9814 54.1326 28.9738C54.4949 28.9637 54.8463 29.1004 55.1098 29.3541C55.3734 29.6077 55.5275 29.9576 55.5384 30.3269V30.3269Z" fill="#293961"/>
<path d="M55.1429 41.8976C55.8068 41.5291 56.0521 40.6817 55.6907 40.0048C55.3293 39.3278 54.4981 39.0778 53.8341 39.4463C53.1701 39.8147 52.9249 40.6621 53.2863 41.3391C53.6477 42.016 54.4789 42.2661 55.1429 41.8976Z" fill="#293961"/>
</svg>
